<svg width="28" height="29" viewBox="0 0 28 29" fill="none" xmlns="http://www.w3.org/2000/svg">
<path d="M5.40744 17.2176L6.61959 14.6474C6.77524 14.3174 7.22474 14.3174 7.38039 14.6474L8.59254 17.2176L11.3033 17.6323C11.6511 17.6855 11.7898 18.133 11.538 18.3896L9.57679 20.3889L10.0396 23.2132C10.0991 23.576 9.73529 23.8525 9.42409 23.6812L6.99999 22.347L4.57588 23.6812C4.26467 23.8525 3.9009 23.576 3.96034 23.2132L4.42318 20.3889L2.46201 18.3896C2.21021 18.133 2.34883 17.6855 2.69664 17.6323L5.40744 17.2176Z" stroke="black" stroke-width="3.5" stroke-linecap="round" stroke-linejoin="round"/>
<path d="M19.4074 17.2176L20.6196 14.6474C20.7752 14.3174 21.2247 14.3174 21.3804 14.6474L22.5925 17.2176L25.3033 17.6323C25.6511 17.6855 25.7898 18.133 25.538 18.3896L23.5768 20.3889L24.0396 23.2132C24.0991 23.576 23.7353 23.8525 23.4241 23.6812L21 22.347L18.5759 23.6812C18.2647 23.8525 17.9009 23.576 17.9603 23.2132L18.4232 20.3889L16.462 18.3896C16.2102 18.133 16.3488 17.6855 16.6966 17.6323L19.4074 17.2176Z" stroke="black" stroke-width="3.5" stroke-linecap="round" stroke-linejoin="round"/>
<path d="M12.4075 6.71755L13.6196 4.14736C13.7753 3.81742 14.2248 3.81742 14.3804 4.14736L15.5926 6.71755L18.3034 7.13225C18.6512 7.18545 18.7898 7.63295 18.538 7.8896L16.5768 9.88885L17.0397 12.7132C17.0991 13.076 16.7353 13.3525 16.4241 13.1812L14 11.847L11.5759 13.1812C11.2647 13.3525 10.9009 13.076 10.9604 12.7132L11.4232 9.88885L9.462 7.8896C9.2102 7.63295 9.34885 7.18545 9.69665 7.13225L12.4075 6.71755Z" stroke="black" stroke-width="3.5" stroke-linecap="round" stroke-linejoin="round"/>
</svg>
