<svg width="32" height="33" viewBox="0 0 32 33" fill="none" xmlns="http://www.w3.org/2000/svg">
<path d="M12 24.3999C12 24.3999 13.2 19.4117 16 16.3999" stroke="black" stroke-width="3.5" stroke-linecap="round" stroke-linejoin="round"/>
<path d="M21.5809 10.0551L22.0802 15.2407C22.4041 18.6049 19.8818 21.6001 16.5178 21.9241C13.2169 22.2419 10.2267 19.8291 9.90886 16.5282C9.59097 13.2274 12.0092 10.2938 15.3101 9.976L20.8391 9.4436C21.2128 9.40766 21.5449 9.68143 21.5809 10.0551Z" stroke="black" stroke-width="3.5" stroke-linecap="round" stroke-linejoin="round"/>
<path d="M16 29.7331C23.3638 29.7331 29.3333 23.7635 29.3333 16.3998C29.3333 9.03593 23.3638 3.06641 16 3.06641C8.63617 3.06641 2.66666 9.03593 2.66666 16.3998C2.66666 23.7635 8.63617 29.7331 16 29.7331Z" stroke="black" stroke-width="3.5" stroke-linecap="round" stroke-linejoin="round"/>
</svg>
