<svg width="28" height="29" viewBox="0 0 28 29" fill="none" xmlns="http://www.w3.org/2000/svg">
<g clip-path="url(#clip0_15_516)">
<path d="M2.33334 23.7333V22.5666C2.33334 18.0563 5.9897 14.3999 10.5 14.3999" stroke="black" stroke-width="3.5" stroke-linecap="round" stroke-linejoin="round"/>
<path d="M18.4377 14.7656C19.1865 13.9434 20.4802 13.9434 21.2289 14.7656C21.6073 15.1811 22.1512 15.4064 22.7126 15.3802C23.8235 15.3282 24.7382 16.243 24.6863 17.3538C24.6601 17.9152 24.8854 18.4591 25.3009 18.8375C26.1231 19.5863 26.1231 20.88 25.3009 21.6287C24.8854 22.0072 24.6601 22.551 24.6863 23.1125C24.7382 24.2233 23.8235 25.138 22.7126 25.0861C22.1512 25.0599 21.6073 25.2852 21.2289 25.7007C20.4802 26.5229 19.1865 26.5229 18.4377 25.7007C18.0593 25.2852 17.5154 25.0599 16.954 25.0861C15.8432 25.138 14.9284 24.2233 14.9803 23.1125C15.0066 22.551 14.7813 22.0072 14.3658 21.6287C13.5436 20.88 13.5436 19.5863 14.3658 18.8375C14.7813 18.4591 15.0066 17.9152 14.9803 17.3538C14.9284 16.243 15.8432 15.3282 16.954 15.3802C17.5154 15.4064 18.0593 15.1811 18.4377 14.7656Z" stroke="black" stroke-width="3.5"/>
<path d="M17.9243 20.2331L19.197 21.5059L21.7425 18.9604" stroke="black" stroke-width="3.5" stroke-linecap="round" stroke-linejoin="round"/>
<path d="M10.5 14.3997C13.0773 14.3997 15.1667 12.3104 15.1667 9.73307C15.1667 7.15572 13.0773 5.06641 10.5 5.06641C7.92269 5.06641 5.83334 7.15572 5.83334 9.73307C5.83334 12.3104 7.92269 14.3997 10.5 14.3997Z" stroke="black" stroke-width="3.5" stroke-linecap="round" stroke-linejoin="round"/>
</g>
<defs>
<clipPath id="clip0_15_516">
<rect width="28" height="28" fill="white" transform="translate(0 0.399902)"/>
</clipPath>
</defs>
</svg>
