<svg width="20" height="20" viewBox="0 0 20 20" fill="none" xmlns="http://www.w3.org/2000/svg">
<g id="SVG">
<path id="Vector" fill-rule="evenodd" clip-rule="evenodd" d="M17.2917 10C17.2917 10.3452 17.0119 10.625 16.6667 10.625H4.84227L8.77527 14.5581C9.01935 14.8021 9.01935 15.1979 8.77527 15.4419C8.53119 15.686 8.13552 15.686 7.89144 15.4419L2.89144 10.4419C2.77419 10.3248 2.70835 10.1658 2.70835 10C2.70835 9.83425 2.77419 9.67525 2.89144 9.55809L7.89144 4.55809C8.13552 4.314 8.53119 4.314 8.77527 4.55809C9.01935 4.80217 9.01935 5.19783 8.77527 5.44192L4.84227 9.375H16.6667C17.0119 9.375 17.2917 9.65484 17.2917 10Z" fill="#6A855C"/>
</g>
</svg>
