<svg width="29" height="29" viewBox="0 0 29 29" fill="none" xmlns="http://www.w3.org/2000/svg">
<g id="Wallet" clip-path="url(#clip0_1_888)">
<path id="Vector" d="M24.125 8.375H6.625C6.39294 8.375 6.17038 8.28281 6.00628 8.11872C5.84219 7.95462 5.75 7.73206 5.75 7.5C5.75 7.26794 5.84219 7.04538 6.00628 6.88128C6.17038 6.71719 6.39294 6.625 6.625 6.625H21.5C21.7321 6.625 21.9546 6.53281 22.1187 6.36872C22.2828 6.20462 22.375 5.98206 22.375 5.75C22.375 5.51794 22.2828 5.29538 22.1187 5.13128C21.9546 4.96719 21.7321 4.875 21.5 4.875H6.625C5.92881 4.875 5.26113 5.15156 4.76884 5.64384C4.27656 6.13613 4 6.80381 4 7.5V21.5C4 22.1962 4.27656 22.8639 4.76884 23.3562C5.26113 23.8484 5.92881 24.125 6.625 24.125H24.125C24.5891 24.125 25.0342 23.9406 25.3624 23.6124C25.6906 23.2842 25.875 22.8391 25.875 22.375V10.125C25.875 9.66087 25.6906 9.21575 25.3624 8.88756C25.0342 8.55937 24.5891 8.375 24.125 8.375ZM20.1875 17.125C19.9279 17.125 19.6742 17.048 19.4583 16.9038C19.2425 16.7596 19.0742 16.5546 18.9749 16.3148C18.8756 16.0749 18.8496 15.811 18.9002 15.5564C18.9509 15.3018 19.0759 15.068 19.2594 14.8844C19.443 14.7009 19.6768 14.5759 19.9314 14.5252C20.186 14.4746 20.4499 14.5006 20.6898 14.5999C20.9296 14.6992 21.1346 14.8675 21.2788 15.0833C21.423 15.2992 21.5 15.5529 21.5 15.8125C21.5 16.1606 21.3617 16.4944 21.1156 16.7406C20.8694 16.9867 20.5356 17.125 20.1875 17.125Z" fill="#AEAEAE"/>
</g>
<defs>
<clipPath id="clip0_1_888">
<rect width="28" height="28" fill="white" transform="translate(0.5 0.5)"/>
</clipPath>
</defs>
</svg>
