<svg width="28" height="29" viewBox="0 0 28 29" fill="none" xmlns="http://www.w3.org/2000/svg">
<g id="Users" clip-path="url(#clip0_1_880)">
<path id="Vector" d="M17.9889 21.897C18.075 22.029 18.1238 22.1819 18.1303 22.3393C18.1367 22.4968 18.1004 22.6531 18.0254 22.7917C17.9503 22.9303 17.8392 23.046 17.7038 23.1267C17.5684 23.2074 17.4137 23.25 17.2561 23.25H1.11891C0.961298 23.25 0.806615 23.2074 0.671207 23.1267C0.535799 23.046 0.424693 22.9303 0.349627 22.7917C0.274562 22.6531 0.238325 22.4968 0.244745 22.3393C0.251165 22.1819 0.300003 22.029 0.386099 21.897C1.61778 20.0011 3.42945 18.5543 5.55079 17.7725C4.37807 16.9917 3.48772 15.8543 3.01143 14.5285C2.53513 13.2026 2.49815 11.7586 2.90598 10.4101C3.31381 9.06161 4.14477 7.88013 5.27601 7.04041C6.40724 6.2007 7.77867 5.74731 9.1875 5.74731C10.5963 5.74731 11.9678 6.2007 13.099 7.04041C14.2302 7.88013 15.0612 9.06161 15.469 10.4101C15.8769 11.7586 15.8399 13.2026 15.3636 14.5285C14.8873 15.8543 13.9969 16.9917 12.8242 17.7725C14.9456 18.5543 16.7572 20.0011 17.9889 21.897ZM27.6041 21.8806C26.3721 19.9927 24.5644 18.5521 22.4492 17.7725C23.8337 16.8399 24.8107 15.4148 25.1815 13.7872C25.5522 12.1597 25.2888 10.452 24.4449 9.01179C23.601 7.57159 22.2399 6.50711 20.6388 6.03504C19.0377 5.56297 17.3169 5.71878 15.8266 6.47076C15.7696 6.50018 15.7198 6.54177 15.6806 6.59259C15.6415 6.64341 15.614 6.7022 15.6002 6.76482C15.5863 6.82743 15.5863 6.89233 15.6003 6.95492C15.6143 7.01751 15.6419 7.07626 15.6811 7.12701C16.7893 8.5093 17.4257 10.2101 17.4971 11.9803C17.5686 13.7505 17.0713 15.4971 16.0781 16.9642C16.0139 17.0601 15.9902 17.1774 16.0121 17.2907C16.0341 17.404 16.0998 17.504 16.1952 17.569C17.49 18.4728 18.5986 19.6177 19.46 20.9411C19.8074 21.4731 19.9493 22.1135 19.8592 22.7425C19.8491 22.805 19.8527 22.8691 19.8697 22.9301C19.8868 22.9912 19.9169 23.0478 19.958 23.0961C19.999 23.1443 20.0501 23.1831 20.1077 23.2097C20.1652 23.2362 20.2279 23.25 20.2913 23.25H26.8866C27.0792 23.25 27.2665 23.1865 27.4194 23.0692C27.5723 22.9519 27.6822 22.7875 27.732 22.6014C27.7625 22.479 27.7668 22.3516 27.7447 22.2274C27.7227 22.1032 27.6748 21.985 27.6041 21.8806Z" fill="#AEAEAE"/>
</g>
<defs>
<clipPath id="clip0_1_880">
<rect width="28" height="28" fill="white" transform="translate(0 0.5)"/>
</clipPath>
</defs>
</svg>
