<svg width="29" height="29" viewBox="0 0 29 29" fill="none" xmlns="http://www.w3.org/2000/svg">
<g id="CalendarBlank" clip-path="url(#clip0_1_873)">
<path id="Vector" d="M23.25 4H20.625V3.125C20.625 2.89294 20.5328 2.67038 20.3687 2.50628C20.2046 2.34219 19.9821 2.25 19.75 2.25C19.5179 2.25 19.2954 2.34219 19.1313 2.50628C18.9672 2.67038 18.875 2.89294 18.875 3.125V4H10.125V3.125C10.125 2.89294 10.0328 2.67038 9.86872 2.50628C9.70462 2.34219 9.48206 2.25 9.25 2.25C9.01794 2.25 8.79538 2.34219 8.63128 2.50628C8.46719 2.67038 8.375 2.89294 8.375 3.125V4H5.75C5.28587 4 4.84075 4.18437 4.51256 4.51256C4.18437 4.84075 4 5.28587 4 5.75V23.25C4 23.7141 4.18437 24.1592 4.51256 24.4874C4.84075 24.8156 5.28587 25 5.75 25H23.25C23.7141 25 24.1592 24.8156 24.4874 24.4874C24.8156 24.1592 25 23.7141 25 23.25V5.75C25 5.28587 24.8156 4.84075 24.4874 4.51256C24.1592 4.18437 23.7141 4 23.25 4ZM23.25 9.25H5.75V5.75H8.375V6.625C8.375 6.85706 8.46719 7.07962 8.63128 7.24372C8.79538 7.40781 9.01794 7.5 9.25 7.5C9.48206 7.5 9.70462 7.40781 9.86872 7.24372C10.0328 7.07962 10.125 6.85706 10.125 6.625V5.75H18.875V6.625C18.875 6.85706 18.9672 7.07962 19.1313 7.24372C19.2954 7.40781 19.5179 7.5 19.75 7.5C19.9821 7.5 20.2046 7.40781 20.3687 7.24372C20.5328 7.07962 20.625 6.85706 20.625 6.625V5.75H23.25V9.25Z" fill="#AEAEAE"/>
</g>
<defs>
<clipPath id="clip0_1_873">
<rect width="28" height="28" fill="white" transform="translate(0.5 0.5)"/>
</clipPath>
</defs>
</svg>
