<svg width="20" height="21" viewBox="0 0 20 21" fill="none" xmlns="http://www.w3.org/2000/svg">
<path d="M2 3.5C1.44772 3.5 1 3.94772 1 4.5V5.5C1 6.05228 1.44772 6.5 2 6.5H18C18.5523 6.5 19 6.05228 19 5.5V4.5C19 3.94772 18.5523 3.5 18 3.5H2Z" fill="#818181"/>
<path fill-rule="evenodd" clip-rule="evenodd" d="M2 8H18L17.1885 15.7094C17.0813 16.7273 16.223 17.5 15.1995 17.5H4.80052C3.77701 17.5 2.91866 16.7273 2.81151 15.7094L2 8ZM7 11.5C7 10.9477 7.44772 10.5 8 10.5H12C12.5523 10.5 13 10.9477 13 11.5C13 12.0523 12.5523 12.5 12 12.5H8C7.44772 12.5 7 12.0523 7 11.5Z" fill="#818181"/>
</svg>
