<svg width="32" height="32" viewBox="0 0 32 32" fill="none" xmlns="http://www.w3.org/2000/svg">
<path d="M5 27.25C4.58579 27.25 4.25 27.5858 4.25 28C4.25 28.4142 4.58579 28.75 5 28.75V27.25ZM27 28.75C27.4142 28.75 27.75 28.4142 27.75 28C27.75 27.5858 27.4142 27.25 27 27.25V28.75ZM6 3.25C5.58579 3.25 5.25 3.58579 5.25 4C5.25 4.41421 5.58579 4.75 6 4.75V3.25ZM26 4.75C26.4142 4.75 26.75 4.41421 26.75 4C26.75 3.58579 26.4142 3.25 26 3.25V4.75ZM7.75 4C7.75 3.58579 7.41421 3.25 7 3.25C6.58579 3.25 6.25 3.58579 6.25 4H7.75ZM6.25 28C6.25 28.4142 6.58579 28.75 7 28.75C7.41421 28.75 7.75 28.4142 7.75 28H6.25ZM25.75 4C25.75 3.58579 25.4142 3.25 25 3.25C24.5858 3.25 24.25 3.58579 24.25 4H25.75ZM24.25 28C24.25 28.4142 24.5858 28.75 25 28.75C25.4142 28.75 25.75 28.4142 25.75 28H24.25ZM12 8.25C11.5858 8.25 11.25 8.58579 11.25 9C11.25 9.41421 11.5858 9.75 12 9.75V8.25ZM14 9.75C14.4142 9.75 14.75 9.41421 14.75 9C14.75 8.58579 14.4142 8.25 14 8.25V9.75ZM12 12.25C11.5858 12.25 11.25 12.5858 11.25 13C11.25 13.4142 11.5858 13.75 12 13.75V12.25ZM14 13.75C14.4142 13.75 14.75 13.4142 14.75 13C14.75 12.5858 14.4142 12.25 14 12.25V13.75ZM12 16.25C11.5858 16.25 11.25 16.5858 11.25 17C11.25 17.4142 11.5858 17.75 12 17.75V16.25ZM14 17.75C14.4142 17.75 14.75 17.4142 14.75 17C14.75 16.5858 14.4142 16.25 14 16.25V17.75ZM18 8.25C17.5858 8.25 17.25 8.58579 17.25 9C17.25 9.41421 17.5858 9.75 18 9.75V8.25ZM20 9.75C20.4142 9.75 20.75 9.41421 20.75 9C20.75 8.58579 20.4142 8.25 20 8.25V9.75ZM18 12.25C17.5858 12.25 17.25 12.5858 17.25 13C17.25 13.4142 17.5858 13.75 18 13.75V12.25ZM20 13.75C20.4142 13.75 20.75 13.4142 20.75 13C20.75 12.5858 20.4142 12.25 20 12.25V13.75ZM18 16.25C17.5858 16.25 17.25 16.5858 17.25 17C17.25 17.4142 17.5858 17.75 18 17.75V16.25ZM20 17.75C20.4142 17.75 20.75 17.4142 20.75 17C20.75 16.5858 20.4142 16.25 20 16.25V17.75ZM11.25 28C11.25 28.4142 11.5858 28.75 12 28.75C12.4142 28.75 12.75 28.4142 12.75 28H11.25ZM19.25 28C19.25 28.4142 19.5858 28.75 20 28.75C20.4142 28.75 20.75 28.4142 20.75 28H19.25ZM5 28.75H27V27.25H5V28.75ZM6 4.75H26V3.25H6V4.75ZM6.25 4V28H7.75V4H6.25ZM24.25 4V28H25.75V4H24.25ZM12 9.75H14V8.25H12V9.75ZM12 13.75H14V12.25H12V13.75ZM12 17.75H14V16.25H12V17.75ZM18 9.75H20V8.25H18V9.75ZM18 13.75H20V12.25H18V13.75ZM18 17.75H20V16.25H18V17.75ZM12.75 28V23.5H11.25V28H12.75ZM13.5 22.75H18.5V21.25H13.5V22.75ZM19.25 23.5V28H20.75V23.5H19.25ZM18.5 22.75C18.9142 22.75 19.25 23.0858 19.25 23.5H20.75C20.75 22.2574 19.7426 21.25 18.5 21.25V22.75ZM12.75 23.5C12.75 23.0858 13.0858 22.75 13.5 22.75V21.25C12.2574 21.25 11.25 22.2574 11.25 23.5H12.75Z" fill="black"/>
</svg>
