<svg width="117" height="27" viewBox="0 0 117 27" fill="none" xmlns="http://www.w3.org/2000/svg">
<path d="M8.49688 19.7516L8.83229 20.4224L8.8323 20.4224L8.49688 19.7516ZM14.4969 7.24847L14.8323 6.57765L14.4969 7.24847ZM15.5031 7.24847L15.8385 7.91929L15.5031 7.24847ZM8.49688 4.75158L8.16147 4.08076L8.49688 4.75158ZM9.50312 4.75158L9.1677 5.4224L9.50312 4.75158ZM4.62811 21.686L4.2927 21.0151L4.2927 21.0151L4.62811 21.686ZM19.3719 5.31408L19.0365 4.64326L19.3719 5.31408ZM3.62188 7.18908L3.95729 7.8599L3.62188 7.18908ZM9.75 8.25002C9.75 7.83581 9.41421 7.50002 9 7.50002C8.58579 7.50002 8.25 7.83581 8.25 8.25002H9.75ZM8.25 16.5C8.25 16.9142 8.58579 17.25 9 17.25C9.41421 17.25 9.75 16.9142 9.75 16.5H8.25ZM15.75 10.5C15.75 10.0858 15.4142 9.75002 15 9.75002C14.5858 9.75002 14.25 10.0858 14.25 10.5H15.75ZM14.25 18.75C14.25 19.1642 14.5858 19.5 15 19.5C15.4142 19.5 15.75 19.1642 15.75 18.75H14.25ZM20.25 6.32031V18.8047H21.75V6.32031H20.25ZM3.75 20.6797V8.19531H2.25V20.6797H3.75ZM3.95729 7.8599L8.8323 5.4224L8.16147 4.08076L3.28647 6.51826L3.95729 7.8599ZM9.1677 5.4224L14.1615 7.91929L14.8323 6.57765L9.83853 4.08076L9.1677 5.4224ZM15.8385 7.91929L19.7073 5.9849L19.0365 4.64326L15.1677 6.57765L15.8385 7.91929ZM8.16147 19.0808L4.2927 21.0151L4.96352 22.3568L8.83229 20.4224L8.16147 19.0808ZM20.0427 19.1401L15.1677 21.5776L15.8385 22.9193L20.7135 20.4818L20.0427 19.1401ZM14.8323 21.5776L9.83853 19.0808L9.1677 20.4224L14.1615 22.9193L14.8323 21.5776ZM15.1677 21.5776C15.0621 21.6304 14.9379 21.6304 14.8323 21.5776L14.1615 22.9193C14.6893 23.1832 15.3107 23.1832 15.8385 22.9193L15.1677 21.5776ZM8.8323 20.4224C8.93787 20.3696 9.06213 20.3696 9.1677 20.4224L9.83853 19.0808C9.31066 18.8168 8.68934 18.8168 8.16147 19.0808L8.8323 20.4224ZM14.1615 7.91929C14.6893 8.18322 15.3107 8.18322 15.8385 7.91929L15.1677 6.57765C15.0621 6.63043 14.9379 6.63043 14.8323 6.57765L14.1615 7.91929ZM8.8323 5.4224C8.93787 5.36962 9.06213 5.36962 9.1677 5.4224L9.83853 4.08076C9.31066 3.81683 8.68934 3.81683 8.16147 4.08076L8.8323 5.4224ZM2.25 20.6797C2.25 22.0736 3.71684 22.9801 4.96353 22.3568L4.2927 21.0151C4.04337 21.1398 3.75 20.9585 3.75 20.6797H2.25ZM20.25 18.8047C20.25 18.9468 20.1697 19.0766 20.0427 19.1401L20.7135 20.4818C21.3487 20.1642 21.75 19.5149 21.75 18.8047H20.25ZM21.75 6.32031C21.75 4.92647 20.2832 4.01992 19.0365 4.64326L19.7073 5.9849C19.9566 5.86023 20.25 6.04154 20.25 6.32031H21.75ZM3.75 8.19531C3.75 8.05327 3.83025 7.92342 3.95729 7.8599L3.28647 6.51826C2.65125 6.83587 2.25 7.48512 2.25 8.19531H3.75ZM8.25 8.25002V16.5H9.75V8.25002H8.25ZM14.25 10.5V18.75H15.75V10.5H14.25Z" fill="black" fill-opacity="0.7"/>
<path d="M42.17 20L41.018 17.066H35.15L33.998 20H32.36L37.166 7.76H39.074L43.898 20H42.17ZM37.724 10.442L35.654 15.734H40.514L38.444 10.442L38.084 9.362L37.724 10.442ZM48.8303 20.216C46.2923 20.216 44.7623 18.344 44.7623 15.23C44.7623 11.99 46.3283 10.208 48.8303 10.208C49.9643 10.208 50.8823 10.676 51.5123 11.558V7.04H53.0963V20H51.5123V18.794C50.8823 19.694 49.9643 20.216 48.8303 20.216ZM48.9383 18.848C50.6123 18.848 51.5123 17.57 51.5123 15.23C51.5123 12.908 50.5763 11.576 48.9383 11.576C47.2823 11.576 46.3823 12.872 46.3823 15.23C46.3823 17.534 47.3183 18.848 48.9383 18.848ZM58.0134 20L54.4494 10.442H56.1594L58.8054 17.858L59.0394 18.686L59.2734 17.858L61.9194 10.442H63.5214L59.9574 20H58.0134ZM73.1275 16.886C72.6055 19.118 71.0035 20.216 68.8255 20.216C66.0535 20.216 64.3795 18.344 64.3795 15.23C64.3795 11.99 66.0535 10.208 68.7355 10.208C71.4355 10.208 73.0555 12.062 73.0555 15.104V15.5H65.9995C66.0895 17.642 67.0975 18.848 68.8255 18.848C70.1755 18.848 71.1295 18.2 71.4715 16.886H73.1275ZM68.7355 11.576C67.2055 11.576 66.2875 12.53 66.0535 14.312H71.3995C71.1835 12.548 70.2295 11.576 68.7355 11.576ZM75.1663 20V10.442H76.7503V11.738C77.3983 10.73 78.4423 10.208 79.7023 10.208C81.7363 10.208 82.9423 11.396 82.9423 13.61V20H81.3583V13.934C81.3583 12.494 80.7103 11.558 79.2703 11.558C77.6863 11.558 76.7503 12.98 76.7503 14.348V20H75.1663ZM85.683 17.246V11.702H84.351V10.442H85.683V8.246H87.267V10.442H89.373V11.702H87.267V17.246C87.267 18.398 87.609 18.938 89.013 18.938H89.337V20.072C89.157 20.162 88.761 20.216 88.311 20.216C86.529 20.216 85.683 19.262 85.683 17.246ZM96.9651 16.094V10.442H98.5491V20H96.9651V18.704C96.3171 19.712 95.3091 20.216 94.0671 20.216C92.0691 20.216 90.8811 19.046 90.8811 16.832V10.442H92.4651V16.508C92.4651 17.948 93.0951 18.866 94.4991 18.866C96.0471 18.866 96.9651 17.462 96.9651 16.094ZM101.076 20V10.442H102.66V11.918C103.308 10.748 104.334 10.208 105.486 10.208C105.864 10.208 106.206 10.298 106.386 10.442V11.864C106.116 11.774 105.774 11.738 105.396 11.738C103.488 11.738 102.66 12.926 102.66 14.654V20H101.076ZM115.877 16.886C115.355 19.118 113.753 20.216 111.575 20.216C108.803 20.216 107.129 18.344 107.129 15.23C107.129 11.99 108.803 10.208 111.485 10.208C114.185 10.208 115.805 12.062 115.805 15.104V15.5H108.749C108.839 17.642 109.847 18.848 111.575 18.848C112.925 18.848 113.879 18.2 114.221 16.886H115.877ZM111.485 11.576C109.955 11.576 109.037 12.53 108.803 14.312H114.149C113.933 12.548 112.979 11.576 111.485 11.576Z" fill="black" fill-opacity="0.7"/>
</svg>
