<svg width="20" height="21" viewBox="0 0 20 21" fill="none" xmlns="http://www.w3.org/2000/svg">
<path d="M5.12744 4.00197C5.16817 4.00066 5.20906 4 5.25011 4H14.7501C14.7912 4 14.832 4.00066 14.8728 4.00197C14.5645 3.12705 13.7305 2.5 12.7501 2.5H7.25011C6.26971 2.5 5.43576 3.12705 5.12744 4.00197Z" fill="#818181"/>
<path d="M1 10.75C1 9.50736 2.00736 8.5 3.25 8.5H16.75C17.9926 8.5 19 9.50736 19 10.75V16.25C19 17.4926 17.9926 18.5 16.75 18.5H3.25C2.00736 18.5 1 17.4926 1 16.25V10.75Z" fill="#818181"/>
<path d="M3.25011 7C3.20906 7 3.16817 7.00066 3.12744 7.00197C3.43576 6.12705 4.26971 5.5 5.25011 5.5H14.7501C15.7305 5.5 16.5645 6.12705 16.8728 7.00197C16.832 7.00066 16.7912 7 16.7501 7H3.25011Z" fill="#818181"/>
</svg>
