<svg width="24" height="25" viewBox="0 0 24 25" fill="none" xmlns="http://www.w3.org/2000/svg">
<path d="M3.65901 12.0594L4.18934 11.5291L4.18934 11.5291L3.65901 12.0594ZM11.159 4.5594L10.6287 5.08973V5.08973L11.159 4.5594ZM20.7401 14.1405L21.2705 13.6102L20.7401 14.1405ZM21.0705 16.7469L20.443 16.3361L20.443 16.3361L21.0705 16.7469ZM15.8465 21.9709L15.4357 21.3434L15.8465 21.9709ZM13.2401 21.6405L13.7705 21.1102V21.1102L13.2401 21.6405ZM6 6.90039V6.15039C5.58579 6.15039 5.25 6.48618 5.25 6.90039H6ZM6.0075 6.90039H6.7575C6.7575 6.48618 6.42171 6.15039 6.0075 6.15039V6.90039ZM6.0075 6.90789V7.65789C6.42171 7.65789 6.7575 7.3221 6.7575 6.90789H6.0075ZM6 6.90789H5.25C5.25 7.3221 5.58579 7.65789 6 7.65789V6.90789ZM5.25 4.65039H9.56802V3.15039H5.25V4.65039ZM3.75 10.4684V6.15039H2.25V10.4684H3.75ZM4.18934 11.5291C3.90804 11.2478 3.75 10.8662 3.75 10.4684H2.25C2.25 11.2641 2.56607 12.0271 3.12868 12.5897L4.18934 11.5291ZM9.56802 4.65039C9.96584 4.65039 10.3474 4.80843 10.6287 5.08973L11.6893 4.02907C11.1267 3.46646 10.3637 3.15039 9.56802 3.15039V4.65039ZM5.25 3.15039C3.59315 3.15039 2.25 4.49354 2.25 6.15039H3.75C3.75 5.32196 4.42157 4.65039 5.25 4.65039V3.15039ZM10.6287 5.08973L20.2098 14.6708L21.2705 13.6102L11.6893 4.02907L10.6287 5.08973ZM20.443 16.3361C19.1374 18.3303 17.4299 20.0378 15.4357 21.3434L16.2573 22.5984C18.4242 21.1797 20.2793 19.3246 21.698 17.1577L20.443 16.3361ZM13.7705 21.1102L4.18934 11.5291L3.12868 12.5897L12.7098 22.1708L13.7705 21.1102ZM15.4357 21.3434C14.9408 21.6674 14.2484 21.5882 13.7705 21.1102L12.7098 22.1708C13.6291 23.0902 15.0989 23.3568 16.2573 22.5984L15.4357 21.3434ZM20.2098 14.6708C20.6878 15.1488 20.767 15.8412 20.443 16.3361L21.698 17.1577C22.4564 15.9993 22.1898 14.5295 21.2705 13.6102L20.2098 14.6708ZM6 7.65039H6.0075V6.15039H6V7.65039ZM5.2575 6.90039V6.90789H6.7575V6.90039H5.2575ZM6.0075 6.15789H6V7.65789H6.0075V6.15789ZM6.75 6.90789V6.90039H5.25V6.90789H6.75Z" fill="black" fill-opacity="0.7"/>
</svg>
