<svg width="32" height="32" viewBox="0 0 32 32" fill="none" xmlns="http://www.w3.org/2000/svg">
<path d="M8.04868 25.8875L7.3032 25.9698C7.32947 26.2078 7.46776 26.4189 7.67542 26.538L8.04868 25.8875ZM23.9513 25.8875L24.3246 26.538C24.5322 26.4189 24.6705 26.2078 24.6968 25.9698L23.9513 25.8875ZM28.988 24.3217L29.2371 25.0291C29.5168 24.9306 29.7121 24.6767 29.7357 24.3812L28.988 24.3217ZM3.01372 24.3217L2.26609 24.3812C2.2896 24.6767 2.48498 24.9306 2.76459 25.0291L3.01372 24.3217ZM23.9999 24.9589L23.2499 24.9626L23.9999 24.9589ZM8.0001 24.959L8.75009 24.9628L8.0001 24.959ZM19.25 9C19.25 10.7949 17.7949 12.25 16 12.25V13.75C18.6234 13.75 20.75 11.6234 20.75 9H19.25ZM16 12.25C14.2051 12.25 12.75 10.7949 12.75 9H11.25C11.25 11.6234 13.3766 13.75 16 13.75V12.25ZM12.75 9C12.75 7.20507 14.2051 5.75 16 5.75V4.25C13.3766 4.25 11.25 6.37665 11.25 9H12.75ZM16 5.75C17.7949 5.75 19.25 7.20507 19.25 9H20.75C20.75 6.37665 18.6234 4.25 16 4.25V5.75ZM27.25 13C27.25 14.2426 26.2426 15.25 25 15.25V16.75C27.0711 16.75 28.75 15.0711 28.75 13H27.25ZM25 15.25C23.7574 15.25 22.75 14.2426 22.75 13H21.25C21.25 15.0711 22.9289 16.75 25 16.75V15.25ZM22.75 13C22.75 11.7574 23.7574 10.75 25 10.75V9.25C22.9289 9.25 21.25 10.9289 21.25 13H22.75ZM25 10.75C26.2426 10.75 27.25 11.7574 27.25 13H28.75C28.75 10.9289 27.0711 9.25 25 9.25V10.75ZM9.25 13C9.25 14.2426 8.24264 15.25 7 15.25V16.75C9.07107 16.75 10.75 15.0711 10.75 13H9.25ZM7 15.25C5.75736 15.25 4.75 14.2426 4.75 13H3.25C3.25 15.0711 4.92893 16.75 7 16.75V15.25ZM4.75 13C4.75 11.7574 5.75736 10.75 7 10.75V9.25C4.92893 9.25 3.25 10.9289 3.25 13H4.75ZM7 10.75C8.24264 10.75 9.25 11.7574 9.25 13H10.75C10.75 10.9289 9.07107 9.25 7 9.25V10.75ZM8.79415 25.8052C8.76499 25.5411 8.75 25.2724 8.75 25H7.25C7.25 25.3275 7.26803 25.6511 7.3032 25.9698L8.79415 25.8052ZM23.25 25C23.25 25.2724 23.235 25.5411 23.2058 25.8053L24.6968 25.9698C24.732 25.6511 24.75 25.3275 24.75 25H23.25ZM23.5781 25.237C21.3463 26.5176 18.7598 27.25 16 27.25V28.75C19.0286 28.75 21.8717 27.9455 24.3246 26.538L23.5781 25.237ZM16 27.25C13.2402 27.25 10.6537 26.5176 8.42194 25.237L7.67542 26.538C10.1283 27.9455 12.9714 28.75 16 28.75V27.25ZM25.0008 20.75C26.7957 20.75 28.2508 22.2051 28.2508 24H29.7508C29.7508 21.3766 27.6241 19.25 25.0008 19.25V20.75ZM28.2508 24C28.2508 24.0884 28.2472 24.1758 28.2404 24.2622L29.7357 24.3812C29.7457 24.2553 29.7508 24.1282 29.7508 24H28.2508ZM28.7389 23.6143C27.5703 24.0258 26.3125 24.25 25.0008 24.25V25.75C26.4846 25.75 27.9107 25.4962 29.2371 25.0291L28.7389 23.6143ZM3.76136 24.2622C3.75449 24.1758 3.75098 24.0884 3.75098 24H2.25098C2.25098 24.1282 2.25607 24.2553 2.26609 24.3812L3.76136 24.2622ZM3.75098 24C3.75098 22.2051 5.20605 20.75 7.00098 20.75V19.25C4.37762 19.25 2.25098 21.3766 2.25098 24H3.75098ZM7.00098 24.25C5.68922 24.25 4.43144 24.0258 3.26285 23.6143L2.76459 25.0291C4.09103 25.4962 5.51717 25.75 7.00098 25.75V24.25ZM25.0008 24.25C24.6843 24.25 24.3711 24.237 24.0616 24.2114L23.9382 25.7063C24.2887 25.7353 24.6431 25.75 25.0008 25.75V24.25ZM23.2499 24.9626C23.25 24.9745 23.25 24.9867 23.25 25H24.75C24.75 24.9858 24.75 24.9707 24.7499 24.9551L23.2499 24.9626ZM16 17.75C18.5675 17.75 20.8239 19.084 22.1131 21.1003L23.3768 20.2923C21.8236 17.8631 19.1004 16.25 16 16.25V17.75ZM22.1131 21.1003C22.8265 22.2162 23.2428 23.54 23.2499 24.9626L24.7499 24.9551C24.7413 23.2403 24.2386 21.6401 23.3768 20.2923L22.1131 21.1003ZM23.1684 21.3153C23.6898 20.9586 24.3198 20.75 25.0008 20.75V19.25C24.0081 19.25 23.0844 19.5553 22.3215 20.0773L23.1684 21.3153ZM7.00098 20.75C7.6815 20.75 8.31111 20.9583 8.83233 21.3146L9.67884 20.0763C8.91617 19.555 7.99306 19.25 7.00098 19.25V20.75ZM9.88742 21.0996C11.1767 19.0837 13.4328 17.75 16 17.75V16.25C12.8999 16.25 10.1771 17.8627 8.62376 20.2914L9.88742 21.0996ZM8.75 25C8.75 24.9876 8.75003 24.9752 8.75009 24.9628L7.25011 24.9552C7.25004 24.9701 7.25 24.9851 7.25 25H8.75ZM8.75009 24.9628C8.75723 23.5397 9.17364 22.2156 9.88742 21.0996L8.62376 20.2914C7.76158 21.6395 7.25872 23.24 7.25011 24.9552L8.75009 24.9628ZM7.93849 24.2115C7.62951 24.237 7.31684 24.25 7.00098 24.25V25.75C7.35802 25.75 7.7118 25.7353 8.06171 25.7065L7.93849 24.2115Z" fill="black"/>
</svg>
