<svg width="32" height="32" viewBox="0 0 32 32" fill="none" xmlns="http://www.w3.org/2000/svg">
<path d="M16.75 9.00008C16.75 8.58587 16.4142 8.25008 16 8.25008C15.5858 8.25008 15.25 8.58587 15.25 9.00008H16.75ZM19.25 11.0001C19.25 11.4143 19.5858 11.7501 20 11.7501C20.4142 11.7501 20.75 11.4143 20.75 11.0001H19.25ZM20.75 9.00008C20.75 8.58587 20.4142 8.25008 20 8.25008C19.5858 8.25008 19.25 8.58587 19.25 9.00008H20.75ZM11.25 11.0001C11.25 11.4143 11.5858 11.7501 12 11.7501C12.4142 11.7501 12.75 11.4143 12.75 11.0001H11.25ZM12.75 9.00008C12.75 8.58587 12.4142 8.25008 12 8.25008C11.5858 8.25008 11.25 8.58587 11.25 9.00008H12.75ZM28.3354 22.6709C28.7059 22.4857 28.8561 22.0352 28.6708 21.6647C28.4856 21.2942 28.0351 21.144 27.6646 21.3293L28.3354 22.6709ZM4.33541 21.3293C3.96493 21.144 3.51442 21.2942 3.32918 21.6647C3.14394 22.0352 3.29411 22.4857 3.66459 22.6709L4.33541 21.3293ZM6 23.0001L5.66459 23.6709L5.66459 23.6709L6 23.0001ZM24 17.4952L23.9072 18.2395L24 17.4952ZM8 17.4952L8.0928 18.2395L8 17.4952ZM6.44929 17.7079L6.56027 18.4496L6.44929 17.7079ZM25.5507 17.7079L25.4397 18.4496L25.5507 17.7079ZM10.6348 11.2218L10.5727 10.4743L10.6348 11.2218ZM21.3652 11.2218L21.3032 11.9692L21.3652 11.2218ZM16.0001 3.79297L16.5304 3.26264C16.3897 3.12198 16.199 3.04297 16.0001 3.04297C15.8012 3.04297 15.6104 3.12199 15.4697 3.26265L16.0001 3.79297ZM12.0001 3.79297L12.5304 3.26264C12.3897 3.12198 12.199 3.04297 12.0001 3.04297C11.8012 3.04297 11.6104 3.12199 11.4697 3.26265L12.0001 3.79297ZM20.0001 3.79297L20.5304 3.26264C20.3898 3.12199 20.199 3.04297 20.0001 3.04297C19.8012 3.04297 19.6104 3.12199 19.4697 3.26265L20.0001 3.79297ZM16.75 11.0001V9.00008H15.25V11.0001H16.75ZM20.75 11.0001V9.00008H19.25V11.0001H20.75ZM12.75 11.0001V9.00008H11.25V11.0001H12.75ZM26.3354 23.6709L28.3354 22.6709L27.6646 21.3293L25.6646 22.3293L26.3354 23.6709ZM3.66459 22.6709L5.66459 23.6709L6.33541 22.3293L4.33541 21.3293L3.66459 22.6709ZM5.66459 23.6709C7.13477 24.406 8.86524 24.406 10.3354 23.6709L9.66459 22.3293C8.61671 22.8532 7.38329 22.8532 6.33541 22.3293L5.66459 23.6709ZM21.6646 23.6709C23.1348 24.406 24.8652 24.406 26.3354 23.6709L25.6646 22.3293C24.6167 22.8532 23.3833 22.8532 22.3354 22.3293L21.6646 23.6709ZM18.3354 23.6709C19.3833 23.147 20.6167 23.147 21.6646 23.6709L22.3354 22.3293C20.8652 21.5942 19.1348 21.5942 17.6646 22.3293L18.3354 23.6709ZM14.3354 22.3293C12.8652 21.5942 11.1348 21.5942 9.66459 22.3293L10.3354 23.6709C11.3833 23.147 12.6167 23.147 13.6646 23.6709L14.3354 22.3293ZM13.6646 23.6709C15.1348 24.406 16.8652 24.406 18.3354 23.6709L17.6646 22.3293C16.6167 22.8532 15.3833 22.8532 14.3354 22.3293L13.6646 23.6709ZM10.6968 11.9692C12.4452 11.8241 14.2139 11.7501 16 11.7501V10.2501C14.1724 10.2501 12.3623 10.3258 10.5727 10.4743L10.6968 11.9692ZM16 11.7501C17.7861 11.7501 19.5548 11.8241 21.3032 11.9692L21.4273 10.4743C19.6377 10.3258 17.8276 10.2501 16 10.2501V11.7501ZM27.25 20.6077V27.5001H28.75V20.6077H27.25ZM26.5 28.2501H5.5V29.7501H26.5V28.2501ZM4.75 27.5001V20.6077H3.25V27.5001H4.75ZM16 17.7501C18.6782 17.7501 21.3172 17.9165 23.9072 18.2395L24.0928 16.751C21.4413 16.4204 18.7404 16.2501 16 16.2501V17.7501ZM23.9072 18.2395C24.42 18.3034 24.9308 18.3735 25.4397 18.4496L25.6617 16.9661C25.1407 16.8882 24.6177 16.8165 24.0928 16.751L23.9072 18.2395ZM23.25 14.1444V17.4952H24.75V14.1444H23.25ZM6.56027 18.4496C7.06915 18.3735 7.58002 18.3034 8.0928 18.2395L7.9072 16.751C7.38226 16.8165 6.85927 16.8882 6.3383 16.9661L6.56027 18.4496ZM8.0928 18.2395C10.6828 17.9165 13.3218 17.7501 16 17.7501V16.2501C13.2596 16.2501 10.5587 16.4204 7.9072 16.751L8.0928 18.2395ZM8.75 17.4952V14.1444H7.25V17.4952H8.75ZM4.75 20.6077C4.75 19.5195 5.51989 18.6053 6.56027 18.4496L6.3383 16.9661C4.52792 17.237 3.25 18.8133 3.25 20.6077H4.75ZM27.25 27.5001C27.25 27.9143 26.9142 28.2501 26.5 28.2501V29.7501C27.7426 29.7501 28.75 28.7427 28.75 27.5001H27.25ZM28.75 20.6077C28.75 18.8133 27.4721 17.237 25.6617 16.9661L25.4397 18.4496C26.4801 18.6053 27.25 19.5195 27.25 20.6077H28.75ZM10.5727 10.4743C8.65642 10.6334 7.25 12.2606 7.25 14.1444H8.75C8.75 13.0015 9.59689 12.0605 10.6968 11.9692L10.5727 10.4743ZM5.5 28.2501C5.08579 28.2501 4.75 27.9143 4.75 27.5001H3.25C3.25 28.7427 4.25736 29.7501 5.5 29.7501V28.2501ZM21.3032 11.9692C22.4031 12.0605 23.25 13.0015 23.25 14.1444H24.75C24.75 12.2606 23.3436 10.6334 21.4273 10.4743L21.3032 11.9692ZM15.8233 4.67686C15.7257 4.57922 15.7257 4.42093 15.8233 4.3233L16.884 5.38396C17.3721 4.89581 17.3721 4.10435 16.884 3.6162L15.8233 4.67686ZM15.8233 4.3233C15.9209 4.22567 16.0792 4.22567 16.1769 4.3233L15.1162 5.38396C15.6043 5.87212 16.3958 5.87212 16.884 5.38396L15.8233 4.3233ZM16.1769 4.3233C16.2745 4.42093 16.2745 4.57922 16.1769 4.67686L15.1162 3.6162C14.628 4.10435 14.628 4.89581 15.1162 5.38396L16.1769 4.3233ZM16.1769 4.67686C16.2272 4.62649 16.3156 4.53809 16.3914 4.4623C16.4293 4.4244 16.4641 4.38965 16.4893 4.36437C16.502 4.35173 16.5122 4.34146 16.5193 4.33435C16.5229 4.3308 16.5257 4.32803 16.5275 4.32615C16.5285 4.32522 16.5292 4.3245 16.5297 4.32402C16.5299 4.32378 16.5301 4.3236 16.5302 4.32347C16.5303 4.32341 16.5303 4.32337 16.5304 4.32334C16.5304 4.32332 16.5304 4.32331 16.5304 4.3233C16.5304 4.3233 16.5304 4.3233 16.5304 4.32329C16.5304 4.32329 16.5304 4.32329 16.0001 3.79297C15.4697 3.26265 15.4697 3.26265 15.4697 3.26265C15.4697 3.26265 15.4697 3.26265 15.4697 3.26266C15.4697 3.26267 15.4697 3.26268 15.4697 3.26269C15.4697 3.26272 15.4696 3.26277 15.4695 3.26283C15.4694 3.26295 15.4692 3.26313 15.469 3.26338C15.4685 3.26386 15.4678 3.26457 15.4669 3.26551C15.465 3.26739 15.4622 3.27015 15.4587 3.27371C15.4516 3.28082 15.4413 3.29109 15.4287 3.30372C15.4034 3.329 15.3686 3.36375 15.3307 3.40165C15.2549 3.47745 15.1666 3.56583 15.1162 3.6162L16.1769 4.67686ZM16.0001 3.79297C15.4697 4.3233 15.4697 4.3233 15.4697 4.3233C15.4697 4.3233 15.4697 4.32331 15.4698 4.32331C15.4698 4.32332 15.4698 4.32333 15.4698 4.32335C15.4698 4.32338 15.4699 4.32343 15.4699 4.32349C15.4701 4.32361 15.4702 4.3238 15.4705 4.32405C15.471 4.32454 15.4717 4.32527 15.4727 4.32623C15.4746 4.32815 15.4774 4.33098 15.4811 4.33461C15.4883 4.34188 15.4988 4.35237 15.5117 4.36525C15.5375 4.39101 15.5728 4.42634 15.6111 4.46463C15.6876 4.5412 15.776 4.62959 15.8233 4.67686L16.884 3.6162C16.8367 3.56893 16.7483 3.48054 16.6717 3.40397C16.6334 3.36568 16.5981 3.33035 16.5724 3.30459C16.5595 3.29171 16.549 3.28122 16.5417 3.27395C16.5381 3.27032 16.5353 3.26749 16.5333 3.26557C16.5324 3.26461 16.5316 3.26388 16.5311 3.26338C16.5309 3.26314 16.5307 3.26295 16.5306 3.26283C16.5305 3.26276 16.5305 3.26272 16.5304 3.26269C16.5304 3.26267 16.5304 3.26266 16.5304 3.26265C16.5304 3.26265 16.5304 3.26264 16.5304 3.26264C16.5304 3.26264 16.5304 3.26264 16.0001 3.79297ZM11.8233 4.67686C11.7257 4.57922 11.7257 4.42093 11.8233 4.3233L12.884 5.38396C13.3721 4.89581 13.3721 4.10435 12.884 3.6162L11.8233 4.67686ZM11.8233 4.3233C11.9209 4.22567 12.0792 4.22567 12.1769 4.3233L11.1162 5.38396C11.6043 5.87212 12.3958 5.87212 12.884 5.38396L11.8233 4.3233ZM12.1769 4.3233C12.2745 4.42093 12.2745 4.57922 12.1769 4.67686L11.1162 3.6162C10.628 4.10435 10.628 4.89581 11.1162 5.38396L12.1769 4.3233ZM12.1769 4.67686C12.2272 4.62649 12.3156 4.53809 12.3914 4.4623C12.4293 4.4244 12.4641 4.38965 12.4893 4.36437C12.502 4.35173 12.5122 4.34146 12.5193 4.33435C12.5229 4.3308 12.5257 4.32803 12.5275 4.32615C12.5285 4.32522 12.5292 4.3245 12.5297 4.32402C12.5299 4.32378 12.5301 4.3236 12.5302 4.32347C12.5303 4.32341 12.5303 4.32337 12.5304 4.32334C12.5304 4.32332 12.5304 4.32331 12.5304 4.3233C12.5304 4.3233 12.5304 4.3233 12.5304 4.32329C12.5304 4.32329 12.5304 4.32329 12.0001 3.79297C11.4697 3.26265 11.4697 3.26265 11.4697 3.26265C11.4697 3.26265 11.4697 3.26265 11.4697 3.26266C11.4697 3.26267 11.4697 3.26268 11.4697 3.26269C11.4697 3.26272 11.4696 3.26277 11.4695 3.26283C11.4694 3.26295 11.4692 3.26313 11.469 3.26337C11.4685 3.26386 11.4678 3.26457 11.4669 3.26551C11.465 3.26739 11.4622 3.27015 11.4587 3.27371C11.4516 3.28082 11.4413 3.29109 11.4287 3.30372C11.4034 3.329 11.3686 3.36375 11.3307 3.40165C11.2549 3.47745 11.1666 3.56583 11.1162 3.6162L12.1769 4.67686ZM12.0001 3.79297C11.4697 4.3233 11.4697 4.3233 11.4697 4.3233C11.4697 4.3233 11.4697 4.32331 11.4698 4.32331C11.4698 4.32332 11.4698 4.32333 11.4698 4.32335C11.4698 4.32338 11.4699 4.32343 11.4699 4.32349C11.4701 4.32361 11.4702 4.3238 11.4705 4.32405C11.471 4.32454 11.4717 4.32527 11.4727 4.32623C11.4746 4.32815 11.4774 4.33098 11.4811 4.33461C11.4883 4.34188 11.4988 4.35237 11.5117 4.36525C11.5375 4.39101 11.5728 4.42634 11.6111 4.46463C11.6876 4.5412 11.776 4.62959 11.8233 4.67686L12.884 3.6162C12.8367 3.56893 12.7483 3.48054 12.6717 3.40397C12.6334 3.36568 12.5981 3.33035 12.5724 3.30459C12.5595 3.29171 12.549 3.28122 12.5417 3.27395C12.5381 3.27032 12.5353 3.26749 12.5333 3.26557C12.5324 3.26461 12.5316 3.26388 12.5311 3.26338C12.5309 3.26314 12.5307 3.26295 12.5306 3.26283C12.5305 3.26276 12.5305 3.26272 12.5304 3.26269C12.5304 3.26267 12.5304 3.26266 12.5304 3.26265C12.5304 3.26265 12.5304 3.26264 12.5304 3.26264C12.5304 3.26264 12.5304 3.26264 12.0001 3.79297ZM19.8233 4.67686C19.7257 4.57922 19.7257 4.42093 19.8233 4.3233L20.884 5.38396C21.3721 4.89581 21.3721 4.10435 20.884 3.6162L19.8233 4.67686ZM19.8233 4.3233C19.9209 4.22567 20.0792 4.22567 20.1769 4.3233L19.1162 5.38396C19.6043 5.87212 20.3958 5.87212 20.884 5.38396L19.8233 4.3233ZM20.1769 4.3233C20.2745 4.42093 20.2745 4.57922 20.1769 4.67686L19.1162 3.6162C18.628 4.10435 18.628 4.89581 19.1162 5.38396L20.1769 4.3233ZM20.1769 4.67686C20.2272 4.62649 20.3156 4.53809 20.3914 4.4623C20.4293 4.4244 20.4641 4.38965 20.4893 4.36437C20.502 4.35173 20.5122 4.34146 20.5193 4.33435C20.5229 4.3308 20.5257 4.32803 20.5275 4.32616C20.5285 4.32522 20.5292 4.3245 20.5297 4.32402C20.5299 4.32378 20.5301 4.3236 20.5302 4.32348C20.5303 4.32341 20.5303 4.32337 20.5304 4.32334C20.5304 4.32332 20.5304 4.32331 20.5304 4.3233C20.5304 4.3233 20.5304 4.3233 20.5304 4.32329C20.5304 4.32329 20.5304 4.32329 20.0001 3.79297C19.4697 3.26265 19.4697 3.26265 19.4697 3.26265C19.4697 3.26265 19.4697 3.26265 19.4697 3.26266C19.4697 3.26266 19.4697 3.26268 19.4697 3.26269C19.4697 3.26272 19.4696 3.26277 19.4696 3.26283C19.4694 3.26295 19.4692 3.26313 19.469 3.26337C19.4685 3.26386 19.4678 3.26457 19.4669 3.26551C19.465 3.26739 19.4622 3.27015 19.4587 3.27371C19.4516 3.28082 19.4413 3.29109 19.4287 3.30372C19.4034 3.329 19.3686 3.36375 19.3307 3.40165C19.2549 3.47745 19.1666 3.56583 19.1162 3.6162L20.1769 4.67686ZM20.0001 3.79297C19.4697 4.3233 19.4697 4.3233 19.4697 4.3233C19.4697 4.3233 19.4697 4.32331 19.4698 4.32331C19.4698 4.32332 19.4698 4.32333 19.4698 4.32334C19.4698 4.32338 19.4699 4.32342 19.4699 4.32349C19.4701 4.32361 19.4702 4.3238 19.4705 4.32404C19.471 4.32454 19.4717 4.32527 19.4727 4.32623C19.4746 4.32815 19.4774 4.33098 19.4811 4.33461C19.4883 4.34188 19.4988 4.35237 19.5117 4.36525C19.5375 4.39101 19.5728 4.42634 19.6111 4.46463C19.6876 4.5412 19.776 4.62959 19.8233 4.67686L20.884 3.6162C20.8367 3.56893 20.7483 3.48054 20.6717 3.40397C20.6334 3.36568 20.5981 3.33035 20.5724 3.30459C20.5595 3.29171 20.549 3.28122 20.5417 3.27395C20.5381 3.27032 20.5353 3.26749 20.5333 3.26557C20.5324 3.26461 20.5316 3.26388 20.5311 3.26339C20.5309 3.26314 20.5307 3.26295 20.5306 3.26283C20.5305 3.26277 20.5305 3.26272 20.5305 3.26269C20.5304 3.26267 20.5304 3.26266 20.5304 3.26265C20.5304 3.26265 20.5304 3.26265 20.5304 3.26264C20.5304 3.26264 20.5304 3.26264 20.0001 3.79297Z" fill="black"/>
</svg>
