<svg width="24" height="25" viewBox="0 0 24 25" fill="none" xmlns="http://www.w3.org/2000/svg">
<path fill-rule="evenodd" clip-rule="evenodd" d="M6.8999 3.11719C7.39696 3.11719 7.7999 3.52013 7.7999 4.01719V5.51719H16.1999V4.01719C16.1999 3.52013 16.6028 3.11719 17.0999 3.11719C17.597 3.11719 17.9999 3.52013 17.9999 4.01719V5.51719H18.2999C20.1224 5.51719 21.5999 6.99465 21.5999 8.81719V19.0172C21.5999 20.8397 20.1224 22.3172 18.2999 22.3172H5.6999C3.87736 22.3172 2.3999 20.8397 2.3999 19.0172V8.81719C2.3999 6.99465 3.87736 5.51719 5.6999 5.51719H5.9999V4.01719C5.9999 3.52013 6.40285 3.11719 6.8999 3.11719ZM5.6999 9.71719C4.87148 9.71719 4.1999 10.3888 4.1999 11.2172V19.0172C4.1999 19.8456 4.87148 20.5172 5.6999 20.5172H18.2999C19.1283 20.5172 19.7999 19.8456 19.7999 19.0172V11.2172C19.7999 10.3888 19.1283 9.71719 18.2999 9.71719H5.6999Z" fill="white"/>
</svg>
