<svg width="24" height="25" viewBox="0 0 24 25" fill="none" xmlns="http://www.w3.org/2000/svg">
<path d="M12.75 6.7168C12.75 6.30258 12.4142 5.9668 12 5.9668C11.5858 5.9668 11.25 6.30258 11.25 6.7168H12.75ZM12 12.7168H11.25C11.25 13.131 11.5858 13.4668 12 13.4668V12.7168ZM16.5 13.4668C16.9142 13.4668 17.25 13.131 17.25 12.7168C17.25 12.3026 16.9142 11.9668 16.5 11.9668V13.4668ZM20.25 12.7168C20.25 17.2731 16.5563 20.9668 12 20.9668V22.4668C17.3848 22.4668 21.75 18.1016 21.75 12.7168H20.25ZM12 20.9668C7.44365 20.9668 3.75 17.2731 3.75 12.7168H2.25C2.25 18.1016 6.61522 22.4668 12 22.4668V20.9668ZM3.75 12.7168C3.75 8.16045 7.44365 4.4668 12 4.4668V2.9668C6.61522 2.9668 2.25 7.33202 2.25 12.7168H3.75ZM12 4.4668C16.5563 4.4668 20.25 8.16045 20.25 12.7168H21.75C21.75 7.33202 17.3848 2.9668 12 2.9668V4.4668ZM11.25 6.7168V12.7168H12.75V6.7168H11.25ZM16.5 11.9668H12V13.4668H16.5V11.9668Z" fill="white"/>
</svg>
