<svg width="32" height="32" viewBox="0 0 32 32" fill="none" xmlns="http://www.w3.org/2000/svg">
<path d="M8.57853 9.47116L7.83873 9.59446L7.83873 9.59446L8.57853 9.47116ZM10.8128 13.8128L11.3432 13.2825L11.3432 13.2825L10.8128 13.8128ZM13 16L13.6708 16.3354C13.8152 16.0467 13.7586 15.6979 13.5303 15.4697L13 16ZM12.4835 17.033L11.8127 16.6976L11.8127 16.6976L12.4835 17.033ZM12.7645 18.7645L13.2948 18.2342L13.2948 18.2342L12.7645 18.7645ZM14.5607 20.5607L14.0303 21.091L14.0303 21.091L14.5607 20.5607ZM15.8292 24.4146L16.1646 23.7438L16.1646 23.7438L15.8292 24.4146ZM16.033 24.5165L15.6976 25.1873L15.6976 25.1873L16.033 24.5165ZM17.7645 24.2355L17.2342 23.7052L17.2341 23.7052L17.7645 24.2355ZM18.7281 23.2719L18.1977 22.7416L18.1977 22.7416L18.7281 23.2719ZM21.3008 16.4174L20.8207 16.9935L20.8207 16.9935L21.3008 16.4174ZM19.5284 14.9403L19.0483 15.5165L19.0483 15.5165L19.5284 14.9403ZM18.3215 14.6131L18.1982 13.8733L18.1982 13.8733L18.3215 14.6131ZM16.7614 14.8731L16.8847 15.6129L16.8847 15.6129L16.7614 14.8731ZM15.4542 14.4542L14.9238 14.9845L14.9238 14.9845L15.4542 14.4542ZM15.0607 14.0607L15.591 13.5303L15.591 13.5303L15.0607 14.0607ZM15.0607 11.9393L15.591 12.4697L15.591 12.4697L15.0607 11.9393ZM15.2355 11.7645L14.7052 11.2342L14.7052 11.2342L15.2355 11.7645ZM19.2195 10.4389L18.5486 10.7743L18.5486 10.7743L19.2195 10.4389ZM19 10L18.584 9.37596C18.2693 9.58577 18.16 9.9971 18.3292 10.3354L19 10ZM20.6742 8.88385L21.0902 9.50789L21.0902 9.50789L20.6742 8.88385ZM22.7126 6.57483L23.3834 6.91024L23.3834 6.91024L22.7126 6.57483ZM21.7793 17.8829L22.5069 18.0648L22.5069 18.0648L21.7793 17.8829ZM8.15343 6.92057L7.66278 6.35333L8.15343 6.92057ZM22.9071 6.1859L23.3392 5.57294L23.3392 5.57294L22.9071 6.1859ZM27.25 16C27.25 22.2132 22.2132 27.25 16 27.25V28.75C23.0416 28.75 28.75 23.0416 28.75 16H27.25ZM16 27.25C9.7868 27.25 4.75 22.2132 4.75 16H3.25C3.25 23.0416 8.95837 28.75 16 28.75V27.25ZM10.2825 14.3432L12.4697 16.5303L13.5303 15.4697L11.3432 13.2825L10.2825 14.3432ZM12.3292 15.6646L11.8127 16.6976L13.1543 17.3684L13.6708 16.3354L12.3292 15.6646ZM12.2342 19.2948L14.0303 21.091L15.091 20.0303L13.2948 18.2342L12.2342 19.2948ZM14.25 21.6213V23.0729H15.75V21.6213H14.25ZM15.4938 25.0854L15.6976 25.1873L16.3684 23.8457L16.1646 23.7438L15.4938 25.0854ZM18.2948 24.7658L19.2584 23.8023L18.1977 22.7416L17.2342 23.7052L18.2948 24.7658ZM21.781 15.8412L20.0085 14.3642L19.0483 15.5165L20.8207 16.9935L21.781 15.8412ZM18.1982 13.8733L16.6381 14.1333L16.8847 15.6129L18.4448 15.3529L18.1982 13.8733ZM15.9845 13.9238L15.591 13.5303L14.5303 14.591L14.9238 14.9845L15.9845 13.9238ZM15.591 12.4697L15.7659 12.2948L14.7052 11.2342L14.5303 11.409L15.591 12.4697ZM16.6316 12.1543L17.4368 12.5569L18.1076 11.2153L17.3024 10.8127L16.6316 12.1543ZM19.8903 10.1035L19.6708 9.66459L18.3292 10.3354L18.5486 10.7743L19.8903 10.1035ZM19.416 10.624L21.0902 9.50789L20.2582 8.25981L18.584 9.37596L19.416 10.624ZM21.0902 9.50789C22.0676 8.85629 22.8581 7.96091 23.3834 6.91024L22.0418 6.23942C21.6332 7.05661 21.0184 7.75302 20.2582 8.25981L21.0902 9.50789ZM18.2546 12.75C19.6141 12.75 20.4982 11.3194 19.8903 10.1035L18.5486 10.7743C18.6579 10.9929 18.499 11.25 18.2546 11.25V12.75ZM17.4368 12.5569C17.6908 12.6839 17.9707 12.75 18.2546 12.75V11.25C18.2036 11.25 18.1533 11.2381 18.1076 11.2153L17.4368 12.5569ZM15.7658 12.2948C15.9941 12.0665 16.3428 12.0099 16.6316 12.1543L17.3024 10.8127C16.4362 10.3796 15.39 10.5493 14.7052 11.2342L15.7658 12.2948ZM16.6381 14.1333C16.3992 14.1731 16.1558 14.0951 15.9845 13.9238L14.9238 14.9845C15.4376 15.4983 16.168 15.7323 16.8847 15.6129L16.6381 14.1333ZM20.0085 14.3642C19.5053 13.9448 18.8444 13.7656 18.1982 13.8733L18.4448 15.3529C18.6602 15.317 18.8805 15.3767 19.0483 15.5165L20.0085 14.3642ZM22.5069 18.0648C22.7116 17.2457 22.4296 16.3817 21.781 15.8412L20.8207 16.9935C21.0271 17.1655 21.1168 17.4404 21.0517 17.701L22.5069 18.0648ZM19.2584 23.8023C20.8412 22.2195 21.964 20.2364 22.5069 18.0648L21.0517 17.701C20.5747 19.6088 19.5883 21.3511 18.1977 22.7416L19.2584 23.8023ZM15.6976 25.1873C16.5638 25.6204 17.61 25.4507 18.2948 24.7658L17.2341 23.7052C17.0059 23.9335 16.6572 23.9901 16.3684 23.8457L15.6976 25.1873ZM14.0303 21.091C14.171 21.2316 14.25 21.4224 14.25 21.6213H15.75C15.75 21.0246 15.5129 20.4523 15.091 20.0303L14.0303 21.091ZM11.8127 16.6976C11.3796 17.5638 11.5493 18.61 12.2342 19.2948L13.2948 18.2342C13.0665 18.0059 13.0099 17.6572 13.1543 17.3684L11.8127 16.6976ZM14.25 23.0729C14.25 23.9252 14.7315 24.7043 15.4938 25.0854L16.1646 23.7438C15.9105 23.6167 15.75 23.357 15.75 23.0729H14.25ZM15.591 13.5303C15.2981 13.2374 15.2981 12.7626 15.591 12.4697L14.5303 11.409C13.6517 12.2877 13.6516 13.7123 14.5303 14.591L15.591 13.5303ZM7.83873 9.59446C8.13855 11.3933 8.99294 13.0536 10.2825 14.3432L11.3432 13.2825C10.2747 12.214 9.56674 10.8384 9.31832 9.34786L7.83873 9.59446ZM9.31832 9.34786L8.89322 6.79727L7.41363 7.04387L7.83873 9.59446L9.31832 9.34786ZM4.75 16C4.75 12.5994 6.25788 9.55182 8.64408 7.48781L7.66278 6.35333C4.96121 8.69013 3.25 12.1457 3.25 16H4.75ZM8.64408 7.48781C10.6168 5.78147 13.187 4.75 16 4.75V3.25C12.8131 3.25 9.89768 4.42019 7.66278 6.35333L8.64408 7.48781ZM23.3834 6.91024L23.5779 6.5213L22.2362 5.85049L22.0418 6.23942L23.3834 6.91024ZM16 4.75C18.4117 4.75 20.6441 5.50802 22.4749 6.79885L23.3392 5.57294C21.2638 4.10959 18.7312 3.25 16 3.25V4.75ZM22.4749 6.79885C25.3648 8.8365 27.25 12.1981 27.25 16H28.75C28.75 11.6899 26.6106 7.87954 23.3392 5.57294L22.4749 6.79885Z" fill="black"/>
</svg>
