<svg width="24" height="25" viewBox="0 0 24 25" fill="none" xmlns="http://www.w3.org/2000/svg">
<path d="M8.49688 18.9684L8.83229 19.6392L8.49688 18.9684ZM14.4969 6.46526L14.8323 5.79444L14.4969 6.46526ZM15.5031 6.46526L15.8385 7.13608L15.5031 6.46526ZM8.49688 3.96838L8.16147 3.29756L8.49688 3.96838ZM9.50312 3.96838L9.16771 4.6392L9.50312 3.96838ZM4.62811 20.9028L4.2927 20.2319H4.2927L4.62811 20.9028ZM19.3719 4.53088L19.0365 3.86006L19.3719 4.53088ZM3.62188 6.40588L3.95729 7.0767L3.62188 6.40588ZM9.75 7.46682C9.75 7.05261 9.41421 6.71682 9 6.71682C8.58579 6.71682 8.25 7.05261 8.25 7.46682H9.75ZM8.25 15.7168C8.25 16.131 8.58579 16.4668 9 16.4668C9.41421 16.4668 9.75 16.131 9.75 15.7168H8.25ZM15.75 9.71682C15.75 9.30261 15.4142 8.96682 15 8.96682C14.5858 8.96682 14.25 9.30261 14.25 9.71682H15.75ZM14.25 17.9668C14.25 18.381 14.5858 18.7168 15 18.7168C15.4142 18.7168 15.75 18.381 15.75 17.9668H14.25ZM20.25 5.53711V18.0215H21.75V5.53711H20.25ZM3.75 19.8965V7.41211H2.25V19.8965H3.75ZM3.95729 7.0767L8.83229 4.6392L8.16147 3.29756L3.28647 5.73506L3.95729 7.0767ZM9.16771 4.6392L14.1615 7.13608L14.8323 5.79444L9.83853 3.29756L9.16771 4.6392ZM15.8385 7.13608L19.7073 5.2017L19.0365 3.86006L15.1677 5.79444L15.8385 7.13608ZM8.16147 18.2976L4.2927 20.2319L4.96352 21.5736L8.83229 19.6392L8.16147 18.2976ZM20.0427 18.3569L15.1677 20.7944L15.8385 22.1361L20.7135 19.6986L20.0427 18.3569ZM14.8323 20.7944L9.83853 18.2976L9.16771 19.6392L14.1615 22.1361L14.8323 20.7944ZM15.1677 20.7944C15.0621 20.8472 14.9379 20.8472 14.8323 20.7944L14.1615 22.1361C14.6893 22.4 15.3107 22.4 15.8385 22.1361L15.1677 20.7944ZM8.83229 19.6392C8.93787 19.5864 9.06213 19.5864 9.16771 19.6392L9.83853 18.2976C9.31066 18.0336 8.68934 18.0336 8.16147 18.2976L8.83229 19.6392ZM14.1615 7.13608C14.6893 7.40002 15.3107 7.40002 15.8385 7.13608L15.1677 5.79444C15.0621 5.84723 14.9379 5.84723 14.8323 5.79444L14.1615 7.13608ZM8.83229 4.6392C8.93787 4.58641 9.06213 4.58641 9.16771 4.6392L9.83853 3.29756C9.31066 3.03363 8.68934 3.03363 8.16147 3.29756L8.83229 4.6392ZM2.25 19.8965C2.25 21.2904 3.71684 22.1969 4.96353 21.5736L4.2927 20.2319C4.04337 20.3566 3.75 20.1753 3.75 19.8965H2.25ZM20.25 18.0215C20.25 18.1636 20.1697 18.2934 20.0427 18.3569L20.7135 19.6986C21.3487 19.381 21.75 18.7317 21.75 18.0215H20.25ZM21.75 5.53711C21.75 4.14327 20.2832 3.23671 19.0365 3.86006L19.7073 5.2017C19.9566 5.07703 20.25 5.25834 20.25 5.53711H21.75ZM3.75 7.41211C3.75 7.27007 3.83025 7.14022 3.95729 7.0767L3.28647 5.73506C2.65125 6.05267 2.25 6.70191 2.25 7.41211H3.75ZM8.25 7.46682V15.7168H9.75V7.46682H8.25ZM14.25 9.71682V17.9668H15.75V9.71682H14.25Z" fill="black" fill-opacity="0.7"/>
</svg>
