<svg width="32" height="32" viewBox="0 0 32 32" fill="none" xmlns="http://www.w3.org/2000/svg">
<path d="M19 8.11592C19 7.64238 19.2481 7.21435 19.5349 6.8376C19.8295 6.4508 20 5.992 20 5.5C20 4.11929 18.6569 3 17 3C15.3431 3 14 4.11929 14 5.5C14 5.992 14.1705 6.4508 14.4651 6.8376C14.7519 7.21435 15 7.64238 15 8.11592V8.11592C15 8.59762 14.6055 8.98662 14.124 8.97275C12.2525 8.91885 10.4011 8.7846 8.57319 8.57333C8.82168 10.7237 8.96358 12.9065 8.99349 15.1164C9.00009 15.6043 8.6039 15.9999 8.11592 16V16C7.64238 16 7.21435 15.7519 6.8376 15.4651C6.4508 15.1705 5.992 15 5.5 15C4.11929 15 3 16.3431 3 18C3 19.6569 4.11929 21 5.5 21C5.992 21 6.4508 20.8295 6.8376 20.5349C7.21435 20.2481 7.64238 20 8.11592 20V20C8.52817 20 8.85542 20.3477 8.8252 20.7588C8.65741 23.0415 8.3699 25.2909 7.9689 27.5008C9.99277 27.7542 12.046 27.9131 14.1241 27.973C14.6057 27.9868 15.0002 27.5978 15.0002 27.116V27.116C15.0002 26.6424 14.7521 26.2144 14.4652 25.8377C14.1707 25.4509 14.0002 24.9921 14.0002 24.5001C14.0002 23.1194 15.3433 22.0001 17.0002 22.0001C18.657 22.0001 20.0002 23.1194 20.0002 24.5001C20.0002 24.9921 19.8296 25.4509 19.5351 25.8377C19.2482 26.2144 19.0002 26.6424 19.0002 27.116V27.116C19.0002 27.5598 19.3709 27.9142 19.8139 27.8882C22.2657 27.7441 24.6803 27.462 27.0501 27.0496C27.4094 24.9853 27.6698 22.887 27.8262 20.7598C27.8564 20.3482 27.5288 20.0001 27.1161 20.0001V20.0001C26.6425 20.0001 26.2145 20.2481 25.8378 20.535C25.451 20.8295 24.9922 21.0001 24.5002 21.0001C23.1194 21.0001 22.0002 19.6569 22.0002 18.0001C22.0002 16.3432 23.1194 15.0001 24.5002 15.0001C24.9922 15.0001 25.451 15.1706 25.8378 15.4651C26.2145 15.752 26.6425 16.0001 27.1161 16.0001V16.0001C27.6045 16.0001 28.0011 15.6041 27.9945 15.1157C27.9618 12.6988 27.7951 10.3143 27.5015 7.9693C24.987 8.42554 22.4213 8.73487 19.8137 8.88807C19.3707 8.9141 19 8.55972 19 8.11592V8.11592Z" stroke="black" stroke-width="1.5" stroke-linecap="round" stroke-linejoin="round"/>
</svg>
