<svg width="32" height="32" viewBox="0 0 32 32" fill="none" xmlns="http://www.w3.org/2000/svg">
<path d="M12.5848 22.6801L12.1189 23.2678C12.2878 23.4018 12.5062 23.4565 12.7184 23.4181L12.5848 22.6801ZM9.32106 19.4164L8.58304 19.2828C8.54466 19.495 8.59943 19.7134 8.73338 19.8823L9.32106 19.4164ZM29 3H29.75C29.75 2.80108 29.671 2.61031 29.5303 2.46966C29.3897 2.32901 29.1989 2.24999 29 2.25L29 3ZM13 29H12.25C12.25 29.4142 12.5858 29.75 13 29.75V29ZM3 19H2.25C2.25 19.4142 2.58579 19.75 3 19.75V19ZM20.7873 19.1595L20.3448 18.5539L20.3448 18.5539L20.7873 19.1595ZM12.8416 11.213L13.4472 11.6555L13.4472 11.6555L12.8416 11.213ZM9.40097 19L10.136 19.1492L9.40097 19ZM4.07142 27.9286L3.33031 28.0437C3.38044 28.3664 3.6336 28.6196 3.95628 28.6697L4.07142 27.9286ZM6.86433 22.7888C7.19634 22.5411 7.26471 22.0712 7.01703 21.7392C6.76936 21.4072 6.29943 21.3388 5.96742 21.5865L6.86433 22.7888ZM10.4135 26.0326C10.6612 25.7006 10.5928 25.2306 10.2608 24.983C9.92877 24.7353 9.45885 24.8037 9.21117 25.1357L10.4135 26.0326ZM21.25 12C21.25 12.6904 20.6904 13.25 20 13.25V14.75C21.5188 14.75 22.75 13.5188 22.75 12H21.25ZM20 13.25C19.3096 13.25 18.75 12.6904 18.75 12H17.25C17.25 13.5188 18.4812 14.75 20 14.75V13.25ZM18.75 12C18.75 11.3096 19.3096 10.75 20 10.75V9.25C18.4812 9.25 17.25 10.4812 17.25 12H18.75ZM20 10.75C20.6904 10.75 21.25 11.3096 21.25 12H22.75C22.75 10.4812 21.5188 9.25 20 9.25V10.75ZM13.0508 22.0924C11.8867 21.1694 10.8318 20.1145 9.90873 18.9504L8.73338 19.8823C9.72796 21.1367 10.8645 22.2732 12.1189 23.2678L13.0508 22.0924ZM20.25 21C20.25 25.0041 17.0041 28.25 13 28.25V29.75C17.8325 29.75 21.75 25.8325 21.75 21H20.25ZM3.75 19C3.75 14.9959 6.99594 11.75 11 11.75V10.25C6.16751 10.25 2.25 14.1675 2.25 19H3.75ZM20.0572 19.3314C20.1832 19.8664 20.25 20.4249 20.25 21H21.75C21.75 20.3083 21.6696 19.6344 21.5173 18.9876L20.0572 19.3314ZM21.2298 19.765C26.3933 15.9919 29.75 9.88779 29.75 3H28.25C28.25 9.38884 25.1384 15.0511 20.3448 18.5539L21.2298 19.765ZM11 11.75C11.5755 11.75 12.1343 11.8169 12.6696 11.943L13.0136 10.483C12.3664 10.3305 11.6921 10.25 11 10.25V11.75ZM29 2.25C22.1125 2.25029 16.0089 5.60706 12.2361 10.7705L13.4472 11.6555C16.9497 6.8619 22.6115 3.75027 29.0001 3.75L29 2.25ZM12.7184 23.4181C12.8625 23.3921 13.0061 23.3645 13.1492 23.3354L12.8508 21.8654C12.7181 21.8924 12.5849 21.9179 12.4513 21.9421L12.7184 23.4181ZM13.1492 23.3354C16.1235 22.7317 18.8665 21.4919 21.2298 19.765L20.3448 18.5539C18.1519 20.1563 15.6082 21.3057 12.8508 21.8654L13.1492 23.3354ZM13.75 29V22.6004H12.25V29H13.75ZM12.2361 10.7705C10.5093 13.1337 9.26969 15.8766 8.66596 18.8508L10.136 19.1492C10.6957 16.3919 11.8449 13.8483 13.4472 11.6555L12.2361 10.7705ZM8.66596 18.8508C8.63683 18.9943 8.60918 19.1383 8.58304 19.2828L10.0591 19.5499C10.0833 19.4158 10.109 19.2823 10.136 19.1492L8.66596 18.8508ZM3 19.75H9.40097V18.25H3V19.75ZM4.81253 27.8134C4.77141 27.5488 4.75 27.2771 4.75 27H3.25C3.25 27.3545 3.27739 27.7031 3.33031 28.0437L4.81253 27.8134ZM5 27.25C4.72287 27.25 4.45124 27.2286 4.18656 27.1875L3.95628 28.6697C4.29688 28.7226 4.64549 28.75 5 28.75V27.25ZM4.75 27C4.75 25.2767 5.57956 23.7473 6.86433 22.7888L5.96742 21.5865C4.31947 22.8159 3.25 24.7831 3.25 27H4.75ZM9.21117 25.1357C8.25274 26.4204 6.72334 27.25 5 27.25V28.75C7.21686 28.75 9.18413 27.6805 10.4135 26.0326L9.21117 25.1357Z" fill="black"/>
</svg>
