<svg width="32" height="32" viewBox="0 0 32 32" fill="none" xmlns="http://www.w3.org/2000/svg">
<path d="M12.75 6C12.75 5.58579 12.4142 5.25 12 5.25C11.5858 5.25 11.25 5.58579 11.25 6H12.75ZM11.25 26C11.25 26.4142 11.5858 26.75 12 26.75C12.4142 26.75 12.75 26.4142 12.75 26H11.25ZM20.75 6C20.75 5.58579 20.4142 5.25 20 5.25C19.5858 5.25 19.25 5.58579 19.25 6H20.75ZM19.25 26C19.25 26.4142 19.5858 26.75 20 26.75C20.4142 26.75 20.75 26.4142 20.75 26H19.25ZM5.5 6.75H26.5V5.25H5.5V6.75ZM27.25 7.5V24.5H28.75V7.5H27.25ZM26.5 25.25H5.5V26.75H26.5V25.25ZM4.75 24.5V7.5H3.25V24.5H4.75ZM5.5 25.25C5.08579 25.25 4.75 24.9142 4.75 24.5H3.25C3.25 25.7426 4.25736 26.75 5.5 26.75V25.25ZM27.25 24.5C27.25 24.9142 26.9142 25.25 26.5 25.25V26.75C27.7426 26.75 28.75 25.7426 28.75 24.5H27.25ZM26.5 6.75C26.9142 6.75 27.25 7.08579 27.25 7.5H28.75C28.75 6.25736 27.7426 5.25 26.5 5.25V6.75ZM5.5 5.25C4.25736 5.25 3.25 6.25736 3.25 7.5H4.75C4.75 7.08579 5.08579 6.75 5.5 6.75V5.25ZM11.25 6V26H12.75V6H11.25ZM19.25 6V26H20.75V6H19.25Z" fill="black"/>
</svg>
