<svg width="18" height="18" viewBox="0 0 18 18" fill="none" xmlns="http://www.w3.org/2000/svg">
<g id="Frame">
<path id="Vector" d="M12.7933 11.6407C13.1442 11.4012 13.5557 11.2658 13.9802 11.2503C14.4048 11.2349 14.8251 11.3399 15.1924 11.5533C15.5598 11.7667 15.8592 12.0798 16.0561 12.4563C16.2529 12.8328 16.3392 13.2573 16.3048 13.6807C15.405 13.9953 14.4492 14.1176 13.4991 14.04C13.4962 13.19 13.2514 12.3576 12.7933 11.6415C12.3868 11.0038 11.8259 10.479 11.1627 10.1156C10.4995 9.75223 9.75532 9.56199 8.99907 9.5625C8.24295 9.56211 7.49894 9.75242 6.83587 10.1158C6.1728 10.4792 5.61208 11.0039 5.20557 11.6415M13.4983 14.0392L13.4991 14.0625C13.4991 14.2312 13.4901 14.3977 13.4713 14.562C12.1103 15.3428 10.5681 15.7525 8.99907 15.75C7.37157 15.75 5.84382 15.318 4.52682 14.562C4.50754 14.3884 4.49828 14.2139 4.49907 14.0392M4.49907 14.0392C3.5493 14.1197 2.594 13.9978 1.69482 13.6815C1.66059 13.2582 1.74687 12.8338 1.94369 12.4574C2.14052 12.0811 2.43985 11.7681 2.80707 11.5547C3.1743 11.3413 3.59442 11.2362 4.01886 11.2516C4.4433 11.267 4.85473 11.4021 5.20557 11.6415M4.49907 14.0392C4.50177 13.1893 4.74779 12.3577 5.20557 11.6415M11.2491 5.0625C11.2491 5.65924 11.012 6.23153 10.5901 6.65349C10.1681 7.07545 9.59581 7.3125 8.99907 7.3125C8.40234 7.3125 7.83004 7.07545 7.40808 6.65349C6.98613 6.23153 6.74907 5.65924 6.74907 5.0625C6.74907 4.46576 6.98613 3.89347 7.40808 3.47151C7.83004 3.04955 8.40234 2.8125 8.99907 2.8125C9.59581 2.8125 10.1681 3.04955 10.5901 3.47151C11.012 3.89347 11.2491 4.46576 11.2491 5.0625ZM15.7491 7.3125C15.7491 7.53411 15.7054 7.75354 15.6206 7.95828C15.5358 8.16302 15.4115 8.34904 15.2548 8.50574C15.0981 8.66244 14.9121 8.78674 14.7074 8.87155C14.5026 8.95635 14.2832 9 14.0616 9C13.84 9 13.6205 8.95635 13.4158 8.87155C13.2111 8.78674 13.025 8.66244 12.8683 8.50574C12.7116 8.34904 12.5873 8.16302 12.5025 7.95828C12.4177 7.75354 12.3741 7.53411 12.3741 7.3125C12.3741 6.86495 12.5519 6.43572 12.8683 6.11926C13.1848 5.80279 13.614 5.625 14.0616 5.625C14.5091 5.625 14.9383 5.80279 15.2548 6.11926C15.5713 6.43572 15.7491 6.86495 15.7491 7.3125ZM5.62407 7.3125C5.62407 7.53411 5.58043 7.75354 5.49562 7.95828C5.41082 8.16302 5.28651 8.34904 5.12982 8.50574C4.97312 8.66244 4.78709 8.78674 4.58235 8.87155C4.37761 8.95635 4.15818 9 3.93657 9C3.71497 9 3.49553 8.95635 3.2908 8.87155C3.08606 8.78674 2.90003 8.66244 2.74333 8.50574C2.58663 8.34904 2.46233 8.16302 2.37753 7.95828C2.29272 7.75354 2.24907 7.53411 2.24907 7.3125C2.24907 6.86495 2.42686 6.43572 2.74333 6.11926C3.0598 5.80279 3.48902 5.625 3.93657 5.625C4.38413 5.625 4.81335 5.80279 5.12982 6.11926C5.44628 6.43572 5.62407 6.86495 5.62407 7.3125Z"  stroke-width="1.4" stroke-linecap="round" stroke-linejoin="round"/>
</g>
</svg>
