<svg width="18" height="18" viewBox="0 0 18 18" fill="none" xmlns="http://www.w3.org/2000/svg">
<g id="Layer_1" opacity="0.8" clip-path="url(#clip0_156_2186)">
<g id="food_1_">
<path id="Vector" d="M17.3538 9.39526L17.4371 9.56195L17.3538 9.39526ZM17.3538 9.39526L17.3541 9.39512C17.354 9.39516 17.3539 9.39521 17.3538 9.39526ZM14.0417 11.9121L14.107 12.1875H14.0625H13.5H12.9375H12.6053L12.9362 12.0222L13.4385 11.7713L13.9481 11.5169L14.0098 11.7773L13.7444 11.8373C13.7544 11.8813 13.7661 11.9229 13.771 11.9408C13.7776 11.965 13.7783 11.9685 13.7782 11.9679L14.0417 11.9121ZM8.44699 12.1875C8.60518 12.068 8.796 12 9 12C9.20438 12 9.3951 12.0682 9.55251 12.1875H8.44699Z" fill="white" stroke="white" stroke-width="1.5"/>
<g id="Vector_2">
<mask id="path-2-inside-1_156_2186" fill="white">
<path d="M4.48764 6.588C4.48932 6.59137 4.49045 6.59475 4.49214 6.59812H4.49326C4.53995 6.68812 4.63332 6.75 4.74245 6.75C4.89826 6.75 5.02482 6.62287 5.02482 6.46706C5.02482 6.44287 5.02089 6.41925 5.0147 6.39675C5.01582 6.39281 5.01582 6.38944 5.0147 6.3855C4.80376 5.88938 5.00401 5.34488 5.25039 4.75875C5.51645 4.12537 5.80164 3.42225 5.48776 2.70731C5.44782 2.60438 5.34826 2.53125 5.23126 2.53125C5.07882 2.53125 4.95564 2.655 4.95564 2.80687C4.95564 2.84062 4.96239 2.87212 4.97364 2.90194C4.97364 2.90306 4.97364 2.90419 4.9742 2.90531C4.97476 2.907 4.97532 2.90869 4.97589 2.91037C4.97701 2.91262 4.97757 2.91487 4.9787 2.91712C5.20595 3.42844 4.98601 3.95269 4.73795 4.54444C4.47582 5.16825 4.18557 5.85956 4.47751 6.56438C4.48089 6.57281 4.4837 6.58012 4.48764 6.588Z"/>
</mask>
<path d="M4.48764 6.588C4.48932 6.59137 4.49045 6.59475 4.49214 6.59812H4.49326C4.53995 6.68812 4.63332 6.75 4.74245 6.75C4.89826 6.75 5.02482 6.62287 5.02482 6.46706C5.02482 6.44287 5.02089 6.41925 5.0147 6.39675C5.01582 6.39281 5.01582 6.38944 5.0147 6.3855C4.80376 5.88938 5.00401 5.34488 5.25039 4.75875C5.51645 4.12537 5.80164 3.42225 5.48776 2.70731C5.44782 2.60438 5.34826 2.53125 5.23126 2.53125C5.07882 2.53125 4.95564 2.655 4.95564 2.80687C4.95564 2.84062 4.96239 2.87212 4.97364 2.90194C4.97364 2.90306 4.97364 2.90419 4.9742 2.90531C4.97476 2.907 4.97532 2.90869 4.97589 2.91037C4.97701 2.91262 4.97757 2.91487 4.9787 2.91712C5.20595 3.42844 4.98601 3.95269 4.73795 4.54444C4.47582 5.16825 4.18557 5.85956 4.47751 6.56438C4.48089 6.57281 4.4837 6.58012 4.48764 6.588Z" fill="white"/>
<path d="M4.49214 6.59812L3.1505 7.26895L3.56509 8.09812H4.49214V6.59812ZM4.49326 6.59812L5.82477 5.90741L5.40495 5.09812H4.49326V6.59812ZM5.0147 6.39675L3.57241 5.98467L3.45689 6.38901L3.56839 6.79448L5.0147 6.39675ZM5.0147 6.3855L6.45698 5.97342L6.43146 5.88409L6.39511 5.79859L5.0147 6.3855ZM5.25039 4.75875L6.63319 5.34L6.63332 5.33968L5.25039 4.75875ZM5.48776 2.70731L4.08932 3.24988L4.10115 3.28036L4.1143 3.3103L5.48776 2.70731ZM4.97364 2.90194H6.47364V2.62833L6.37704 2.37235L4.97364 2.90194ZM4.9742 2.90531L6.39722 2.43097L6.36351 2.32984L6.31584 2.23449L4.9742 2.90531ZM4.97589 2.91037L3.55286 3.38472L3.58657 3.48585L3.63425 3.5812L4.97589 2.91037ZM4.9787 2.91712L6.34942 2.30792L6.33558 2.27678L6.32034 2.2463L4.9787 2.91712ZM4.73795 4.54444L6.12082 5.12552L6.12132 5.12435L4.73795 4.54444ZM4.47751 6.56438L5.87023 6.00729L5.86683 5.9988L5.86333 5.99036L4.47751 6.56438ZM3.146 7.25882C3.13168 7.2302 3.12105 7.20655 3.11458 7.19176C3.11133 7.18432 3.10879 7.17835 3.10731 7.17485C3.10598 7.1717 3.10489 7.16906 3.10527 7.16999C3.10531 7.17007 3.10572 7.17105 3.10618 7.17216C3.10668 7.17335 3.10744 7.17518 3.10837 7.17738C3.1102 7.18173 3.1131 7.18854 3.11672 7.19683C3.12393 7.2133 3.13534 7.23863 3.1505 7.26895L5.83378 5.9273C5.84809 5.95593 5.85872 5.97958 5.86519 5.99436C5.86845 6.0018 5.87098 6.00777 5.87246 6.01127C5.87379 6.01442 5.87489 6.01706 5.8745 6.01614C5.87447 6.01605 5.87406 6.01507 5.8736 6.01397C5.8731 6.01278 5.87233 6.01095 5.8714 6.00874C5.86957 6.0044 5.86667 5.99758 5.86305 5.9893C5.85584 5.97283 5.84443 5.94749 5.82928 5.91718L3.146 7.25882ZM4.49214 8.09812H4.49326V5.09812H4.49214V8.09812ZM3.16176 7.28884C3.4536 7.85144 4.04601 8.25 4.74245 8.25V5.25C5.22064 5.25 5.62629 5.52481 5.82477 5.90741L3.16176 7.28884ZM4.74245 8.25C5.73057 8.25 6.52482 7.44741 6.52482 6.46706H3.52482C3.52482 5.79834 4.06595 5.25 4.74245 5.25V8.25ZM6.52482 6.46706C6.52482 6.28094 6.4947 6.12153 6.46101 5.99902L3.56839 6.79448C3.54707 6.71697 3.52482 6.60481 3.52482 6.46706H6.52482ZM6.45698 6.80883C6.53506 6.53556 6.53506 6.24669 6.45698 5.97342L3.57241 6.79758C3.54083 6.68704 3.51554 6.54939 3.51554 6.39112C3.51554 6.23286 3.54083 6.09521 3.57241 5.98467L6.45698 6.80883ZM6.39511 5.79859C6.44408 5.91376 6.4155 5.98183 6.4317 5.90115C6.44043 5.85767 6.45837 5.79129 6.49356 5.69216C6.52894 5.59248 6.57416 5.48043 6.63319 5.34L3.86758 4.1775C3.74635 4.4659 3.57794 4.87461 3.4904 5.3106C3.39761 5.77273 3.37438 6.36112 3.63429 6.97241L6.39511 5.79859ZM6.63332 5.33968C6.85757 4.80585 7.47162 3.49466 6.86123 2.10433L4.1143 3.3103C4.11936 3.32184 4.1375 3.35402 4.11284 3.48404C4.0814 3.64973 4.00782 3.84367 3.86745 4.17782L6.63332 5.33968ZM6.8862 2.16475C6.63142 1.50806 5.99203 1.03125 5.23126 1.03125V4.03125C4.7045 4.03125 4.26423 3.70069 4.08932 3.24988L6.8862 2.16475ZM5.23126 1.03125C4.2484 1.03125 3.45564 1.82857 3.45564 2.80687H6.45564C6.45564 3.48143 5.90924 4.03125 5.23126 4.03125V1.03125ZM3.45564 2.80687C3.45564 3.04645 3.50454 3.25744 3.57023 3.43152L6.37704 2.37235C6.42023 2.48681 6.45564 2.6348 6.45564 2.80687H3.45564ZM3.47364 2.90194C3.47364 2.90194 3.47364 2.90205 3.47364 2.90218C3.47364 2.90232 3.47364 2.90253 3.47364 2.90279C3.47364 2.9033 3.47364 2.90412 3.47364 2.90511C3.47364 2.90707 3.47365 2.91024 3.47368 2.91414C3.47374 2.92179 3.4739 2.93431 3.47438 2.94975C3.47533 2.98015 3.47776 3.02947 3.48531 3.08982C3.5012 3.21687 3.53931 3.38963 3.63256 3.57613L6.31584 2.23449C6.49549 2.59378 6.47364 2.94054 6.47364 2.90194H3.47364ZM3.55117 3.37965C3.55147 3.38054 3.55176 3.38142 3.55204 3.38225C3.55232 3.3831 3.55259 3.38391 3.55286 3.38472L6.39891 2.43603C6.39862 2.43515 6.39832 2.43427 6.39805 2.43343C6.39776 2.43258 6.39749 2.43177 6.39722 2.43097L3.55117 3.37965ZM3.63425 3.5812C3.61232 3.53735 3.59664 3.50051 3.58695 3.47664C3.5821 3.46472 3.57836 3.45504 3.57612 3.44919C3.57498 3.44621 3.57407 3.44382 3.57355 3.44243C3.57307 3.44117 3.57268 3.44011 3.5728 3.44045C3.57281 3.44047 3.57295 3.44084 3.57311 3.44126C3.57328 3.44171 3.57354 3.44242 3.57387 3.44327C3.5745 3.44495 3.57551 3.44762 3.57675 3.45087C3.57921 3.45729 3.58318 3.46753 3.58825 3.48001C3.5984 3.50501 3.61457 3.54297 3.63706 3.58795L6.32034 2.2463C6.34226 2.29015 6.35794 2.32699 6.36764 2.35086C6.37248 2.36278 6.37623 2.37246 6.37847 2.37831C6.37961 2.38129 6.38051 2.38368 6.38104 2.38507C6.38151 2.38633 6.38191 2.38739 6.38178 2.38705C6.38177 2.38703 6.38164 2.38666 6.38148 2.38624C6.38131 2.38579 6.38104 2.38508 6.38072 2.38423C6.38009 2.38255 6.37908 2.37988 6.37783 2.37663C6.37538 2.37021 6.37141 2.35997 6.36634 2.34749C6.35618 2.32249 6.34001 2.28453 6.31753 2.23955L3.63425 3.5812ZM3.60798 3.52633C3.58698 3.47909 3.57655 3.42918 3.57429 3.38965C3.57234 3.35566 3.57763 3.35005 3.56981 3.38656C3.5615 3.42539 3.5435 3.48893 3.50545 3.59172C3.46654 3.69686 3.41915 3.8105 3.35458 3.96453L6.12132 5.12435C6.23143 4.86168 6.41075 4.447 6.50332 4.01468C6.60542 3.53785 6.62869 2.93629 6.34942 2.30792L3.60798 3.52633ZM3.35507 3.96336C3.14206 4.47029 2.52228 5.76369 3.09169 7.13839L5.86333 5.99036C5.86165 5.9863 5.84279 5.95628 5.86994 5.8226C5.90419 5.65398 5.97942 5.46204 6.12082 5.12552L3.35507 3.96336ZM3.0848 7.12146C3.08477 7.1214 3.08476 7.12137 3.08532 7.12277C3.08572 7.12377 3.08664 7.12608 3.08767 7.12867C3.08973 7.1338 3.09361 7.14343 3.0985 7.15512C3.10873 7.1796 3.12455 7.21592 3.146 7.25882L5.82928 5.91718C5.84679 5.9522 5.85923 5.98094 5.86623 5.99768C5.8695 6.0055 5.8718 6.01123 5.87225 6.01237C5.87249 6.01296 5.87261 6.01325 5.87219 6.01221C5.87193 6.01156 5.87109 6.00946 5.87023 6.00729L3.0848 7.12146Z" fill="white" mask="url(#path-2-inside-1_156_2186)"/>
</g>
<g id="Vector_3">
<mask id="path-4-inside-2_156_2186" fill="white">
<path d="M11.3382 6.50541C11.3405 6.50878 11.3416 6.51216 11.3427 6.51553H11.3438C11.3911 6.60553 11.4845 6.66797 11.593 6.66797C11.7488 6.66797 11.8765 6.54084 11.8765 6.38503C11.8765 6.36084 11.872 6.33722 11.8664 6.31472C11.8675 6.31078 11.8675 6.30741 11.8653 6.30347C11.6555 5.80734 11.8551 5.26284 12.1015 4.67672C12.3676 4.04334 12.6528 3.34022 12.3389 2.62528C12.2984 2.52178 12.1994 2.44922 12.0818 2.44922C11.93 2.44922 11.8062 2.57297 11.8062 2.72484C11.8062 2.75859 11.8141 2.79009 11.8248 2.81991C11.8248 2.82103 11.8248 2.82216 11.8248 2.82328C11.8259 2.82497 11.8259 2.82666 11.827 2.82834C11.8281 2.83059 11.8293 2.83284 11.8293 2.83509C12.0565 3.34641 11.8371 3.87066 11.5885 4.46241C11.327 5.08622 11.0373 5.77809 11.3292 6.48291C11.332 6.49022 11.3348 6.49809 11.3382 6.50541Z"/>
</mask>
<path d="M11.3382 6.50541C11.3405 6.50878 11.3416 6.51216 11.3427 6.51553H11.3438C11.3911 6.60553 11.4845 6.66797 11.593 6.66797C11.7488 6.66797 11.8765 6.54084 11.8765 6.38503C11.8765 6.36084 11.872 6.33722 11.8664 6.31472C11.8675 6.31078 11.8675 6.30741 11.8653 6.30347C11.6555 5.80734 11.8551 5.26284 12.1015 4.67672C12.3676 4.04334 12.6528 3.34022 12.3389 2.62528C12.2984 2.52178 12.1994 2.44922 12.0818 2.44922C11.93 2.44922 11.8062 2.57297 11.8062 2.72484C11.8062 2.75859 11.8141 2.79009 11.8248 2.81991C11.8248 2.82103 11.8248 2.82216 11.8248 2.82328C11.8259 2.82497 11.8259 2.82666 11.827 2.82834C11.8281 2.83059 11.8293 2.83284 11.8293 2.83509C12.0565 3.34641 11.8371 3.87066 11.5885 4.46241C11.327 5.08622 11.0373 5.77809 11.3292 6.48291C11.332 6.49022 11.3348 6.49809 11.3382 6.50541Z" fill="white"/>
<path d="M11.3382 6.50541L9.97627 7.13399L10.0253 7.24016L10.0901 7.33746L11.3382 6.50541ZM11.3427 6.51553L9.91968 6.98987L10.2616 8.01553H11.3427V6.51553ZM11.3438 6.51553L12.6719 5.81828L12.2505 5.01553H11.3438V6.51553ZM11.8664 6.31472L10.4241 5.90264L10.3138 6.28885L10.4112 6.67852L11.8664 6.31472ZM11.8653 6.30347L10.4837 6.88772L10.5186 6.97006L10.5629 7.04768L11.8653 6.30347ZM12.1015 4.67672L13.4843 5.25797L13.4845 5.25765L12.1015 4.67672ZM12.3389 2.62528L10.942 3.17188L10.9532 3.20031L10.9654 3.22827L12.3389 2.62528ZM11.8248 2.81991H13.3248V2.55916L13.2368 2.31371L11.8248 2.81991ZM11.8248 2.82328H10.3248V3.27744L10.5767 3.65533L11.8248 2.82328ZM11.827 2.82834L13.1687 2.15752L13.1269 2.074L13.0751 1.99629L11.827 2.82834ZM11.8293 2.83509H10.3293V3.15342L10.4586 3.4443L11.8293 2.83509ZM11.5885 4.46241L10.2056 3.88138L10.2052 3.88238L11.5885 4.46241ZM11.3292 6.48291L12.7292 5.94444L12.7224 5.92657L12.715 5.90889L11.3292 6.48291ZM10.0901 7.33746C9.96636 7.1518 9.9139 6.97252 9.91968 6.98987L12.7657 6.04119C12.7657 6.0411 12.7654 6.04005 12.765 6.03885C12.7645 6.03757 12.7639 6.03559 12.7631 6.0332C12.7615 6.0285 12.7589 6.02111 12.7557 6.01212C12.7494 5.99426 12.7393 5.9666 12.7254 5.9334C12.6967 5.86449 12.6528 5.77309 12.5863 5.67336L10.0901 7.33746ZM11.3427 8.01553H11.3438V5.01553H11.3427V8.01553ZM10.0157 7.21278C10.3039 7.76167 10.8888 8.16797 11.593 8.16797V5.16797C12.0801 5.16797 12.4783 5.44939 12.6719 5.81828L10.0157 7.21278ZM11.593 8.16797C12.5734 8.16797 13.3765 7.37314 13.3765 6.38503H10.3765C10.3765 5.70854 10.9243 5.16797 11.593 5.16797V8.16797ZM13.3765 6.38503C13.3765 6.18218 13.3393 6.02183 13.3216 5.95092L10.4112 6.67852C10.4047 6.65261 10.3765 6.53951 10.3765 6.38503H13.3765ZM13.3087 6.7268C13.3935 6.42996 13.4149 5.99191 13.1676 5.55926L10.5629 7.04768C10.4669 6.87958 10.3903 6.66851 10.3715 6.42423C10.3536 6.19196 10.3943 6.00713 10.4241 5.90264L13.3087 6.7268ZM13.2468 5.71921C13.2951 5.83348 13.2667 5.9004 13.283 5.81912C13.2917 5.77542 13.3097 5.70891 13.3449 5.60982C13.3802 5.51019 13.4254 5.39817 13.4843 5.25797L10.7187 4.09546C10.5972 4.38446 10.4292 4.79283 10.3417 5.22857C10.249 5.6901 10.2256 6.27734 10.4837 6.88772L13.2468 5.71921ZM13.4845 5.25765C13.7087 4.72382 14.3228 3.41263 13.7124 2.0223L10.9654 3.22827C10.9705 3.23981 10.9886 3.27198 10.964 3.40201C10.9325 3.5677 10.8589 3.76164 10.7186 4.09579L13.4845 5.25765ZM13.7358 2.07868C13.4797 1.42438 12.8425 0.949219 12.0818 0.949219V3.94922C11.5563 3.94922 11.1171 3.61919 10.942 3.17188L13.7358 2.07868ZM12.0818 0.949219C11.1015 0.949219 10.3062 1.74454 10.3062 2.72484H13.3062C13.3062 3.4014 12.7584 3.94922 12.0818 3.94922V0.949219ZM10.3062 2.72484C10.3062 2.99308 10.3693 3.20475 10.4128 3.3261L13.2368 2.31371C13.2589 2.37544 13.3062 2.52411 13.3062 2.72484H10.3062ZM10.3248 2.81991C10.3248 2.81991 10.3248 2.81991 10.3248 2.81991C10.3248 2.81991 10.3248 2.81992 10.3248 2.81992C10.3248 2.81992 10.3248 2.81992 10.3248 2.81993C10.3248 2.81993 10.3248 2.81993 10.3248 2.81993C10.3248 2.81993 10.3248 2.81994 10.3248 2.81994C10.3248 2.81994 10.3248 2.81994 10.3248 2.81995C10.3248 2.81995 10.3248 2.81995 10.3248 2.81995C10.3248 2.81995 10.3248 2.81996 10.3248 2.81996C10.3248 2.81996 10.3248 2.81996 10.3248 2.81997C10.3248 2.81997 10.3248 2.81997 10.3248 2.81997C10.3248 2.81997 10.3248 2.81998 10.3248 2.81998C10.3248 2.81998 10.3248 2.81998 10.3248 2.81999C10.3248 2.81999 10.3248 2.81999 10.3248 2.81999C10.3248 2.81999 10.3248 2.82 10.3248 2.82C10.3248 2.82 10.3248 2.82 10.3248 2.82001C10.3248 2.82001 10.3248 2.82001 10.3248 2.82001C10.3248 2.82001 10.3248 2.82002 10.3248 2.82002C10.3248 2.82002 10.3248 2.82002 10.3248 2.82002C10.3248 2.82003 10.3248 2.82003 10.3248 2.82003C10.3248 2.82003 10.3248 2.82004 10.3248 2.82004C10.3248 2.82004 10.3248 2.82004 10.3248 2.82004C10.3248 2.82005 10.3248 2.82005 10.3248 2.82005C10.3248 2.82005 10.3248 2.82006 10.3248 2.82006C10.3248 2.82006 10.3248 2.82006 10.3248 2.82006C10.3248 2.82007 10.3248 2.82007 10.3248 2.82007C10.3248 2.82007 10.3248 2.82008 10.3248 2.82008C10.3248 2.82008 10.3248 2.82008 10.3248 2.82008C10.3248 2.82009 10.3248 2.82009 10.3248 2.82009C10.3248 2.82009 10.3248 2.8201 10.3248 2.8201C10.3248 2.8201 10.3248 2.8201 10.3248 2.8201C10.3248 2.82011 10.3248 2.82011 10.3248 2.82011C10.3248 2.82011 10.3248 2.82011 10.3248 2.82012C10.3248 2.82012 10.3248 2.82012 10.3248 2.82012C10.3248 2.82013 10.3248 2.82013 10.3248 2.82013C10.3248 2.82013 10.3248 2.82013 10.3248 2.82014C10.3248 2.82014 10.3248 2.82014 10.3248 2.82014C10.3248 2.82015 10.3248 2.82015 10.3248 2.82015C10.3248 2.82015 10.3248 2.82015 10.3248 2.82016C10.3248 2.82016 10.3248 2.82016 10.3248 2.82016C10.3248 2.82017 10.3248 2.82017 10.3248 2.82017C10.3248 2.82017 10.3248 2.82017 10.3248 2.82018C10.3248 2.82018 10.3248 2.82018 10.3248 2.82018C10.3248 2.82019 10.3248 2.82019 10.3248 2.82019C10.3248 2.82019 10.3248 2.82019 10.3248 2.8202C10.3248 2.8202 10.3248 2.8202 10.3248 2.8202C10.3248 2.82021 10.3248 2.82021 10.3248 2.82021C10.3248 2.82021 10.3248 2.82021 10.3248 2.82022C10.3248 2.82022 10.3248 2.82022 10.3248 2.82022C10.3248 2.82022 10.3248 2.82023 10.3248 2.82023C10.3248 2.82023 10.3248 2.82023 10.3248 2.82024C10.3248 2.82024 10.3248 2.82024 10.3248 2.82024C10.3248 2.82024 10.3248 2.82025 10.3248 2.82025C10.3248 2.82025 10.3248 2.82025 10.3248 2.82026C10.3248 2.82026 10.3248 2.82026 10.3248 2.82026C10.3248 2.82026 10.3248 2.82027 10.3248 2.82027C10.3248 2.82027 10.3248 2.82027 10.3248 2.82028C10.3248 2.82028 10.3248 2.82028 10.3248 2.82028C10.3248 2.82028 10.3248 2.82029 10.3248 2.82029C10.3248 2.82029 10.3248 2.82029 10.3248 2.8203C10.3248 2.8203 10.3248 2.8203 10.3248 2.8203C10.3248 2.8203 10.3248 2.82031 10.3248 2.82031C10.3248 2.82031 10.3248 2.82031 10.3248 2.82031C10.3248 2.82032 10.3248 2.82032 10.3248 2.82032C10.3248 2.82032 10.3248 2.82033 10.3248 2.82033C10.3248 2.82033 10.3248 2.82033 10.3248 2.82033C10.3248 2.82034 10.3248 2.82034 10.3248 2.82034C10.3248 2.82034 10.3248 2.82035 10.3248 2.82035C10.3248 2.82035 10.3248 2.82035 10.3248 2.82035C10.3248 2.82036 10.3248 2.82036 10.3248 2.82036C10.3248 2.82036 10.3248 2.82037 10.3248 2.82037C10.3248 2.82037 10.3248 2.82037 10.3248 2.82037C10.3248 2.82038 10.3248 2.82038 10.3248 2.82038C10.3248 2.82038 10.3248 2.82039 10.3248 2.82039C10.3248 2.82039 10.3248 2.82039 10.3248 2.82039C10.3248 2.8204 10.3248 2.8204 10.3248 2.8204C10.3248 2.8204 10.3248 2.8204 10.3248 2.82041C10.3248 2.82041 10.3248 2.82041 10.3248 2.82041C10.3248 2.82042 10.3248 2.82042 10.3248 2.82042C10.3248 2.82042 10.3248 2.82042 10.3248 2.82043C10.3248 2.82043 10.3248 2.82043 10.3248 2.82043C10.3248 2.82044 10.3248 2.82044 10.3248 2.82044C10.3248 2.82044 10.3248 2.82044 10.3248 2.82045C10.3248 2.82045 10.3248 2.82045 10.3248 2.82045C10.3248 2.82046 10.3248 2.82046 10.3248 2.82046C10.3248 2.82046 10.3248 2.82046 10.3248 2.82047C10.3248 2.82047 10.3248 2.82047 10.3248 2.82047C10.3248 2.82048 10.3248 2.82048 10.3248 2.82048C10.3248 2.82048 10.3248 2.82048 10.3248 2.82049C10.3248 2.82049 10.3248 2.82049 10.3248 2.82049C10.3248 2.8205 10.3248 2.8205 10.3248 2.8205C10.3248 2.8205 10.3248 2.8205 10.3248 2.82051C10.3248 2.82051 10.3248 2.82051 10.3248 2.82051C10.3248 2.82051 10.3248 2.82052 10.3248 2.82052C10.3248 2.82052 10.3248 2.82052 10.3248 2.82053C10.3248 2.82053 10.3248 2.82053 10.3248 2.82053C10.3248 2.82053 10.3248 2.82054 10.3248 2.82054C10.3248 2.82054 10.3248 2.82054 10.3248 2.82055C10.3248 2.82055 10.3248 2.82055 10.3248 2.82055C10.3248 2.82055 10.3248 2.82056 10.3248 2.82056C10.3248 2.82056 10.3248 2.82056 10.3248 2.82057C10.3248 2.82057 10.3248 2.82057 10.3248 2.82057C10.3248 2.82057 10.3248 2.82058 10.3248 2.82058C10.3248 2.82058 10.3248 2.82058 10.3248 2.82059C10.3248 2.82059 10.3248 2.82059 10.3248 2.82059C10.3248 2.82059 10.3248 2.8206 10.3248 2.8206C10.3248 2.8206 10.3248 2.8206 10.3248 2.8206C10.3248 2.82061 10.3248 2.82061 10.3248 2.82061C10.3248 2.82061 10.3248 2.82062 10.3248 2.82062C10.3248 2.82062 10.3248 2.82062 10.3248 2.82062C10.3248 2.82063 10.3248 2.82063 10.3248 2.82063C10.3248 2.82063 10.3248 2.82064 10.3248 2.82064C10.3248 2.82064 10.3248 2.82064 10.3248 2.82064C10.3248 2.82065 10.3248 2.82065 10.3248 2.82065C10.3248 2.82065 10.3248 2.82066 10.3248 2.82066C10.3248 2.82066 10.3248 2.82066 10.3248 2.82066C10.3248 2.82067 10.3248 2.82067 10.3248 2.82067C10.3248 2.82067 10.3248 2.82068 10.3248 2.82068C10.3248 2.82068 10.3248 2.82068 10.3248 2.82068C10.3248 2.82069 10.3248 2.82069 10.3248 2.82069C10.3248 2.82069 10.3248 2.8207 10.3248 2.8207C10.3248 2.8207 10.3248 2.8207 10.3248 2.8207C10.3248 2.82071 10.3248 2.82071 10.3248 2.82071C10.3248 2.82071 10.3248 2.82071 10.3248 2.82072C10.3248 2.82072 10.3248 2.82072 10.3248 2.82072C10.3248 2.82073 10.3248 2.82073 10.3248 2.82073C10.3248 2.82073 10.3248 2.82073 10.3248 2.82074C10.3248 2.82074 10.3248 2.82074 10.3248 2.82074C10.3248 2.82075 10.3248 2.82075 10.3248 2.82075C10.3248 2.82075 10.3248 2.82075 10.3248 2.82076C10.3248 2.82076 10.3248 2.82076 10.3248 2.82076C10.3248 2.82077 10.3248 2.82077 10.3248 2.82077C10.3248 2.82077 10.3248 2.82077 10.3248 2.82078C10.3248 2.82078 10.3248 2.82078 10.3248 2.82078C10.3248 2.82079 10.3248 2.82079 10.3248 2.82079C10.3248 2.82079 10.3248 2.82079 10.3248 2.8208C10.3248 2.8208 10.3248 2.8208 10.3248 2.8208C10.3248 2.8208 10.3248 2.82081 10.3248 2.82081C10.3248 2.82081 10.3248 2.82081 10.3248 2.82082C10.3248 2.82082 10.3248 2.82082 10.3248 2.82082C10.3248 2.82082 10.3248 2.82083 10.3248 2.82083C10.3248 2.82083 10.3248 2.82083 10.3248 2.82084C10.3248 2.82084 10.3248 2.82084 10.3248 2.82084C10.3248 2.82084 10.3248 2.82085 10.3248 2.82085C10.3248 2.82085 10.3248 2.82085 10.3248 2.82086C10.3248 2.82086 10.3248 2.82086 10.3248 2.82086C10.3248 2.82086 10.3248 2.82087 10.3248 2.82087C10.3248 2.82087 10.3248 2.82087 10.3248 2.82088C10.3248 2.82088 10.3248 2.82088 10.3248 2.82088C10.3248 2.82088 10.3248 2.82089 10.3248 2.82089C10.3248 2.82089 10.3248 2.82089 10.3248 2.82089C10.3248 2.8209 10.3248 2.8209 10.3248 2.8209C10.3248 2.8209 10.3248 2.82091 10.3248 2.82091C10.3248 2.82091 10.3248 2.82091 10.3248 2.82091C10.3248 2.82092 10.3248 2.82092 10.3248 2.82092C10.3248 2.82092 10.3248 2.82093 10.3248 2.82093C10.3248 2.82093 10.3248 2.82093 10.3248 2.82093C10.3248 2.82094 10.3248 2.82094 10.3248 2.82094C10.3248 2.82094 10.3248 2.82095 10.3248 2.82095C10.3248 2.82095 10.3248 2.82095 10.3248 2.82095C10.3248 2.82096 10.3248 2.82096 10.3248 2.82096C10.3248 2.82096 10.3248 2.82097 10.3248 2.82097C10.3248 2.82097 10.3248 2.82097 10.3248 2.82097C10.3248 2.82098 10.3248 2.82098 10.3248 2.82098C10.3248 2.82098 10.3248 2.82099 10.3248 2.82099C10.3248 2.82099 10.3248 2.82099 10.3248 2.82099C10.3248 2.821 10.3248 2.821 10.3248 2.821C10.3248 2.821 10.3248 2.821 10.3248 2.82101C10.3248 2.82101 10.3248 2.82101 10.3248 2.82101C10.3248 2.82102 10.3248 2.82102 10.3248 2.82102C10.3248 2.82102 10.3248 2.82102 10.3248 2.82103C10.3248 2.82103 10.3248 2.82103 10.3248 2.82103C10.3248 2.82104 10.3248 2.82104 10.3248 2.82104C10.3248 2.82104 10.3248 2.82104 10.3248 2.82105C10.3248 2.82105 10.3248 2.82105 10.3248 2.82105C10.3248 2.82106 10.3248 2.82106 10.3248 2.82106C10.3248 2.82106 10.3248 2.82106 10.3248 2.82107C10.3248 2.82107 10.3248 2.82107 10.3248 2.82107C10.3248 2.82108 10.3248 2.82108 10.3248 2.82108C10.3248 2.82108 10.3248 2.82108 10.3248 2.82109C10.3248 2.82109 10.3248 2.82109 10.3248 2.82109C10.3248 2.82109 10.3248 2.8211 10.3248 2.8211C10.3248 2.8211 10.3248 2.8211 10.3248 2.82111C10.3248 2.82111 10.3248 2.82111 10.3248 2.82111C10.3248 2.82111 10.3248 2.82112 10.3248 2.82112C10.3248 2.82112 10.3248 2.82112 10.3248 2.82113C10.3248 2.82113 10.3248 2.82113 10.3248 2.82113C10.3248 2.82113 10.3248 2.82114 10.3248 2.82114C10.3248 2.82114 10.3248 2.82114 10.3248 2.82115C10.3248 2.82115 10.3248 2.82115 10.3248 2.82115C10.3248 2.82115 10.3248 2.82116 10.3248 2.82116C10.3248 2.82116 10.3248 2.82116 10.3248 2.82117C10.3248 2.82117 10.3248 2.82117 10.3248 2.82117C10.3248 2.82117 10.3248 2.82118 10.3248 2.82118C10.3248 2.82118 10.3248 2.82118 10.3248 2.82119C10.3248 2.82119 10.3248 2.82119 10.3248 2.82119C10.3248 2.82119 10.3248 2.8212 10.3248 2.8212C10.3248 2.8212 10.3248 2.8212 10.3248 2.8212C10.3248 2.82121 10.3248 2.82121 10.3248 2.82121C10.3248 2.82121 10.3248 2.82122 10.3248 2.82122C10.3248 2.82122 10.3248 2.82122 10.3248 2.82122C10.3248 2.82123 10.3248 2.82123 10.3248 2.82123C10.3248 2.82123 10.3248 2.82124 10.3248 2.82124C10.3248 2.82124 10.3248 2.82124 10.3248 2.82124C10.3248 2.82125 10.3248 2.82125 10.3248 2.82125C10.3248 2.82125 10.3248 2.82126 10.3248 2.82126C10.3248 2.82126 10.3248 2.82126 10.3248 2.82126C10.3248 2.82127 10.3248 2.82127 10.3248 2.82127C10.3248 2.82127 10.3248 2.82128 10.3248 2.82128C10.3248 2.82128 10.3248 2.82128 10.3248 2.82128C10.3248 2.82129 10.3248 2.82129 10.3248 2.82129C10.3248 2.82129 10.3248 2.82129 10.3248 2.8213C10.3248 2.8213 10.3248 2.8213 10.3248 2.8213C10.3248 2.82131 10.3248 2.82131 10.3248 2.82131C10.3248 2.82131 10.3248 2.82131 10.3248 2.82132C10.3248 2.82132 10.3248 2.82132 10.3248 2.82132C10.3248 2.82133 10.3248 2.82133 10.3248 2.82133C10.3248 2.82133 10.3248 2.82133 10.3248 2.82134C10.3248 2.82134 10.3248 2.82134 10.3248 2.82134C10.3248 2.82135 10.3248 2.82135 10.3248 2.82135C10.3248 2.82135 10.3248 2.82135 10.3248 2.82136C10.3248 2.82136 10.3248 2.82136 10.3248 2.82136C10.3248 2.82137 10.3248 2.82137 10.3248 2.82137C10.3248 2.82137 10.3248 2.82137 10.3248 2.82138C10.3248 2.82138 10.3248 2.82138 10.3248 2.82138C10.3248 2.82138 10.3248 2.82139 10.3248 2.82139C10.3248 2.82139 10.3248 2.82139 10.3248 2.8214C10.3248 2.8214 10.3248 2.8214 10.3248 2.8214C10.3248 2.8214 10.3248 2.82141 10.3248 2.82141C10.3248 2.82141 10.3248 2.82141 10.3248 2.82142C10.3248 2.82142 10.3248 2.82142 10.3248 2.82142C10.3248 2.82142 10.3248 2.82143 10.3248 2.82143C10.3248 2.82143 10.3248 2.82143 10.3248 2.82144C10.3248 2.82144 10.3248 2.82144 10.3248 2.82144C10.3248 2.82144 10.3248 2.82145 10.3248 2.82145C10.3248 2.82145 10.3248 2.82145 10.3248 2.82146C10.3248 2.82146 10.3248 2.82146 10.3248 2.82146C10.3248 2.82146 10.3248 2.82147 10.3248 2.82147C10.3248 2.82147 10.3248 2.82147 10.3248 2.82148C10.3248 2.82148 10.3248 2.82148 10.3248 2.82148C10.3248 2.82148 10.3248 2.82149 10.3248 2.82149C10.3248 2.82149 10.3248 2.82149 10.3248 2.82149C10.3248 2.8215 10.3248 2.8215 10.3248 2.8215C10.3248 2.8215 10.3248 2.82151 10.3248 2.82151C10.3248 2.82151 10.3248 2.82151 10.3248 2.82151C10.3248 2.82152 10.3248 2.82152 10.3248 2.82152C10.3248 2.82152 10.3248 2.82153 10.3248 2.82153C10.3248 2.82153 10.3248 2.82153 10.3248 2.82153C10.3248 2.82154 10.3248 2.82154 10.3248 2.82154C10.3248 2.82154 10.3248 2.82155 10.3248 2.82155C10.3248 2.82155 10.3248 2.82155 10.3248 2.82155C10.3248 2.82156 10.3248 2.82156 10.3248 2.82156C10.3248 2.82156 10.3248 2.82157 10.3248 2.82157C10.3248 2.82157 10.3248 2.82157 10.3248 2.82157C10.3248 2.82158 10.3248 2.82158 10.3248 2.82158C10.3248 2.82158 10.3248 2.82158 10.3248 2.82159C10.3248 2.82159 10.3248 2.82159 10.3248 2.82159C10.3248 2.8216 10.3248 2.8216 10.3248 2.8216C10.3248 2.8216 10.3248 2.8216 10.3248 2.82161C10.3248 2.82161 10.3248 2.82161 10.3248 2.82161C10.3248 2.82162 10.3248 2.82162 10.3248 2.82162C10.3248 2.82162 10.3248 2.82162 10.3248 2.82163C10.3248 2.82163 10.3248 2.82163 10.3248 2.82163C10.3248 2.82164 10.3248 2.82164 10.3248 2.82164C10.3248 2.82164 10.3248 2.82164 10.3248 2.82165C10.3248 2.82165 10.3248 2.82165 10.3248 2.82165C10.3248 2.82166 10.3248 2.82166 10.3248 2.82166C10.3248 2.82166 10.3248 2.82166 10.3248 2.82167C10.3248 2.82167 10.3248 2.82167 10.3248 2.82167C10.3248 2.82168 10.3248 2.82168 10.3248 2.82168C10.3248 2.82168 10.3248 2.82168 10.3248 2.82169C10.3248 2.82169 10.3248 2.82169 10.3248 2.82169C10.3248 2.82169 10.3248 2.8217 10.3248 2.8217C10.3248 2.8217 10.3248 2.8217 10.3248 2.82171C10.3248 2.82171 10.3248 2.82171 10.3248 2.82171C10.3248 2.82171 10.3248 2.82172 10.3248 2.82172C10.3248 2.82172 10.3248 2.82172 10.3248 2.82173C10.3248 2.82173 10.3248 2.82173 10.3248 2.82173C10.3248 2.82173 10.3248 2.82174 10.3248 2.82174C10.3248 2.82174 10.3248 2.82174 10.3248 2.82175C10.3248 2.82175 10.3248 2.82175 10.3248 2.82175C10.3248 2.82175 10.3248 2.82176 10.3248 2.82176C10.3248 2.82176 10.3248 2.82176 10.3248 2.82177C10.3248 2.82177 10.3248 2.82177 10.3248 2.82177C10.3248 2.82177 10.3248 2.82178 10.3248 2.82178C10.3248 2.82178 10.3248 2.82178 10.3248 2.82178C10.3248 2.82179 10.3248 2.82179 10.3248 2.82179C10.3248 2.82179 10.3248 2.8218 10.3248 2.8218C10.3248 2.8218 10.3248 2.8218 10.3248 2.8218C10.3248 2.82181 10.3248 2.82181 10.3248 2.82181C10.3248 2.82181 10.3248 2.82182 10.3248 2.82182C10.3248 2.82182 10.3248 2.82182 10.3248 2.82182C10.3248 2.82183 10.3248 2.82183 10.3248 2.82183C10.3248 2.82183 10.3248 2.82184 10.3248 2.82184C10.3248 2.82184 10.3248 2.82184 10.3248 2.82184C10.3248 2.82185 10.3248 2.82185 10.3248 2.82185C10.3248 2.82185 10.3248 2.82186 10.3248 2.82186C10.3248 2.82186 10.3248 2.82186 10.3248 2.82186C10.3248 2.82187 10.3248 2.82187 10.3248 2.82187C10.3248 2.82187 10.3248 2.82187 10.3248 2.82188C10.3248 2.82188 10.3248 2.82188 10.3248 2.82188C10.3248 2.82189 10.3248 2.82189 10.3248 2.82189C10.3248 2.82189 10.3248 2.82189 10.3248 2.8219C10.3248 2.8219 10.3248 2.8219 10.3248 2.8219C10.3248 2.82191 10.3248 2.82191 10.3248 2.82191C10.3248 2.82191 10.3248 2.82191 10.3248 2.82192C10.3248 2.82192 10.3248 2.82192 10.3248 2.82192C10.3248 2.82193 10.3248 2.82193 10.3248 2.82193C10.3248 2.82193 10.3248 2.82193 10.3248 2.82194C10.3248 2.82194 10.3248 2.82194 10.3248 2.82194C10.3248 2.82195 10.3248 2.82195 10.3248 2.82195C10.3248 2.82195 10.3248 2.82195 10.3248 2.82196C10.3248 2.82196 10.3248 2.82196 10.3248 2.82196C10.3248 2.82197 10.3248 2.82197 10.3248 2.82197C10.3248 2.82197 10.3248 2.82197 10.3248 2.82198C10.3248 2.82198 10.3248 2.82198 10.3248 2.82198C10.3248 2.82198 10.3248 2.82199 10.3248 2.82199C10.3248 2.82199 10.3248 2.82199 10.3248 2.822C10.3248 2.822 10.3248 2.822 10.3248 2.822C10.3248 2.822 10.3248 2.82201 10.3248 2.82201C10.3248 2.82201 10.3248 2.82201 10.3248 2.82202C10.3248 2.82202 10.3248 2.82202 10.3248 2.82202C10.3248 2.82202 10.3248 2.82203 10.3248 2.82203C10.3248 2.82203 10.3248 2.82203 10.3248 2.82204C10.3248 2.82204 10.3248 2.82204 10.3248 2.82204C10.3248 2.82204 10.3248 2.82205 10.3248 2.82205C10.3248 2.82205 10.3248 2.82205 10.3248 2.82206C10.3248 2.82206 10.3248 2.82206 10.3248 2.82206C10.3248 2.82206 10.3248 2.82207 10.3248 2.82207C10.3248 2.82207 10.3248 2.82207 10.3248 2.82207C10.3248 2.82208 10.3248 2.82208 10.3248 2.82208C10.3248 2.82208 10.3248 2.82209 10.3248 2.82209C10.3248 2.82209 10.3248 2.82209 10.3248 2.82209C10.3248 2.8221 10.3248 2.8221 10.3248 2.8221C10.3248 2.8221 10.3248 2.82211 10.3248 2.82211C10.3248 2.82211 10.3248 2.82211 10.3248 2.82211C10.3248 2.82212 10.3248 2.82212 10.3248 2.82212C10.3248 2.82212 10.3248 2.82213 10.3248 2.82213C10.3248 2.82213 10.3248 2.82213 10.3248 2.82213C10.3248 2.82214 10.3248 2.82214 10.3248 2.82214C10.3248 2.82214 10.3248 2.82215 10.3248 2.82215C10.3248 2.82215 10.3248 2.82215 10.3248 2.82215C10.3248 2.82216 10.3248 2.82216 10.3248 2.82216C10.3248 2.82216 10.3248 2.82217 10.3248 2.82217C10.3248 2.82217 10.3248 2.82217 10.3248 2.82217C10.3248 2.82218 10.3248 2.82218 10.3248 2.82218C10.3248 2.82218 10.3248 2.82218 10.3248 2.82219C10.3248 2.82219 10.3248 2.82219 10.3248 2.82219C10.3248 2.8222 10.3248 2.8222 10.3248 2.8222C10.3248 2.8222 10.3248 2.8222 10.3248 2.82221C10.3248 2.82221 10.3248 2.82221 10.3248 2.82221C10.3248 2.82222 10.3248 2.82222 10.3248 2.82222C10.3248 2.82222 10.3248 2.82222 10.3248 2.82223C10.3248 2.82223 10.3248 2.82223 10.3248 2.82223C10.3248 2.82224 10.3248 2.82224 10.3248 2.82224C10.3248 2.82224 10.3248 2.82224 10.3248 2.82225C10.3248 2.82225 10.3248 2.82225 10.3248 2.82225C10.3248 2.82226 10.3248 2.82226 10.3248 2.82226C10.3248 2.82226 10.3248 2.82226 10.3248 2.82227C10.3248 2.82227 10.3248 2.82227 10.3248 2.82227C10.3248 2.82227 10.3248 2.82228 10.3248 2.82228C10.3248 2.82228 10.3248 2.82228 10.3248 2.82229C10.3248 2.82229 10.3248 2.82229 10.3248 2.82229C10.3248 2.82229 10.3248 2.8223 10.3248 2.8223C10.3248 2.8223 10.3248 2.8223 10.3248 2.82231C10.3248 2.82231 10.3248 2.82231 10.3248 2.82231C10.3248 2.82231 10.3248 2.82232 10.3248 2.82232C10.3248 2.82232 10.3248 2.82232 10.3248 2.82233C10.3248 2.82233 10.3248 2.82233 10.3248 2.82233C10.3248 2.82233 10.3248 2.82234 10.3248 2.82234C10.3248 2.82234 10.3248 2.82234 10.3248 2.82235C10.3248 2.82235 10.3248 2.82235 10.3248 2.82235C10.3248 2.82235 10.3248 2.82236 10.3248 2.82236C10.3248 2.82236 10.3248 2.82236 10.3248 2.82236C10.3248 2.82237 10.3248 2.82237 10.3248 2.82237C10.3248 2.82237 10.3248 2.82238 10.3248 2.82238C10.3248 2.82238 10.3248 2.82238 10.3248 2.82238C10.3248 2.82239 10.3248 2.82239 10.3248 2.82239C10.3248 2.82239 10.3248 2.8224 10.3248 2.8224C10.3248 2.8224 10.3248 2.8224 10.3248 2.8224C10.3248 2.82241 10.3248 2.82241 10.3248 2.82241C10.3248 2.82241 10.3248 2.82242 10.3248 2.82242C10.3248 2.82242 10.3248 2.82242 10.3248 2.82242C10.3248 2.82243 10.3248 2.82243 10.3248 2.82243C10.3248 2.82243 10.3248 2.82244 10.3248 2.82244C10.3248 2.82244 10.3248 2.82244 10.3248 2.82244C10.3248 2.82245 10.3248 2.82245 10.3248 2.82245C10.3248 2.82245 10.3248 2.82246 10.3248 2.82246C10.3248 2.82246 10.3248 2.82246 10.3248 2.82246C10.3248 2.82247 10.3248 2.82247 10.3248 2.82247C10.3248 2.82247 10.3248 2.82247 10.3248 2.82248C10.3248 2.82248 10.3248 2.82248 10.3248 2.82248C10.3248 2.82249 10.3248 2.82249 10.3248 2.82249C10.3248 2.82249 10.3248 2.82249 10.3248 2.8225C10.3248 2.8225 10.3248 2.8225 10.3248 2.8225C10.3248 2.82251 10.3248 2.82251 10.3248 2.82251C10.3248 2.82251 10.3248 2.82251 10.3248 2.82252C10.3248 2.82252 10.3248 2.82252 10.3248 2.82252C10.3248 2.82253 10.3248 2.82253 10.3248 2.82253C10.3248 2.82253 10.3248 2.82253 10.3248 2.82254C10.3248 2.82254 10.3248 2.82254 10.3248 2.82254C10.3248 2.82255 10.3248 2.82255 10.3248 2.82255C10.3248 2.82255 10.3248 2.82255 10.3248 2.82256C10.3248 2.82256 10.3248 2.82256 10.3248 2.82256C10.3248 2.82256 10.3248 2.82257 10.3248 2.82257C10.3248 2.82257 10.3248 2.82257 10.3248 2.82258C10.3248 2.82258 10.3248 2.82258 10.3248 2.82258C10.3248 2.82258 10.3248 2.82259 10.3248 2.82259C10.3248 2.82259 10.3248 2.82259 10.3248 2.8226C10.3248 2.8226 10.3248 2.8226 10.3248 2.8226C10.3248 2.8226 10.3248 2.82261 10.3248 2.82261C10.3248 2.82261 10.3248 2.82261 10.3248 2.82262C10.3248 2.82262 10.3248 2.82262 10.3248 2.82262C10.3248 2.82262 10.3248 2.82263 10.3248 2.82263C10.3248 2.82263 10.3248 2.82263 10.3248 2.82264C10.3248 2.82264 10.3248 2.82264 10.3248 2.82264C10.3248 2.82264 10.3248 2.82265 10.3248 2.82265C10.3248 2.82265 10.3248 2.82265 10.3248 2.82266C10.3248 2.82266 10.3248 2.82266 10.3248 2.82266C10.3248 2.82266 10.3248 2.82267 10.3248 2.82267C10.3248 2.82267 10.3248 2.82267 10.3248 2.82267C10.3248 2.82268 10.3248 2.82268 10.3248 2.82268C10.3248 2.82268 10.3248 2.82269 10.3248 2.82269C10.3248 2.82269 10.3248 2.82269 10.3248 2.82269C10.3248 2.8227 10.3248 2.8227 10.3248 2.8227C10.3248 2.8227 10.3248 2.82271 10.3248 2.82271C10.3248 2.82271 10.3248 2.82271 10.3248 2.82271C10.3248 2.82272 10.3248 2.82272 10.3248 2.82272C10.3248 2.82272 10.3248 2.82273 10.3248 2.82273C10.3248 2.82273 10.3248 2.82273 10.3248 2.82273C10.3248 2.82274 10.3248 2.82274 10.3248 2.82274C10.3248 2.82274 10.3248 2.82275 10.3248 2.82275C10.3248 2.82275 10.3248 2.82275 10.3248 2.82275C10.3248 2.82276 10.3248 2.82276 10.3248 2.82276C10.3248 2.82276 10.3248 2.82276 10.3248 2.82277C10.3248 2.82277 10.3248 2.82277 10.3248 2.82277C10.3248 2.82278 10.3248 2.82278 10.3248 2.82278C10.3248 2.82278 10.3248 2.82278 10.3248 2.82279C10.3248 2.82279 10.3248 2.82279 10.3248 2.82279C10.3248 2.8228 10.3248 2.8228 10.3248 2.8228C10.3248 2.8228 10.3248 2.8228 10.3248 2.82281C10.3248 2.82281 10.3248 2.82281 10.3248 2.82281C10.3248 2.82282 10.3248 2.82282 10.3248 2.82282C10.3248 2.82282 10.3248 2.82282 10.3248 2.82283C10.3248 2.82283 10.3248 2.82283 10.3248 2.82283C10.3248 2.82284 10.3248 2.82284 10.3248 2.82284C10.3248 2.82284 10.3248 2.82284 10.3248 2.82285C10.3248 2.82285 10.3248 2.82285 10.3248 2.82285C10.3248 2.82285 10.3248 2.82286 10.3248 2.82286C10.3248 2.82286 10.3248 2.82286 10.3248 2.82287C10.3248 2.82287 10.3248 2.82287 10.3248 2.82287C10.3248 2.82287 10.3248 2.82288 10.3248 2.82288C10.3248 2.82288 10.3248 2.82288 10.3248 2.82289C10.3248 2.82289 10.3248 2.82289 10.3248 2.82289C10.3248 2.82289 10.3248 2.8229 10.3248 2.8229C10.3248 2.8229 10.3248 2.8229 10.3248 2.82291C10.3248 2.82291 10.3248 2.82291 10.3248 2.82291C10.3248 2.82291 10.3248 2.82292 10.3248 2.82292C10.3248 2.82292 10.3248 2.82292 10.3248 2.82293C10.3248 2.82293 10.3248 2.82293 10.3248 2.82293C10.3248 2.82293 10.3248 2.82294 10.3248 2.82294C10.3248 2.82294 10.3248 2.82294 10.3248 2.82295C10.3248 2.82295 10.3248 2.82295 10.3248 2.82295C10.3248 2.82295 10.3248 2.82296 10.3248 2.82296C10.3248 2.82296 10.3248 2.82296 10.3248 2.82296C10.3248 2.82297 10.3248 2.82297 10.3248 2.82297C10.3248 2.82297 10.3248 2.82298 10.3248 2.82298C10.3248 2.82298 10.3248 2.82298 10.3248 2.82298C10.3248 2.82299 10.3248 2.82299 10.3248 2.82299C10.3248 2.82299 10.3248 2.823 10.3248 2.823C10.3248 2.823 10.3248 2.823 10.3248 2.823C10.3248 2.82301 10.3248 2.82301 10.3248 2.82301C10.3248 2.82301 10.3248 2.82302 10.3248 2.82302C10.3248 2.82302 10.3248 2.82302 10.3248 2.82302C10.3248 2.82303 10.3248 2.82303 10.3248 2.82303C10.3248 2.82303 10.3248 2.82304 10.3248 2.82304C10.3248 2.82304 10.3248 2.82304 10.3248 2.82304C10.3248 2.82305 10.3248 2.82305 10.3248 2.82305C10.3248 2.82305 10.3248 2.82305 10.3248 2.82306C10.3248 2.82306 10.3248 2.82306 10.3248 2.82306C10.3248 2.82307 10.3248 2.82307 10.3248 2.82307C10.3248 2.82307 10.3248 2.82307 10.3248 2.82308C10.3248 2.82308 10.3248 2.82308 10.3248 2.82308C10.3248 2.82309 10.3248 2.82309 10.3248 2.82309C10.3248 2.82309 10.3248 2.82309 10.3248 2.8231C10.3248 2.8231 10.3248 2.8231 10.3248 2.8231C10.3248 2.82311 10.3248 2.82311 10.3248 2.82311C10.3248 2.82311 10.3248 2.82311 10.3248 2.82312C10.3248 2.82312 10.3248 2.82312 10.3248 2.82312C10.3248 2.82313 10.3248 2.82313 10.3248 2.82313C10.3248 2.82313 10.3248 2.82313 10.3248 2.82314C10.3248 2.82314 10.3248 2.82314 10.3248 2.82314C10.3248 2.82314 10.3248 2.82315 10.3248 2.82315C10.3248 2.82315 10.3248 2.82315 10.3248 2.82316C10.3248 2.82316 10.3248 2.82316 10.3248 2.82316C10.3248 2.82316 10.3248 2.82317 10.3248 2.82317C10.3248 2.82317 10.3248 2.82317 10.3248 2.82318C10.3248 2.82318 10.3248 2.82318 10.3248 2.82318C10.3248 2.82318 10.3248 2.82319 10.3248 2.82319C10.3248 2.82319 10.3248 2.82319 10.3248 2.8232C10.3248 2.8232 10.3248 2.8232 10.3248 2.8232C10.3248 2.8232 10.3248 2.82321 10.3248 2.82321C10.3248 2.82321 10.3248 2.82321 10.3248 2.82322C10.3248 2.82322 10.3248 2.82322 10.3248 2.82322C10.3248 2.82322 10.3248 2.82323 10.3248 2.82323C10.3248 2.82323 10.3248 2.82323 10.3248 2.82324C10.3248 2.82324 10.3248 2.82324 10.3248 2.82324C10.3248 2.82324 10.3248 2.82325 10.3248 2.82325C10.3248 2.82325 10.3248 2.82325 10.3248 2.82325C10.3248 2.82326 10.3248 2.82326 10.3248 2.82326C10.3248 2.82326 10.3248 2.82327 10.3248 2.82327C10.3248 2.82327 10.3248 2.82327 10.3248 2.82327C10.3248 2.82328 10.3248 2.82328 10.3248 2.82328H13.3248C13.3248 2.82328 13.3248 2.82328 13.3248 2.82327C13.3248 2.82327 13.3248 2.82327 13.3248 2.82327C13.3248 2.82327 13.3248 2.82326 13.3248 2.82326C13.3248 2.82326 13.3248 2.82326 13.3248 2.82325C13.3248 2.82325 13.3248 2.82325 13.3248 2.82325C13.3248 2.82325 13.3248 2.82324 13.3248 2.82324C13.3248 2.82324 13.3248 2.82324 13.3248 2.82324C13.3248 2.82323 13.3248 2.82323 13.3248 2.82323C13.3248 2.82323 13.3248 2.82322 13.3248 2.82322C13.3248 2.82322 13.3248 2.82322 13.3248 2.82322C13.3248 2.82321 13.3248 2.82321 13.3248 2.82321C13.3248 2.82321 13.3248 2.8232 13.3248 2.8232C13.3248 2.8232 13.3248 2.8232 13.3248 2.8232C13.3248 2.82319 13.3248 2.82319 13.3248 2.82319C13.3248 2.82319 13.3248 2.82318 13.3248 2.82318C13.3248 2.82318 13.3248 2.82318 13.3248 2.82318C13.3248 2.82317 13.3248 2.82317 13.3248 2.82317C13.3248 2.82317 13.3248 2.82316 13.3248 2.82316C13.3248 2.82316 13.3248 2.82316 13.3248 2.82316C13.3248 2.82315 13.3248 2.82315 13.3248 2.82315C13.3248 2.82315 13.3248 2.82314 13.3248 2.82314C13.3248 2.82314 13.3248 2.82314 13.3248 2.82314C13.3248 2.82313 13.3248 2.82313 13.3248 2.82313C13.3248 2.82313 13.3248 2.82313 13.3248 2.82312C13.3248 2.82312 13.3248 2.82312 13.3248 2.82312C13.3248 2.82311 13.3248 2.82311 13.3248 2.82311C13.3248 2.82311 13.3248 2.82311 13.3248 2.8231C13.3248 2.8231 13.3248 2.8231 13.3248 2.8231C13.3248 2.82309 13.3248 2.82309 13.3248 2.82309C13.3248 2.82309 13.3248 2.82309 13.3248 2.82308C13.3248 2.82308 13.3248 2.82308 13.3248 2.82308C13.3248 2.82307 13.3248 2.82307 13.3248 2.82307C13.3248 2.82307 13.3248 2.82307 13.3248 2.82306C13.3248 2.82306 13.3248 2.82306 13.3248 2.82306C13.3248 2.82305 13.3248 2.82305 13.3248 2.82305C13.3248 2.82305 13.3248 2.82305 13.3248 2.82304C13.3248 2.82304 13.3248 2.82304 13.3248 2.82304C13.3248 2.82304 13.3248 2.82303 13.3248 2.82303C13.3248 2.82303 13.3248 2.82303 13.3248 2.82302C13.3248 2.82302 13.3248 2.82302 13.3248 2.82302C13.3248 2.82302 13.3248 2.82301 13.3248 2.82301C13.3248 2.82301 13.3248 2.82301 13.3248 2.823C13.3248 2.823 13.3248 2.823 13.3248 2.823C13.3248 2.823 13.3248 2.82299 13.3248 2.82299C13.3248 2.82299 13.3248 2.82299 13.3248 2.82298C13.3248 2.82298 13.3248 2.82298 13.3248 2.82298C13.3248 2.82298 13.3248 2.82297 13.3248 2.82297C13.3248 2.82297 13.3248 2.82297 13.3248 2.82296C13.3248 2.82296 13.3248 2.82296 13.3248 2.82296C13.3248 2.82296 13.3248 2.82295 13.3248 2.82295C13.3248 2.82295 13.3248 2.82295 13.3248 2.82295C13.3248 2.82294 13.3248 2.82294 13.3248 2.82294C13.3248 2.82294 13.3248 2.82293 13.3248 2.82293C13.3248 2.82293 13.3248 2.82293 13.3248 2.82293C13.3248 2.82292 13.3248 2.82292 13.3248 2.82292C13.3248 2.82292 13.3248 2.82291 13.3248 2.82291C13.3248 2.82291 13.3248 2.82291 13.3248 2.82291C13.3248 2.8229 13.3248 2.8229 13.3248 2.8229C13.3248 2.8229 13.3248 2.82289 13.3248 2.82289C13.3248 2.82289 13.3248 2.82289 13.3248 2.82289C13.3248 2.82288 13.3248 2.82288 13.3248 2.82288C13.3248 2.82288 13.3248 2.82287 13.3248 2.82287C13.3248 2.82287 13.3248 2.82287 13.3248 2.82287C13.3248 2.82286 13.3248 2.82286 13.3248 2.82286C13.3248 2.82286 13.3248 2.82285 13.3248 2.82285C13.3248 2.82285 13.3248 2.82285 13.3248 2.82285C13.3248 2.82284 13.3248 2.82284 13.3248 2.82284C13.3248 2.82284 13.3248 2.82284 13.3248 2.82283C13.3248 2.82283 13.3248 2.82283 13.3248 2.82283C13.3248 2.82282 13.3248 2.82282 13.3248 2.82282C13.3248 2.82282 13.3248 2.82282 13.3248 2.82281C13.3248 2.82281 13.3248 2.82281 13.3248 2.82281C13.3248 2.8228 13.3248 2.8228 13.3248 2.8228C13.3248 2.8228 13.3248 2.8228 13.3248 2.82279C13.3248 2.82279 13.3248 2.82279 13.3248 2.82279C13.3248 2.82278 13.3248 2.82278 13.3248 2.82278C13.3248 2.82278 13.3248 2.82278 13.3248 2.82277C13.3248 2.82277 13.3248 2.82277 13.3248 2.82277C13.3248 2.82276 13.3248 2.82276 13.3248 2.82276C13.3248 2.82276 13.3248 2.82276 13.3248 2.82275C13.3248 2.82275 13.3248 2.82275 13.3248 2.82275C13.3248 2.82275 13.3248 2.82274 13.3248 2.82274C13.3248 2.82274 13.3248 2.82274 13.3248 2.82273C13.3248 2.82273 13.3248 2.82273 13.3248 2.82273C13.3248 2.82273 13.3248 2.82272 13.3248 2.82272C13.3248 2.82272 13.3248 2.82272 13.3248 2.82271C13.3248 2.82271 13.3248 2.82271 13.3248 2.82271C13.3248 2.82271 13.3248 2.8227 13.3248 2.8227C13.3248 2.8227 13.3248 2.8227 13.3248 2.82269C13.3248 2.82269 13.3248 2.82269 13.3248 2.82269C13.3248 2.82269 13.3248 2.82268 13.3248 2.82268C13.3248 2.82268 13.3248 2.82268 13.3248 2.82267C13.3248 2.82267 13.3248 2.82267 13.3248 2.82267C13.3248 2.82267 13.3248 2.82266 13.3248 2.82266C13.3248 2.82266 13.3248 2.82266 13.3248 2.82266C13.3248 2.82265 13.3248 2.82265 13.3248 2.82265C13.3248 2.82265 13.3248 2.82264 13.3248 2.82264C13.3248 2.82264 13.3248 2.82264 13.3248 2.82264C13.3248 2.82263 13.3248 2.82263 13.3248 2.82263C13.3248 2.82263 13.3248 2.82262 13.3248 2.82262C13.3248 2.82262 13.3248 2.82262 13.3248 2.82262C13.3248 2.82261 13.3248 2.82261 13.3248 2.82261C13.3248 2.82261 13.3248 2.8226 13.3248 2.8226C13.3248 2.8226 13.3248 2.8226 13.3248 2.8226C13.3248 2.82259 13.3248 2.82259 13.3248 2.82259C13.3248 2.82259 13.3248 2.82258 13.3248 2.82258C13.3248 2.82258 13.3248 2.82258 13.3248 2.82258C13.3248 2.82257 13.3248 2.82257 13.3248 2.82257C13.3248 2.82257 13.3248 2.82256 13.3248 2.82256C13.3248 2.82256 13.3248 2.82256 13.3248 2.82256C13.3248 2.82255 13.3248 2.82255 13.3248 2.82255C13.3248 2.82255 13.3248 2.82255 13.3248 2.82254C13.3248 2.82254 13.3248 2.82254 13.3248 2.82254C13.3248 2.82253 13.3248 2.82253 13.3248 2.82253C13.3248 2.82253 13.3248 2.82253 13.3248 2.82252C13.3248 2.82252 13.3248 2.82252 13.3248 2.82252C13.3248 2.82251 13.3248 2.82251 13.3248 2.82251C13.3248 2.82251 13.3248 2.82251 13.3248 2.8225C13.3248 2.8225 13.3248 2.8225 13.3248 2.8225C13.3248 2.82249 13.3248 2.82249 13.3248 2.82249C13.3248 2.82249 13.3248 2.82249 13.3248 2.82248C13.3248 2.82248 13.3248 2.82248 13.3248 2.82248C13.3248 2.82247 13.3248 2.82247 13.3248 2.82247C13.3248 2.82247 13.3248 2.82247 13.3248 2.82246C13.3248 2.82246 13.3248 2.82246 13.3248 2.82246C13.3248 2.82246 13.3248 2.82245 13.3248 2.82245C13.3248 2.82245 13.3248 2.82245 13.3248 2.82244C13.3248 2.82244 13.3248 2.82244 13.3248 2.82244C13.3248 2.82244 13.3248 2.82243 13.3248 2.82243C13.3248 2.82243 13.3248 2.82243 13.3248 2.82242C13.3248 2.82242 13.3248 2.82242 13.3248 2.82242C13.3248 2.82242 13.3248 2.82241 13.3248 2.82241C13.3248 2.82241 13.3248 2.82241 13.3248 2.8224C13.3248 2.8224 13.3248 2.8224 13.3248 2.8224C13.3248 2.8224 13.3248 2.82239 13.3248 2.82239C13.3248 2.82239 13.3248 2.82239 13.3248 2.82238C13.3248 2.82238 13.3248 2.82238 13.3248 2.82238C13.3248 2.82238 13.3248 2.82237 13.3248 2.82237C13.3248 2.82237 13.3248 2.82237 13.3248 2.82236C13.3248 2.82236 13.3248 2.82236 13.3248 2.82236C13.3248 2.82236 13.3248 2.82235 13.3248 2.82235C13.3248 2.82235 13.3248 2.82235 13.3248 2.82235C13.3248 2.82234 13.3248 2.82234 13.3248 2.82234C13.3248 2.82234 13.3248 2.82233 13.3248 2.82233C13.3248 2.82233 13.3248 2.82233 13.3248 2.82233C13.3248 2.82232 13.3248 2.82232 13.3248 2.82232C13.3248 2.82232 13.3248 2.82231 13.3248 2.82231C13.3248 2.82231 13.3248 2.82231 13.3248 2.82231C13.3248 2.8223 13.3248 2.8223 13.3248 2.8223C13.3248 2.8223 13.3248 2.82229 13.3248 2.82229C13.3248 2.82229 13.3248 2.82229 13.3248 2.82229C13.3248 2.82228 13.3248 2.82228 13.3248 2.82228C13.3248 2.82228 13.3248 2.82227 13.3248 2.82227C13.3248 2.82227 13.3248 2.82227 13.3248 2.82227C13.3248 2.82226 13.3248 2.82226 13.3248 2.82226C13.3248 2.82226 13.3248 2.82226 13.3248 2.82225C13.3248 2.82225 13.3248 2.82225 13.3248 2.82225C13.3248 2.82224 13.3248 2.82224 13.3248 2.82224C13.3248 2.82224 13.3248 2.82224 13.3248 2.82223C13.3248 2.82223 13.3248 2.82223 13.3248 2.82223C13.3248 2.82222 13.3248 2.82222 13.3248 2.82222C13.3248 2.82222 13.3248 2.82222 13.3248 2.82221C13.3248 2.82221 13.3248 2.82221 13.3248 2.82221C13.3248 2.8222 13.3248 2.8222 13.3248 2.8222C13.3248 2.8222 13.3248 2.8222 13.3248 2.82219C13.3248 2.82219 13.3248 2.82219 13.3248 2.82219C13.3248 2.82218 13.3248 2.82218 13.3248 2.82218C13.3248 2.82218 13.3248 2.82218 13.3248 2.82217C13.3248 2.82217 13.3248 2.82217 13.3248 2.82217C13.3248 2.82217 13.3248 2.82216 13.3248 2.82216C13.3248 2.82216 13.3248 2.82216 13.3248 2.82215C13.3248 2.82215 13.3248 2.82215 13.3248 2.82215C13.3248 2.82215 13.3248 2.82214 13.3248 2.82214C13.3248 2.82214 13.3248 2.82214 13.3248 2.82213C13.3248 2.82213 13.3248 2.82213 13.3248 2.82213C13.3248 2.82213 13.3248 2.82212 13.3248 2.82212C13.3248 2.82212 13.3248 2.82212 13.3248 2.82211C13.3248 2.82211 13.3248 2.82211 13.3248 2.82211C13.3248 2.82211 13.3248 2.8221 13.3248 2.8221C13.3248 2.8221 13.3248 2.8221 13.3248 2.82209C13.3248 2.82209 13.3248 2.82209 13.3248 2.82209C13.3248 2.82209 13.3248 2.82208 13.3248 2.82208C13.3248 2.82208 13.3248 2.82208 13.3248 2.82207C13.3248 2.82207 13.3248 2.82207 13.3248 2.82207C13.3248 2.82207 13.3248 2.82206 13.3248 2.82206C13.3248 2.82206 13.3248 2.82206 13.3248 2.82206C13.3248 2.82205 13.3248 2.82205 13.3248 2.82205C13.3248 2.82205 13.3248 2.82204 13.3248 2.82204C13.3248 2.82204 13.3248 2.82204 13.3248 2.82204C13.3248 2.82203 13.3248 2.82203 13.3248 2.82203C13.3248 2.82203 13.3248 2.82202 13.3248 2.82202C13.3248 2.82202 13.3248 2.82202 13.3248 2.82202C13.3248 2.82201 13.3248 2.82201 13.3248 2.82201C13.3248 2.82201 13.3248 2.822 13.3248 2.822C13.3248 2.822 13.3248 2.822 13.3248 2.822C13.3248 2.82199 13.3248 2.82199 13.3248 2.82199C13.3248 2.82199 13.3248 2.82198 13.3248 2.82198C13.3248 2.82198 13.3248 2.82198 13.3248 2.82198C13.3248 2.82197 13.3248 2.82197 13.3248 2.82197C13.3248 2.82197 13.3248 2.82197 13.3248 2.82196C13.3248 2.82196 13.3248 2.82196 13.3248 2.82196C13.3248 2.82195 13.3248 2.82195 13.3248 2.82195C13.3248 2.82195 13.3248 2.82195 13.3248 2.82194C13.3248 2.82194 13.3248 2.82194 13.3248 2.82194C13.3248 2.82193 13.3248 2.82193 13.3248 2.82193C13.3248 2.82193 13.3248 2.82193 13.3248 2.82192C13.3248 2.82192 13.3248 2.82192 13.3248 2.82192C13.3248 2.82191 13.3248 2.82191 13.3248 2.82191C13.3248 2.82191 13.3248 2.82191 13.3248 2.8219C13.3248 2.8219 13.3248 2.8219 13.3248 2.8219C13.3248 2.82189 13.3248 2.82189 13.3248 2.82189C13.3248 2.82189 13.3248 2.82189 13.3248 2.82188C13.3248 2.82188 13.3248 2.82188 13.3248 2.82188C13.3248 2.82187 13.3248 2.82187 13.3248 2.82187C13.3248 2.82187 13.3248 2.82187 13.3248 2.82186C13.3248 2.82186 13.3248 2.82186 13.3248 2.82186C13.3248 2.82186 13.3248 2.82185 13.3248 2.82185C13.3248 2.82185 13.3248 2.82185 13.3248 2.82184C13.3248 2.82184 13.3248 2.82184 13.3248 2.82184C13.3248 2.82184 13.3248 2.82183 13.3248 2.82183C13.3248 2.82183 13.3248 2.82183 13.3248 2.82182C13.3248 2.82182 13.3248 2.82182 13.3248 2.82182C13.3248 2.82182 13.3248 2.82181 13.3248 2.82181C13.3248 2.82181 13.3248 2.82181 13.3248 2.8218C13.3248 2.8218 13.3248 2.8218 13.3248 2.8218C13.3248 2.8218 13.3248 2.82179 13.3248 2.82179C13.3248 2.82179 13.3248 2.82179 13.3248 2.82178C13.3248 2.82178 13.3248 2.82178 13.3248 2.82178C13.3248 2.82178 13.3248 2.82177 13.3248 2.82177C13.3248 2.82177 13.3248 2.82177 13.3248 2.82177C13.3248 2.82176 13.3248 2.82176 13.3248 2.82176C13.3248 2.82176 13.3248 2.82175 13.3248 2.82175C13.3248 2.82175 13.3248 2.82175 13.3248 2.82175C13.3248 2.82174 13.3248 2.82174 13.3248 2.82174C13.3248 2.82174 13.3248 2.82173 13.3248 2.82173C13.3248 2.82173 13.3248 2.82173 13.3248 2.82173C13.3248 2.82172 13.3248 2.82172 13.3248 2.82172C13.3248 2.82172 13.3248 2.82171 13.3248 2.82171C13.3248 2.82171 13.3248 2.82171 13.3248 2.82171C13.3248 2.8217 13.3248 2.8217 13.3248 2.8217C13.3248 2.8217 13.3248 2.82169 13.3248 2.82169C13.3248 2.82169 13.3248 2.82169 13.3248 2.82169C13.3248 2.82168 13.3248 2.82168 13.3248 2.82168C13.3248 2.82168 13.3248 2.82168 13.3248 2.82167C13.3248 2.82167 13.3248 2.82167 13.3248 2.82167C13.3248 2.82166 13.3248 2.82166 13.3248 2.82166C13.3248 2.82166 13.3248 2.82166 13.3248 2.82165C13.3248 2.82165 13.3248 2.82165 13.3248 2.82165C13.3248 2.82164 13.3248 2.82164 13.3248 2.82164C13.3248 2.82164 13.3248 2.82164 13.3248 2.82163C13.3248 2.82163 13.3248 2.82163 13.3248 2.82163C13.3248 2.82162 13.3248 2.82162 13.3248 2.82162C13.3248 2.82162 13.3248 2.82162 13.3248 2.82161C13.3248 2.82161 13.3248 2.82161 13.3248 2.82161C13.3248 2.8216 13.3248 2.8216 13.3248 2.8216C13.3248 2.8216 13.3248 2.8216 13.3248 2.82159C13.3248 2.82159 13.3248 2.82159 13.3248 2.82159C13.3248 2.82158 13.3248 2.82158 13.3248 2.82158C13.3248 2.82158 13.3248 2.82158 13.3248 2.82157C13.3248 2.82157 13.3248 2.82157 13.3248 2.82157C13.3248 2.82157 13.3248 2.82156 13.3248 2.82156C13.3248 2.82156 13.3248 2.82156 13.3248 2.82155C13.3248 2.82155 13.3248 2.82155 13.3248 2.82155C13.3248 2.82155 13.3248 2.82154 13.3248 2.82154C13.3248 2.82154 13.3248 2.82154 13.3248 2.82153C13.3248 2.82153 13.3248 2.82153 13.3248 2.82153C13.3248 2.82153 13.3248 2.82152 13.3248 2.82152C13.3248 2.82152 13.3248 2.82152 13.3248 2.82151C13.3248 2.82151 13.3248 2.82151 13.3248 2.82151C13.3248 2.82151 13.3248 2.8215 13.3248 2.8215C13.3248 2.8215 13.3248 2.8215 13.3248 2.82149C13.3248 2.82149 13.3248 2.82149 13.3248 2.82149C13.3248 2.82149 13.3248 2.82148 13.3248 2.82148C13.3248 2.82148 13.3248 2.82148 13.3248 2.82148C13.3248 2.82147 13.3248 2.82147 13.3248 2.82147C13.3248 2.82147 13.3248 2.82146 13.3248 2.82146C13.3248 2.82146 13.3248 2.82146 13.3248 2.82146C13.3248 2.82145 13.3248 2.82145 13.3248 2.82145C13.3248 2.82145 13.3248 2.82144 13.3248 2.82144C13.3248 2.82144 13.3248 2.82144 13.3248 2.82144C13.3248 2.82143 13.3248 2.82143 13.3248 2.82143C13.3248 2.82143 13.3248 2.82142 13.3248 2.82142C13.3248 2.82142 13.3248 2.82142 13.3248 2.82142C13.3248 2.82141 13.3248 2.82141 13.3248 2.82141C13.3248 2.82141 13.3248 2.8214 13.3248 2.8214C13.3248 2.8214 13.3248 2.8214 13.3248 2.8214C13.3248 2.82139 13.3248 2.82139 13.3248 2.82139C13.3248 2.82139 13.3248 2.82138 13.3248 2.82138C13.3248 2.82138 13.3248 2.82138 13.3248 2.82138C13.3248 2.82137 13.3248 2.82137 13.3248 2.82137C13.3248 2.82137 13.3248 2.82137 13.3248 2.82136C13.3248 2.82136 13.3248 2.82136 13.3248 2.82136C13.3248 2.82135 13.3248 2.82135 13.3248 2.82135C13.3248 2.82135 13.3248 2.82135 13.3248 2.82134C13.3248 2.82134 13.3248 2.82134 13.3248 2.82134C13.3248 2.82133 13.3248 2.82133 13.3248 2.82133C13.3248 2.82133 13.3248 2.82133 13.3248 2.82132C13.3248 2.82132 13.3248 2.82132 13.3248 2.82132C13.3248 2.82131 13.3248 2.82131 13.3248 2.82131C13.3248 2.82131 13.3248 2.82131 13.3248 2.8213C13.3248 2.8213 13.3248 2.8213 13.3248 2.8213C13.3248 2.82129 13.3248 2.82129 13.3248 2.82129C13.3248 2.82129 13.3248 2.82129 13.3248 2.82128C13.3248 2.82128 13.3248 2.82128 13.3248 2.82128C13.3248 2.82128 13.3248 2.82127 13.3248 2.82127C13.3248 2.82127 13.3248 2.82127 13.3248 2.82126C13.3248 2.82126 13.3248 2.82126 13.3248 2.82126C13.3248 2.82126 13.3248 2.82125 13.3248 2.82125C13.3248 2.82125 13.3248 2.82125 13.3248 2.82124C13.3248 2.82124 13.3248 2.82124 13.3248 2.82124C13.3248 2.82124 13.3248 2.82123 13.3248 2.82123C13.3248 2.82123 13.3248 2.82123 13.3248 2.82122C13.3248 2.82122 13.3248 2.82122 13.3248 2.82122C13.3248 2.82122 13.3248 2.82121 13.3248 2.82121C13.3248 2.82121 13.3248 2.82121 13.3248 2.8212C13.3248 2.8212 13.3248 2.8212 13.3248 2.8212C13.3248 2.8212 13.3248 2.82119 13.3248 2.82119C13.3248 2.82119 13.3248 2.82119 13.3248 2.82119C13.3248 2.82118 13.3248 2.82118 13.3248 2.82118C13.3248 2.82118 13.3248 2.82117 13.3248 2.82117C13.3248 2.82117 13.3248 2.82117 13.3248 2.82117C13.3248 2.82116 13.3248 2.82116 13.3248 2.82116C13.3248 2.82116 13.3248 2.82115 13.3248 2.82115C13.3248 2.82115 13.3248 2.82115 13.3248 2.82115C13.3248 2.82114 13.3248 2.82114 13.3248 2.82114C13.3248 2.82114 13.3248 2.82113 13.3248 2.82113C13.3248 2.82113 13.3248 2.82113 13.3248 2.82113C13.3248 2.82112 13.3248 2.82112 13.3248 2.82112C13.3248 2.82112 13.3248 2.82111 13.3248 2.82111C13.3248 2.82111 13.3248 2.82111 13.3248 2.82111C13.3248 2.8211 13.3248 2.8211 13.3248 2.8211C13.3248 2.8211 13.3248 2.82109 13.3248 2.82109C13.3248 2.82109 13.3248 2.82109 13.3248 2.82109C13.3248 2.82108 13.3248 2.82108 13.3248 2.82108C13.3248 2.82108 13.3248 2.82108 13.3248 2.82107C13.3248 2.82107 13.3248 2.82107 13.3248 2.82107C13.3248 2.82106 13.3248 2.82106 13.3248 2.82106C13.3248 2.82106 13.3248 2.82106 13.3248 2.82105C13.3248 2.82105 13.3248 2.82105 13.3248 2.82105C13.3248 2.82104 13.3248 2.82104 13.3248 2.82104C13.3248 2.82104 13.3248 2.82104 13.3248 2.82103C13.3248 2.82103 13.3248 2.82103 13.3248 2.82103C13.3248 2.82102 13.3248 2.82102 13.3248 2.82102C13.3248 2.82102 13.3248 2.82102 13.3248 2.82101C13.3248 2.82101 13.3248 2.82101 13.3248 2.82101C13.3248 2.821 13.3248 2.821 13.3248 2.821C13.3248 2.821 13.3248 2.821 13.3248 2.82099C13.3248 2.82099 13.3248 2.82099 13.3248 2.82099C13.3248 2.82099 13.3248 2.82098 13.3248 2.82098C13.3248 2.82098 13.3248 2.82098 13.3248 2.82097C13.3248 2.82097 13.3248 2.82097 13.3248 2.82097C13.3248 2.82097 13.3248 2.82096 13.3248 2.82096C13.3248 2.82096 13.3248 2.82096 13.3248 2.82095C13.3248 2.82095 13.3248 2.82095 13.3248 2.82095C13.3248 2.82095 13.3248 2.82094 13.3248 2.82094C13.3248 2.82094 13.3248 2.82094 13.3248 2.82093C13.3248 2.82093 13.3248 2.82093 13.3248 2.82093C13.3248 2.82093 13.3248 2.82092 13.3248 2.82092C13.3248 2.82092 13.3248 2.82092 13.3248 2.82091C13.3248 2.82091 13.3248 2.82091 13.3248 2.82091C13.3248 2.82091 13.3248 2.8209 13.3248 2.8209C13.3248 2.8209 13.3248 2.8209 13.3248 2.82089C13.3248 2.82089 13.3248 2.82089 13.3248 2.82089C13.3248 2.82089 13.3248 2.82088 13.3248 2.82088C13.3248 2.82088 13.3248 2.82088 13.3248 2.82088C13.3248 2.82087 13.3248 2.82087 13.3248 2.82087C13.3248 2.82087 13.3248 2.82086 13.3248 2.82086C13.3248 2.82086 13.3248 2.82086 13.3248 2.82086C13.3248 2.82085 13.3248 2.82085 13.3248 2.82085C13.3248 2.82085 13.3248 2.82084 13.3248 2.82084C13.3248 2.82084 13.3248 2.82084 13.3248 2.82084C13.3248 2.82083 13.3248 2.82083 13.3248 2.82083C13.3248 2.82083 13.3248 2.82082 13.3248 2.82082C13.3248 2.82082 13.3248 2.82082 13.3248 2.82082C13.3248 2.82081 13.3248 2.82081 13.3248 2.82081C13.3248 2.82081 13.3248 2.8208 13.3248 2.8208C13.3248 2.8208 13.3248 2.8208 13.3248 2.8208C13.3248 2.82079 13.3248 2.82079 13.3248 2.82079C13.3248 2.82079 13.3248 2.82079 13.3248 2.82078C13.3248 2.82078 13.3248 2.82078 13.3248 2.82078C13.3248 2.82077 13.3248 2.82077 13.3248 2.82077C13.3248 2.82077 13.3248 2.82077 13.3248 2.82076C13.3248 2.82076 13.3248 2.82076 13.3248 2.82076C13.3248 2.82075 13.3248 2.82075 13.3248 2.82075C13.3248 2.82075 13.3248 2.82075 13.3248 2.82074C13.3248 2.82074 13.3248 2.82074 13.3248 2.82074C13.3248 2.82073 13.3248 2.82073 13.3248 2.82073C13.3248 2.82073 13.3248 2.82073 13.3248 2.82072C13.3248 2.82072 13.3248 2.82072 13.3248 2.82072C13.3248 2.82071 13.3248 2.82071 13.3248 2.82071C13.3248 2.82071 13.3248 2.82071 13.3248 2.8207C13.3248 2.8207 13.3248 2.8207 13.3248 2.8207C13.3248 2.8207 13.3248 2.82069 13.3248 2.82069C13.3248 2.82069 13.3248 2.82069 13.3248 2.82068C13.3248 2.82068 13.3248 2.82068 13.3248 2.82068C13.3248 2.82068 13.3248 2.82067 13.3248 2.82067C13.3248 2.82067 13.3248 2.82067 13.3248 2.82066C13.3248 2.82066 13.3248 2.82066 13.3248 2.82066C13.3248 2.82066 13.3248 2.82065 13.3248 2.82065C13.3248 2.82065 13.3248 2.82065 13.3248 2.82064C13.3248 2.82064 13.3248 2.82064 13.3248 2.82064C13.3248 2.82064 13.3248 2.82063 13.3248 2.82063C13.3248 2.82063 13.3248 2.82063 13.3248 2.82062C13.3248 2.82062 13.3248 2.82062 13.3248 2.82062C13.3248 2.82062 13.3248 2.82061 13.3248 2.82061C13.3248 2.82061 13.3248 2.82061 13.3248 2.8206C13.3248 2.8206 13.3248 2.8206 13.3248 2.8206C13.3248 2.8206 13.3248 2.82059 13.3248 2.82059C13.3248 2.82059 13.3248 2.82059 13.3248 2.82059C13.3248 2.82058 13.3248 2.82058 13.3248 2.82058C13.3248 2.82058 13.3248 2.82057 13.3248 2.82057C13.3248 2.82057 13.3248 2.82057 13.3248 2.82057C13.3248 2.82056 13.3248 2.82056 13.3248 2.82056C13.3248 2.82056 13.3248 2.82055 13.3248 2.82055C13.3248 2.82055 13.3248 2.82055 13.3248 2.82055C13.3248 2.82054 13.3248 2.82054 13.3248 2.82054C13.3248 2.82054 13.3248 2.82053 13.3248 2.82053C13.3248 2.82053 13.3248 2.82053 13.3248 2.82053C13.3248 2.82052 13.3248 2.82052 13.3248 2.82052C13.3248 2.82052 13.3248 2.82051 13.3248 2.82051C13.3248 2.82051 13.3248 2.82051 13.3248 2.82051C13.3248 2.8205 13.3248 2.8205 13.3248 2.8205C13.3248 2.8205 13.3248 2.8205 13.3248 2.82049C13.3248 2.82049 13.3248 2.82049 13.3248 2.82049C13.3248 2.82048 13.3248 2.82048 13.3248 2.82048C13.3248 2.82048 13.3248 2.82048 13.3248 2.82047C13.3248 2.82047 13.3248 2.82047 13.3248 2.82047C13.3248 2.82046 13.3248 2.82046 13.3248 2.82046C13.3248 2.82046 13.3248 2.82046 13.3248 2.82045C13.3248 2.82045 13.3248 2.82045 13.3248 2.82045C13.3248 2.82044 13.3248 2.82044 13.3248 2.82044C13.3248 2.82044 13.3248 2.82044 13.3248 2.82043C13.3248 2.82043 13.3248 2.82043 13.3248 2.82043C13.3248 2.82042 13.3248 2.82042 13.3248 2.82042C13.3248 2.82042 13.3248 2.82042 13.3248 2.82041C13.3248 2.82041 13.3248 2.82041 13.3248 2.82041C13.3248 2.8204 13.3248 2.8204 13.3248 2.8204C13.3248 2.8204 13.3248 2.8204 13.3248 2.82039C13.3248 2.82039 13.3248 2.82039 13.3248 2.82039C13.3248 2.82039 13.3248 2.82038 13.3248 2.82038C13.3248 2.82038 13.3248 2.82038 13.3248 2.82037C13.3248 2.82037 13.3248 2.82037 13.3248 2.82037C13.3248 2.82037 13.3248 2.82036 13.3248 2.82036C13.3248 2.82036 13.3248 2.82036 13.3248 2.82035C13.3248 2.82035 13.3248 2.82035 13.3248 2.82035C13.3248 2.82035 13.3248 2.82034 13.3248 2.82034C13.3248 2.82034 13.3248 2.82034 13.3248 2.82033C13.3248 2.82033 13.3248 2.82033 13.3248 2.82033C13.3248 2.82033 13.3248 2.82032 13.3248 2.82032C13.3248 2.82032 13.3248 2.82032 13.3248 2.82031C13.3248 2.82031 13.3248 2.82031 13.3248 2.82031C13.3248 2.82031 13.3248 2.8203 13.3248 2.8203C13.3248 2.8203 13.3248 2.8203 13.3248 2.8203C13.3248 2.82029 13.3248 2.82029 13.3248 2.82029C13.3248 2.82029 13.3248 2.82028 13.3248 2.82028C13.3248 2.82028 13.3248 2.82028 13.3248 2.82028C13.3248 2.82027 13.3248 2.82027 13.3248 2.82027C13.3248 2.82027 13.3248 2.82026 13.3248 2.82026C13.3248 2.82026 13.3248 2.82026 13.3248 2.82026C13.3248 2.82025 13.3248 2.82025 13.3248 2.82025C13.3248 2.82025 13.3248 2.82024 13.3248 2.82024C13.3248 2.82024 13.3248 2.82024 13.3248 2.82024C13.3248 2.82023 13.3248 2.82023 13.3248 2.82023C13.3248 2.82023 13.3248 2.82022 13.3248 2.82022C13.3248 2.82022 13.3248 2.82022 13.3248 2.82022C13.3248 2.82021 13.3248 2.82021 13.3248 2.82021C13.3248 2.82021 13.3248 2.82021 13.3248 2.8202C13.3248 2.8202 13.3248 2.8202 13.3248 2.8202C13.3248 2.82019 13.3248 2.82019 13.3248 2.82019C13.3248 2.82019 13.3248 2.82019 13.3248 2.82018C13.3248 2.82018 13.3248 2.82018 13.3248 2.82018C13.3248 2.82017 13.3248 2.82017 13.3248 2.82017C13.3248 2.82017 13.3248 2.82017 13.3248 2.82016C13.3248 2.82016 13.3248 2.82016 13.3248 2.82016C13.3248 2.82015 13.3248 2.82015 13.3248 2.82015C13.3248 2.82015 13.3248 2.82015 13.3248 2.82014C13.3248 2.82014 13.3248 2.82014 13.3248 2.82014C13.3248 2.82013 13.3248 2.82013 13.3248 2.82013C13.3248 2.82013 13.3248 2.82013 13.3248 2.82012C13.3248 2.82012 13.3248 2.82012 13.3248 2.82012C13.3248 2.82011 13.3248 2.82011 13.3248 2.82011C13.3248 2.82011 13.3248 2.82011 13.3248 2.8201C13.3248 2.8201 13.3248 2.8201 13.3248 2.8201C13.3248 2.8201 13.3248 2.82009 13.3248 2.82009C13.3248 2.82009 13.3248 2.82009 13.3248 2.82008C13.3248 2.82008 13.3248 2.82008 13.3248 2.82008C13.3248 2.82008 13.3248 2.82007 13.3248 2.82007C13.3248 2.82007 13.3248 2.82007 13.3248 2.82006C13.3248 2.82006 13.3248 2.82006 13.3248 2.82006C13.3248 2.82006 13.3248 2.82005 13.3248 2.82005C13.3248 2.82005 13.3248 2.82005 13.3248 2.82004C13.3248 2.82004 13.3248 2.82004 13.3248 2.82004C13.3248 2.82004 13.3248 2.82003 13.3248 2.82003C13.3248 2.82003 13.3248 2.82003 13.3248 2.82002C13.3248 2.82002 13.3248 2.82002 13.3248 2.82002C13.3248 2.82002 13.3248 2.82001 13.3248 2.82001C13.3248 2.82001 13.3248 2.82001 13.3248 2.82001C13.3248 2.82 13.3248 2.82 13.3248 2.82C13.3248 2.82 13.3248 2.81999 13.3248 2.81999C13.3248 2.81999 13.3248 2.81999 13.3248 2.81999C13.3248 2.81998 13.3248 2.81998 13.3248 2.81998C13.3248 2.81998 13.3248 2.81997 13.3248 2.81997C13.3248 2.81997 13.3248 2.81997 13.3248 2.81997C13.3248 2.81996 13.3248 2.81996 13.3248 2.81996C13.3248 2.81996 13.3248 2.81995 13.3248 2.81995C13.3248 2.81995 13.3248 2.81995 13.3248 2.81995C13.3248 2.81994 13.3248 2.81994 13.3248 2.81994C13.3248 2.81994 13.3248 2.81993 13.3248 2.81993C13.3248 2.81993 13.3248 2.81993 13.3248 2.81993C13.3248 2.81992 13.3248 2.81992 13.3248 2.81992C13.3248 2.81992 13.3248 2.81991 13.3248 2.81991C13.3248 2.81991 13.3248 2.81991 13.3248 2.81991H10.3248ZM10.5767 3.65533C10.5446 3.60722 10.5176 3.56065 10.4948 3.51695C10.4722 3.47349 10.4545 3.4343 10.4409 3.40172C10.4275 3.3696 10.4178 3.34304 10.4119 3.32628C10.4089 3.31784 10.4065 3.31099 10.4051 3.30684C10.4038 3.30308 10.4028 3.29986 10.403 3.30051C10.403 3.30052 10.403 3.30058 10.403 3.30066C10.4031 3.30074 10.4031 3.30086 10.4032 3.30101C10.4033 3.3013 10.4034 3.30177 10.4036 3.30233C10.404 3.30345 10.4046 3.30526 10.4053 3.30748C10.4068 3.31183 10.4092 3.31889 10.4123 3.32755C10.4184 3.34473 10.4283 3.37171 10.4418 3.40425C10.4556 3.43726 10.4735 3.47687 10.4963 3.52074C10.5193 3.56487 10.5466 3.61186 10.5789 3.66039L13.0751 1.99629C13.1072 2.0444 13.1342 2.09098 13.157 2.13468C13.1796 2.17813 13.1973 2.21732 13.2109 2.24991C13.2243 2.28202 13.234 2.30859 13.2399 2.32534C13.2429 2.33379 13.2453 2.34063 13.2467 2.34478C13.2479 2.34855 13.249 2.35177 13.2488 2.35111C13.2488 2.35111 13.2488 2.35104 13.2488 2.35097C13.2487 2.35089 13.2487 2.35077 13.2486 2.35062C13.2485 2.35033 13.2484 2.34986 13.2482 2.34929C13.2478 2.34817 13.2472 2.34637 13.2465 2.34415C13.245 2.33979 13.2426 2.33273 13.2395 2.32408C13.2334 2.3069 13.2235 2.27991 13.2099 2.24737C13.1962 2.21437 13.1783 2.17476 13.1554 2.13088C13.1325 2.08676 13.1052 2.03976 13.0728 1.99123L10.5767 3.65533ZM10.4854 3.49916C10.493 3.51448 10.4562 3.44407 10.4241 3.35835C10.3895 3.26629 10.3293 3.07965 10.3293 2.83509H13.3293C13.3293 2.58829 13.2684 2.39939 13.2331 2.30508C13.2143 2.25487 13.1965 2.21561 13.1861 2.19341C13.1806 2.18181 13.1761 2.17247 13.1733 2.16681C13.1718 2.16391 13.1707 2.16154 13.1699 2.16005C13.1695 2.1593 13.1692 2.15867 13.169 2.15826C13.1688 2.15789 13.1687 2.15755 13.1687 2.15752L10.4854 3.49916ZM10.4586 3.4443C10.4377 3.39729 10.4272 3.34757 10.425 3.30812C10.423 3.27419 10.4283 3.26855 10.4205 3.3049C10.4122 3.34355 10.3943 3.40693 10.3563 3.50946C10.3175 3.61424 10.2701 3.72781 10.2056 3.88138L12.9714 5.04343C13.0822 4.7798 13.2616 4.36519 13.3542 3.93228C13.4562 3.45507 13.4791 2.85379 13.2 2.22589L10.4586 3.4443ZM10.2052 3.88238C9.99247 4.38975 9.37431 5.68304 9.94339 7.05692L12.715 5.90889C12.7132 5.9045 12.6943 5.87399 12.7215 5.73986C12.7557 5.57097 12.8308 5.37875 12.9718 5.04243L10.2052 3.88238ZM9.92919 7.02137C9.92806 7.01843 9.92691 7.01538 9.92844 7.01943C9.92926 7.0216 9.93206 7.02902 9.93547 7.03777C9.94197 7.0545 9.95614 7.09038 9.97627 7.13399L12.7001 5.87682C12.7169 5.91312 12.728 5.94141 12.7315 5.95054C12.7335 5.9555 12.7348 5.95911 12.7342 5.95752C12.7342 5.95752 12.7334 5.95526 12.7327 5.95356C12.7319 5.9515 12.7307 5.94827 12.7292 5.94444L9.92919 7.02137Z" fill="white" mask="url(#path-4-inside-2_156_2186)"/>
</g>
<path id="Vector_4" d="M8.97266 3.85481C8.97379 3.85875 8.97379 3.86213 8.97266 3.86606C8.97885 3.88856 8.98278 3.91219 8.98278 3.93638C8.98278 4.09219 8.85622 4.21931 8.70041 4.21931C8.59502 4.21931 8.50395 4.16047 8.45549 4.0747L8.70041 3.97057L8.78082 3.93638L8.89774 3.88666L8.95683 3.86154L8.97266 3.85481ZM8.97266 3.85481C8.9673 3.8422 8.9622 3.82955 8.95736 3.81687L8.91471 3.83457L8.8957 3.84407L8.74297 3.92044L8.95297 3.86044L8.97266 3.85481ZM8.39814 3.93638C8.40663 3.96126 8.41582 3.98616 8.42572 4.01108L8.4501 4.00412V3.93638V3.71676V3.54157C8.4037 3.57097 8.36292 3.6083 8.32959 3.6516C8.33114 3.66231 8.33281 3.67303 8.33458 3.68375C8.34848 3.76767 8.36931 3.85191 8.39814 3.93638Z" fill="white" stroke="white" stroke-width="1.5"/>
</g>
</g>
<defs>
<clipPath id="clip0_156_2186">
<rect width="18" height="18" fill="white"/>
</clipPath>
</defs>
</svg>
