<svg width="20" height="20" viewBox="0 0 20 20" fill="none" xmlns="http://www.w3.org/2000/svg">
<g id="Layer_1" clip-path="url(#clip0_156_1296)">
<g id="food_1_">
<path id="Vector" d="M18.4375 13.125H16.7556C16.7275 12.9756 16.6931 12.8294 16.6556 12.6838L19.655 11.1844C19.9638 11.03 20.0881 10.6544 19.9344 10.3456C19.7794 10.0369 19.4056 9.91313 19.0956 10.0663L16.2344 11.4962C15.1431 9.14125 12.7625 7.5 10 7.5C6.63625 7.5 3.83437 9.93 3.24437 13.125H1.5625C0.70125 13.125 0 13.8256 0 14.6875C0 14.9938 0.1125 15.2894 0.315625 15.5181L2.5 17.9756V18.4375C2.5 19.2994 3.20125 20 4.0625 20H15.9375C16.7994 20 17.5 19.2994 17.5 18.4375V17.9756L19.6838 15.5181C19.8875 15.2894 20 14.9938 20 14.6875C20 13.8256 19.2994 13.125 18.4375 13.125ZM16.1244 13.125H15.7731L16.0844 12.9688C16.0963 13.0212 16.1131 13.0719 16.1244 13.125ZM10 8.125C12.5181 8.125 14.6875 9.625 15.6763 11.7756L15.1194 12.0537C14.2344 10.1069 12.2781 8.75 10 8.75C7.32375 8.75 5.08813 10.6206 4.51875 13.125H3.87625C4.45688 10.2756 6.98187 8.125 10 8.125ZM12.86 13.125C12.3769 12.0231 11.2781 11.25 10 11.25C8.72188 11.25 7.62375 12.0231 7.14 13.125H6.46875C6.985 11.6712 8.37062 10.625 10 10.625C11.5406 10.625 12.8675 11.56 13.4425 12.8919L12.9775 13.125H12.86ZM10 12.5C9.44812 12.5 8.95625 12.7444 8.6125 13.125H7.8475C8.28125 12.3819 9.07875 11.875 10 11.875C10.9206 11.875 11.7188 12.3819 12.1519 13.125H11.3863C11.0437 12.7444 10.5519 12.5 10 12.5ZM10 10C8.02188 10 6.34875 11.32 5.80937 13.125H5.16437C5.72187 10.9725 7.675 9.375 10 9.375C12.0288 9.375 13.7769 10.5925 14.5594 12.3337L14.0013 12.6125C13.3212 11.0769 11.7844 10 10 10ZM16.25 17.5V18.4375C16.25 18.61 16.1094 18.75 15.9375 18.75H4.0625C3.89 18.75 3.75 18.61 3.75 18.4375V17.5L1.25 14.6875C1.25 14.515 1.39 14.375 1.5625 14.375H3.125H3.75H4.375H5H5.625H6.25H6.875H7.5H8.125H11.875H12.5H13.125H13.75H14.375H15H15.625H16.25H16.875H18.4375C18.6094 14.375 18.75 14.515 18.75 14.6875L16.25 17.5Z" fill="black"/>
<path id="Vector_2" d="M4.9867 7.32C4.98857 7.32375 4.98982 7.3275 4.9917 7.33125H4.99295C5.04482 7.43125 5.14857 7.5 5.26982 7.5C5.44295 7.5 5.58357 7.35875 5.58357 7.18563C5.58357 7.15875 5.5792 7.1325 5.57232 7.1075C5.57357 7.10312 5.57357 7.09938 5.57232 7.095C5.33795 6.54375 5.56045 5.93875 5.8342 5.2875C6.12982 4.58375 6.4467 3.8025 6.09795 3.00813C6.05357 2.89375 5.94295 2.8125 5.81295 2.8125C5.64357 2.8125 5.5067 2.95 5.5067 3.11875C5.5067 3.15625 5.5142 3.19125 5.5267 3.22437C5.5267 3.22562 5.5267 3.22687 5.52732 3.22812C5.52795 3.23 5.52857 3.23187 5.5292 3.23375C5.53045 3.23625 5.53107 3.23875 5.53232 3.24125C5.78482 3.80937 5.54045 4.39188 5.26482 5.04938C4.97357 5.7425 4.65107 6.51063 4.97545 7.29375C4.9792 7.30312 4.98232 7.31125 4.9867 7.32Z" fill="black"/>
<path id="Vector_3" d="M12.595 7.22953C12.5975 7.23328 12.5987 7.23703 12.6 7.24078H12.6012C12.6537 7.34078 12.7575 7.41016 12.8781 7.41016C13.0512 7.41016 13.1931 7.26891 13.1931 7.09578C13.1931 7.06891 13.1881 7.04266 13.1818 7.01766C13.1831 7.01328 13.1831 7.00953 13.1806 7.00516C12.9475 6.45391 13.1693 5.84891 13.4431 5.19766C13.7387 4.49391 14.0556 3.71266 13.7068 2.91828C13.6618 2.80328 13.5518 2.72266 13.4212 2.72266C13.2525 2.72266 13.115 2.86016 13.115 3.02891C13.115 3.06641 13.1237 3.10141 13.1356 3.13453C13.1356 3.13578 13.1356 3.13703 13.1356 3.13828C13.1368 3.14016 13.1368 3.14203 13.1381 3.14391C13.1393 3.14641 13.1406 3.14891 13.1406 3.15141C13.3931 3.71953 13.1493 4.30203 12.8731 4.95953C12.5825 5.65266 12.2606 6.42141 12.585 7.20453C12.5881 7.21266 12.5912 7.22141 12.595 7.22953Z" fill="black"/>
<path id="Vector_4" d="M9.38617 4.5075C9.38804 4.51125 9.38929 4.515 9.39117 4.51875H9.39242C9.44492 4.61875 9.54867 4.68813 9.66929 4.68813C9.84242 4.68813 9.98304 4.54688 9.98304 4.37375C9.98304 4.34688 9.97867 4.32063 9.97179 4.29563C9.97304 4.29125 9.97304 4.2875 9.97179 4.28312C9.73742 3.73188 9.95992 3.12687 10.2337 2.47563C10.5293 1.77187 10.8462 0.990625 10.4974 0.19625C10.4524 0.08125 10.3424 0 10.2118 0C10.043 0 9.90554 0.1375 9.90554 0.30625C9.90554 0.34375 9.91304 0.37875 9.92554 0.411875C9.92554 0.413125 9.92554 0.414375 9.92617 0.415625C9.92679 0.4175 9.92742 0.419375 9.92804 0.42125C9.92867 0.42375 9.92992 0.42625 9.93054 0.42875C10.183 0.996875 9.93867 1.57938 9.66304 2.23688C9.37179 2.93 9.04929 3.69875 9.37429 4.48187C9.37867 4.49062 9.38179 4.49875 9.38617 4.5075Z" fill="black"/>
</g>
</g>
<defs>
<clipPath id="clip0_156_1296">
<rect width="20" height="20" fill="white"/>
</clipPath>
</defs>
</svg>
