<svg width="20" height="20" viewBox="0 0 20 20" fill="none" xmlns="http://www.w3.org/2000/svg">
<path opacity="0.7" d="M18.3359 12.7077V7.29102C18.3337 5.79985 17.7404 4.37039 16.686 3.31597C15.6316 2.26156 14.2021 1.66822 12.7109 1.66602L7.29427 1.66602C5.80311 1.66822 4.37364 2.26156 3.31923 3.31597C2.26481 4.37039 1.67148 5.79985 1.66927 7.29102V12.7077C1.67148 14.1988 2.26481 15.6283 3.31923 16.6827C4.37364 17.7371 5.80311 18.3305 7.29427 18.3327H12.7109C14.2021 18.3305 15.6316 17.7371 16.686 16.6827C17.7404 15.6283 18.3337 14.1988 18.3359 12.7077ZM6.91927 12.0827C6.84157 12.1598 6.74944 12.2209 6.64813 12.2625C6.54682 12.304 6.43832 12.3252 6.32882 12.3248C6.21933 12.3244 6.11098 12.3025 6.00997 12.2602C5.90896 12.218 5.81726 12.1562 5.7401 12.0785C5.66295 12.0008 5.60186 11.9087 5.56032 11.8074C5.51877 11.7061 5.49759 11.5976 5.49797 11.4881C5.49836 11.3786 5.52031 11.2702 5.56257 11.1692C5.60483 11.0682 5.66657 10.9765 5.74427 10.8993L8.7526 7.91602C8.91458 7.74646 9.11052 7.613 9.3276 7.52435C9.75725 7.34702 10.2396 7.34702 10.6693 7.52435C10.8826 7.61157 11.0756 7.74209 11.2359 7.90768L14.3026 10.9743C14.3898 11.0491 14.4607 11.141 14.5107 11.2444C14.5607 11.3478 14.5888 11.4604 14.5933 11.5751C14.5977 11.6899 14.5784 11.8043 14.5365 11.9113C14.4946 12.0182 14.431 12.1153 14.3498 12.1966C14.2686 12.2778 14.1715 12.3413 14.0645 12.3832C13.9576 12.4251 13.8432 12.4444 13.7284 12.44C13.6136 12.4356 13.501 12.4075 13.3976 12.3575C13.2942 12.3074 13.2023 12.2366 13.1276 12.1493L10.0609 9.08268H9.96094L6.91927 12.0827Z"/>
</svg>
