<svg width="24" height="24" viewBox="0 0 24 24" fill="none" xmlns="http://www.w3.org/2000/svg">
<g id="Layer_1">
<g id="Group">
<path id="Vector" fill-rule="evenodd" clip-rule="evenodd" d="M19.6344 4.5355C17.6654 2.56425 15.0469 1.47819 12.2571 1.47705C6.50889 1.47705 1.83043 6.15513 1.82818 11.9051C1.82738 13.7432 2.30761 15.5373 3.22027 17.1189L1.74072 22.523L7.26924 21.0728C8.79247 21.9036 10.5075 22.3416 12.253 22.3421H12.2572C12.2569 22.3421 12.2575 22.3421 12.2572 22.3421C18.0048 22.3421 22.6837 17.6636 22.6861 11.9135C22.6871 9.12684 21.6033 6.50667 19.6344 4.5355ZM12.2572 20.5809H12.2536C10.6983 20.5803 9.17275 20.1624 7.84188 19.3726L7.52539 19.1848L4.24469 20.0454L5.1204 16.8467L4.91428 16.5187C4.04662 15.1387 3.58836 13.5436 3.58904 11.9057C3.5909 7.12655 7.47946 3.23841 12.2607 3.23841C14.5759 3.23913 16.7523 4.14197 18.3888 5.7804C20.0254 7.41882 20.9261 9.59666 20.9252 11.9128C20.9232 16.6923 17.0348 20.5809 12.2572 20.5809Z"/>
<path id="Vector_2" fill-rule="evenodd" clip-rule="evenodd" d="M17.0118 14.0889C16.7512 13.9585 15.47 13.3282 15.2312 13.2412C14.9924 13.1542 14.8186 13.1107 14.6449 13.3716C14.4712 13.6324 13.9718 14.2194 13.8198 14.3933C13.6678 14.5672 13.5158 14.589 13.2553 14.4585C12.9947 14.3281 12.1551 14.0529 11.1598 13.1652C10.3851 12.4742 9.86211 11.6209 9.71005 11.3599C9.55807 11.0991 9.69388 10.9581 9.82435 10.8282C9.94157 10.7114 10.085 10.5238 10.2153 10.3716C10.3455 10.2195 10.3889 10.1107 10.4758 9.93695C10.5627 9.76301 10.5193 9.61082 10.4541 9.48043C10.3889 9.35 9.86783 8.06739 9.6507 7.54555C9.43912 7.03751 9.22432 7.10634 9.06434 7.09825C8.91258 7.09068 8.73863 7.08911 8.56494 7.08911C8.39124 7.08911 8.10888 7.15435 7.87008 7.41516C7.63123 7.67606 6.95801 8.30653 6.95801 9.58902C6.95801 10.8717 7.89175 12.1108 8.02205 12.2846C8.15231 12.4586 9.85953 15.0906 12.4735 16.2193C13.0952 16.4878 13.5806 16.6481 13.959 16.7682C14.5833 16.9666 15.1514 16.9385 15.6003 16.8714C16.101 16.7966 17.1421 16.2411 17.3592 15.6325C17.5764 15.0237 17.5764 14.5019 17.5112 14.3933C17.4461 14.2846 17.2723 14.2194 17.0118 14.0889Z"/>
</g>
</g>
</svg>
