<svg width="24" height="25" viewBox="0 0 24 25" fill="none" xmlns="http://www.w3.org/2000/svg">
<g filter="url(#filter0_d_155_874)">
<path fill-rule="evenodd" clip-rule="evenodd" d="M6.8999 2.8999C7.39696 2.8999 7.7999 3.30285 7.7999 3.7999V5.2999H16.1999V3.7999C16.1999 3.30285 16.6028 2.8999 17.0999 2.8999C17.597 2.8999 17.9999 3.30285 17.9999 3.7999V5.2999H18.2999C20.1224 5.2999 21.5999 6.77736 21.5999 8.5999V18.7999C21.5999 20.6224 20.1224 22.0999 18.2999 22.0999H5.6999C3.87736 22.0999 2.3999 20.6224 2.3999 18.7999V8.5999C2.3999 6.77736 3.87736 5.2999 5.6999 5.2999H5.9999V3.7999C5.9999 3.30285 6.40285 2.8999 6.8999 2.8999ZM5.6999 9.4999C4.87148 9.4999 4.1999 10.1715 4.1999 10.9999V18.7999C4.1999 19.6283 4.87148 20.2999 5.6999 20.2999H18.2999C19.1283 20.2999 19.7999 19.6283 19.7999 18.7999V10.9999C19.7999 10.1715 19.1283 9.4999 18.2999 9.4999H5.6999Z" fill="white"/>
</g>
<defs>
<filter id="filter0_d_155_874" x="0" y="0.5" width="24" height="25" filterUnits="userSpaceOnUse" color-interpolation-filters="sRGB">
<feFlood flood-opacity="0" result="BackgroundImageFix"/>
<feColorMatrix in="SourceAlpha" type="matrix" values="0 0 0 0 0 0 0 0 0 0 0 0 0 0 0 0 0 0 127 0" result="hardAlpha"/>
<feOffset dy="1"/>
<feComposite in2="hardAlpha" operator="out"/>
<feColorMatrix type="matrix" values="0 0 0 0 0 0 0 0 0 0 0 0 0 0 0 0 0 0 1 0"/>
<feBlend mode="normal" in2="BackgroundImageFix" result="effect1_dropShadow_155_874"/>
<feBlend mode="normal" in="SourceGraphic" in2="effect1_dropShadow_155_874" result="shape"/>
</filter>
</defs>
</svg>
