<svg width="32" height="33" viewBox="0 0 32 33" fill="none" xmlns="http://www.w3.org/2000/svg">
<rect x="0.5" y="0.960449" width="31" height="31" rx="15.5" stroke="#F5F5F5"/>
<path d="M11.44 13.3429C12.24 13.3429 12.88 12.6923 12.88 11.9017C12.88 11.111 12.23 10.4604 11.44 10.4604C10.65 10.4604 10 11.111 10 11.9017C10 12.6923 10.65 13.3429 11.44 13.3429ZM14.25 14.4338V22.4604H16.73V18.4971C16.73 17.4463 16.93 16.4354 18.22 16.4354C19.51 16.4354 19.51 17.6364 19.51 18.5572V22.4604H22V18.0568C22 15.895 21.54 14.2336 19.02 14.2336C17.81 14.2336 17 14.8941 16.67 15.5247H16.64V14.4238H14.26L14.25 14.4338ZM10.2 14.4338H12.69V22.4604H10.2V14.4338Z" fill="black" fill-opacity="0.7"/>
</svg>
