<svg width="32" height="33" viewBox="0 0 32 33" fill="none" xmlns="http://www.w3.org/2000/svg">
<path d="M22 11.8999V8.8999C22 7.24305 20.6569 5.8999 19 5.8999H8C6.34315 5.8999 5 7.24305 5 8.8999V19.8999C5 21.5568 6.34315 22.8999 8 22.8999H11M22 11.8999H24C25.6569 11.8999 27 13.243 27 14.8999V24.8999C27 26.5568 25.6569 27.8999 24 27.8999H14C12.3431 27.8999 11 26.5568 11 24.8999V22.8999M22 11.8999H14C12.3431 11.8999 11 13.243 11 14.8999V22.8999" stroke="black" stroke-width="1.5" stroke-linecap="round" stroke-linejoin="round"/>
</svg>
