<svg width="32" height="33" viewBox="0 0 32 33" fill="none" xmlns="http://www.w3.org/2000/svg">
<rect x="0.5" y="0.960449" width="31" height="31" rx="15.5" stroke="#F5F5F5"/>
<path d="M18.2328 12.1604C17.7263 12.1603 17.2399 12.359 16.8783 12.7138C16.5168 13.0687 16.3089 13.5512 16.2995 14.0577L16.2808 15.1077C16.2798 15.1641 16.2669 15.2197 16.2429 15.2708C16.2189 15.3219 16.1843 15.3673 16.1415 15.4041C16.0987 15.4408 16.0486 15.4681 15.9945 15.4842C15.9403 15.5002 15.8834 15.5046 15.8275 15.497L14.7862 15.355C13.4175 15.1684 12.1055 14.5384 10.8462 13.4897C10.4482 15.6964 11.2262 17.225 13.1015 18.4044L14.2662 19.1364C14.3214 19.1711 14.3673 19.2188 14.3999 19.2754C14.4324 19.332 14.4506 19.3956 14.453 19.4609C14.4553 19.5261 14.4416 19.5909 14.4131 19.6496C14.3846 19.7083 14.3422 19.7591 14.2895 19.7977L13.2282 20.5737C13.8595 20.6137 14.4588 20.5857 14.9562 20.487C18.1015 19.859 20.1928 17.4924 20.1928 13.5884C20.1928 13.2697 19.5175 12.1604 18.2328 12.1604ZM14.9662 14.0337C14.9778 13.3911 15.1788 12.7661 15.5439 12.2372C15.909 11.7082 16.422 11.2987 17.0188 11.0599C17.6155 10.8212 18.2694 10.7637 18.8987 10.8949C19.5279 11.026 20.1045 11.3398 20.5562 11.797C21.0302 11.7937 21.4335 11.9137 22.3348 11.3664C22.1122 12.4597 22.0015 12.935 21.5262 13.5877C21.5262 18.6817 18.3948 21.1597 15.2168 21.7937C13.0388 22.2284 9.87017 21.5144 8.9635 20.5657C9.4255 20.5304 11.3055 20.3284 12.3922 19.5324C11.4722 18.9257 7.8135 16.7724 10.2182 10.9844C11.3468 12.3024 12.4915 13.199 13.6515 13.6757C14.4228 13.9924 14.6128 13.9857 14.9668 14.0344L14.9662 14.0337Z" fill="black" fill-opacity="0.7"/>
</svg>
