<svg width="32" height="33" viewBox="0 0 32 33" fill="none" xmlns="http://www.w3.org/2000/svg">
<path d="M23.9999 25.8588C24.3299 25.886 24.6637 25.8999 25.0008 25.8999C26.3985 25.8999 27.7405 25.6609 28.988 25.2216C28.9965 25.1155 29.0008 25.0082 29.0008 24.8999C29.0008 22.6908 27.2099 20.8999 25.0008 20.8999C24.1639 20.8999 23.3871 21.1569 22.745 21.5962M23.9999 25.8588C24 25.8725 24 25.8862 24 25.8999C24 26.1999 23.9835 26.496 23.9513 26.7874C21.609 28.1314 18.8942 28.8999 16 28.8999C13.1058 28.8999 10.391 28.1314 8.04868 26.7874C8.01651 26.496 8 26.1999 8 25.8999C8 25.8862 8.00003 25.8726 8.0001 25.8589M23.9999 25.8588C23.992 24.29 23.5326 22.8281 22.745 21.5962M22.745 21.5962C21.3238 19.3735 18.834 17.8999 16 17.8999C13.1664 17.8999 10.6769 19.3731 9.25559 21.5954M9.25559 21.5954C8.61364 21.1566 7.83728 20.8999 7.00098 20.8999C4.79184 20.8999 3.00098 22.6908 3.00098 24.8999C3.00098 25.0082 3.00528 25.1155 3.01372 25.2216C4.26124 25.6609 5.6032 25.8999 7.00098 25.8999C7.33743 25.8999 7.67065 25.8861 8.0001 25.8589M9.25559 21.5954C8.46761 22.8275 8.00798 24.2898 8.0001 25.8589M20 9.8999C20 12.109 18.2091 13.8999 16 13.8999C13.7909 13.8999 12 12.109 12 9.8999C12 7.69076 13.7909 5.8999 16 5.8999C18.2091 5.8999 20 7.69076 20 9.8999ZM28 13.8999C28 15.5568 26.6569 16.8999 25 16.8999C23.3431 16.8999 22 15.5568 22 13.8999C22 12.243 23.3431 10.8999 25 10.8999C26.6569 10.8999 28 12.243 28 13.8999ZM10 13.8999C10 15.5568 8.65685 16.8999 7 16.8999C5.34315 16.8999 4 15.5568 4 13.8999C4 12.243 5.34315 10.8999 7 10.8999C8.65685 10.8999 10 12.243 10 13.8999Z" stroke="black" stroke-width="1.5" stroke-linecap="round" stroke-linejoin="round"/>
</svg>
