<svg width="161" height="44" viewBox="0 0 161 44" fill="none" xmlns="http://www.w3.org/2000/svg">
<rect width="161" height="44" rx="22" fill="#F5F5F5"/>
<path d="M30.75 16.75C30.75 16.3358 30.4142 16 30 16C29.5858 16 29.25 16.3358 29.25 16.75V21.25H24.75C24.3358 21.25 24 21.5858 24 22C24 22.4142 24.3358 22.75 24.75 22.75L29.25 22.75V27.25C29.25 27.6642 29.5858 28 30 28C30.4142 28 30.75 27.6642 30.75 27.25V22.75L35.25 22.75C35.6642 22.75 36 22.4142 36 22C36 21.5858 35.6642 21.25 35.25 21.25H30.75V16.75Z" fill="black"/>
<path d="M54.958 24.638H51.066L50.422 26.5H48.364L51.878 16.714H54.16L57.674 26.5H55.602L54.958 24.638ZM54.426 23.07L53.012 18.982L51.598 23.07H54.426ZM58.4835 22.594C58.4835 21.81 58.6375 21.1147 58.9455 20.508C59.2628 19.9013 59.6922 19.4347 60.2335 19.108C60.7748 18.7813 61.3768 18.618 62.0395 18.618C62.5435 18.618 63.0242 18.73 63.4815 18.954C63.9388 19.1687 64.3028 19.458 64.5735 19.822V16.14H66.5615V26.5H64.5735V25.352C64.3308 25.7347 63.9902 26.0427 63.5515 26.276C63.1128 26.5093 62.6042 26.626 62.0255 26.626C61.3722 26.626 60.7748 26.458 60.2335 26.122C59.6922 25.786 59.2628 25.3147 58.9455 24.708C58.6375 24.092 58.4835 23.3873 58.4835 22.594ZM64.5875 22.622C64.5875 22.146 64.4942 21.74 64.3075 21.404C64.1208 21.0587 63.8688 20.7973 63.5515 20.62C63.2342 20.4333 62.8935 20.34 62.5295 20.34C62.1655 20.34 61.8295 20.4287 61.5215 20.606C61.2135 20.7833 60.9615 21.0447 60.7655 21.39C60.5788 21.726 60.4855 22.1273 60.4855 22.594C60.4855 23.0607 60.5788 23.4713 60.7655 23.826C60.9615 24.1713 61.2135 24.4373 61.5215 24.624C61.8388 24.8107 62.1748 24.904 62.5295 24.904C62.8935 24.904 63.2342 24.8153 63.5515 24.638C63.8688 24.4513 64.1208 24.19 64.3075 23.854C64.4942 23.5087 64.5875 23.098 64.5875 22.622ZM67.9718 22.594C67.9718 21.81 68.1258 21.1147 68.4338 20.508C68.7511 19.9013 69.1804 19.4347 69.7218 19.108C70.2631 18.7813 70.8651 18.618 71.5278 18.618C72.0318 18.618 72.5124 18.73 72.9698 18.954C73.4271 19.1687 73.7911 19.458 74.0618 19.822V16.14H76.0498V26.5H74.0618V25.352C73.8191 25.7347 73.4784 26.0427 73.0398 26.276C72.6011 26.5093 72.0924 26.626 71.5138 26.626C70.8604 26.626 70.2631 26.458 69.7218 26.122C69.1804 25.786 68.7511 25.3147 68.4338 24.708C68.1258 24.092 67.9718 23.3873 67.9718 22.594ZM74.0758 22.622C74.0758 22.146 73.9824 21.74 73.7958 21.404C73.6091 21.0587 73.3571 20.7973 73.0398 20.62C72.7224 20.4333 72.3818 20.34 72.0178 20.34C71.6538 20.34 71.3178 20.4287 71.0098 20.606C70.7018 20.7833 70.4498 21.0447 70.2538 21.39C70.0671 21.726 69.9738 22.1273 69.9738 22.594C69.9738 23.0607 70.0671 23.4713 70.2538 23.826C70.4498 24.1713 70.7018 24.4373 71.0098 24.624C71.3271 24.8107 71.6631 24.904 72.0178 24.904C72.3818 24.904 72.7224 24.8153 73.0398 24.638C73.3571 24.4513 73.6091 24.19 73.7958 23.854C73.9824 23.5087 74.0758 23.098 74.0758 22.622ZM83.582 20.354V24.106C83.582 24.3673 83.6427 24.5587 83.764 24.68C83.8947 24.792 84.1093 24.848 84.408 24.848H85.318V26.5H84.086C82.434 26.5 81.608 25.6973 81.608 24.092V20.354H80.684V18.744H81.608V16.826H83.582V18.744H85.318V20.354H83.582ZM88.6877 19.948C88.9397 19.5373 89.2664 19.2153 89.6677 18.982C90.0784 18.7487 90.5451 18.632 91.0677 18.632V20.69H90.5497C89.9337 20.69 89.4671 20.8347 89.1497 21.124C88.8417 21.4133 88.6877 21.9173 88.6877 22.636V26.5H86.7277V18.744H88.6877V19.948ZM91.8839 22.594C91.8839 21.81 92.0379 21.1147 92.3459 20.508C92.6632 19.9013 93.0879 19.4347 93.6199 19.108C94.1612 18.7813 94.7632 18.618 95.4259 18.618C96.0045 18.618 96.5085 18.7347 96.9379 18.968C97.3765 19.2013 97.7265 19.4953 97.9879 19.85V18.744H99.9619V26.5H97.9879V25.366C97.7359 25.73 97.3859 26.0333 96.9379 26.276C96.4992 26.5093 95.9905 26.626 95.4119 26.626C94.7585 26.626 94.1612 26.458 93.6199 26.122C93.0879 25.786 92.6632 25.3147 92.3459 24.708C92.0379 24.092 91.8839 23.3873 91.8839 22.594ZM97.9879 22.622C97.9879 22.146 97.8945 21.74 97.7079 21.404C97.5212 21.0587 97.2692 20.7973 96.9519 20.62C96.6345 20.4333 96.2939 20.34 95.9299 20.34C95.5659 20.34 95.2299 20.4287 94.9219 20.606C94.6139 20.7833 94.3619 21.0447 94.1659 21.39C93.9792 21.726 93.8859 22.1273 93.8859 22.594C93.8859 23.0607 93.9792 23.4713 94.1659 23.826C94.3619 24.1713 94.6139 24.4373 94.9219 24.624C95.2392 24.8107 95.5752 24.904 95.9299 24.904C96.2939 24.904 96.6345 24.8153 96.9519 24.638C97.2692 24.4513 97.5212 24.19 97.7079 23.854C97.8945 23.5087 97.9879 23.098 97.9879 22.622ZM105.11 24.694L107.07 18.744H109.156L106.286 26.5H103.906L101.05 18.744H103.15L105.11 24.694ZM117.467 22.454C117.467 22.734 117.448 22.986 117.411 23.21H111.741C111.788 23.77 111.984 24.2087 112.329 24.526C112.674 24.8433 113.099 25.002 113.603 25.002C114.331 25.002 114.849 24.6893 115.157 24.064H117.271C117.047 24.8107 116.618 25.4267 115.983 25.912C115.348 26.388 114.569 26.626 113.645 26.626C112.898 26.626 112.226 26.4627 111.629 26.136C111.041 25.8 110.579 25.3287 110.243 24.722C109.916 24.1153 109.753 23.4153 109.753 22.622C109.753 21.8193 109.916 21.1147 110.243 20.508C110.57 19.9013 111.027 19.4347 111.615 19.108C112.203 18.7813 112.88 18.618 113.645 18.618C114.382 18.618 115.04 18.7767 115.619 19.094C116.207 19.4113 116.66 19.864 116.977 20.452C117.304 21.0307 117.467 21.698 117.467 22.454ZM115.437 21.894C115.428 21.39 115.246 20.9887 114.891 20.69C114.536 20.382 114.102 20.228 113.589 20.228C113.104 20.228 112.693 20.3773 112.357 20.676C112.03 20.9653 111.83 21.3713 111.755 21.894H115.437ZM120.858 16.14V26.5H118.898V16.14H120.858ZM130.004 22.454C130.004 22.734 129.985 22.986 129.948 23.21H124.278C124.325 23.77 124.521 24.2087 124.866 24.526C125.211 24.8433 125.636 25.002 126.14 25.002C126.868 25.002 127.386 24.6893 127.694 24.064H129.808C129.584 24.8107 129.155 25.4267 128.52 25.912C127.885 26.388 127.106 26.626 126.182 26.626C125.435 26.626 124.763 26.4627 124.166 26.136C123.578 25.8 123.116 25.3287 122.78 24.722C122.453 24.1153 122.29 23.4153 122.29 22.622C122.29 21.8193 122.453 21.1147 122.78 20.508C123.107 19.9013 123.564 19.4347 124.152 19.108C124.74 18.7813 125.417 18.618 126.182 18.618C126.919 18.618 127.577 18.7767 128.156 19.094C128.744 19.4113 129.197 19.864 129.514 20.452C129.841 21.0307 130.004 21.698 130.004 22.454ZM127.974 21.894C127.965 21.39 127.783 20.9887 127.428 20.69C127.073 20.382 126.639 20.228 126.126 20.228C125.641 20.228 125.23 20.3773 124.894 20.676C124.567 20.9653 124.367 21.3713 124.292 21.894H127.974ZM133.395 19.948C133.647 19.5373 133.973 19.2153 134.375 18.982C134.785 18.7487 135.252 18.632 135.775 18.632V20.69H135.257C134.641 20.69 134.174 20.8347 133.857 21.124C133.549 21.4133 133.395 21.9173 133.395 22.636V26.5H131.435V18.744H133.395V19.948Z" fill="black"/>
</svg>
