<svg width="17" height="17" viewBox="0 0 17 17" fill="none" xmlns="http://www.w3.org/2000/svg">
<g id="Frame">
<g id="Group" opacity="0.8">
<path id="Vector" d="M14.4154 6.41732H2.58204C2.58224 5.81521 2.58539 5.42593 2.62417 5.13765C2.66179 4.85799 2.72016 4.78785 2.75303 4.75498C2.78589 4.72211 2.85604 4.66374 3.13569 4.62612C3.43706 4.58558 3.84881 4.58398 4.4987 4.58398H12.4987C13.1486 4.58398 13.5603 4.58558 13.8617 4.62612C14.1414 4.66374 14.2115 4.72211 14.2444 4.75498C14.2772 4.78785 14.3356 4.85799 14.3732 5.13765C14.412 5.42593 14.4152 5.81521 14.4154 6.41732ZM14.4097 6.76754C14.4097 6.76756 14.4098 6.76724 14.4099 6.7666C14.4098 6.76665 14.4098 6.7667 14.4098 6.76675C14.4098 6.76726 14.4097 6.76752 14.4097 6.76754ZM2.75303 14.2463C2.72016 14.2135 2.66179 14.1433 2.62417 13.8637C2.58363 13.5623 2.58203 13.1505 2.58203 12.5006V9.25065H14.4154V12.5006C14.4154 13.1505 14.4138 13.5623 14.3732 13.8637C14.3356 14.1433 14.2772 14.2135 14.2444 14.2463C14.2115 14.2792 14.1414 14.3376 13.8617 14.3752C13.5603 14.4157 13.1486 14.4173 12.4987 14.4173H4.4987C3.84881 14.4173 3.43706 14.4157 3.13569 14.3752C2.85604 14.3376 2.78589 14.2792 2.75303 14.2463Z"  stroke-width="1.5"/>
<g id="Vector_2">
<path d="M5.16406 2.5V4.5V2.5ZM11.8307 2.5V4.5V2.5Z" />
<path d="M5.16406 2.5V4.5M11.8307 2.5V4.5" stroke-width="1.5" stroke-linecap="round"/>
</g>
</g>
</g>
</svg>
