<svg width="32" height="33" viewBox="0 0 32 33" fill="none" xmlns="http://www.w3.org/2000/svg">
<g id="Img">
<path id="Vector" d="M32 16.9199C32 8.08337 24.8366 0.919922 16 0.919922C7.16344 0.919922 0 8.08337 0 16.9199C0 25.7565 7.16344 32.9199 16 32.9199C24.8366 32.9199 32 25.7565 32 16.9199Z" fill="#093D2E"/>
<path id="Vector_2" d="M10.375 22.1699V11.6699C10.375 11.4628 10.5429 11.2949 10.75 11.2949H21.25C21.4571 11.2949 21.625 11.4628 21.625 11.6699V22.1699C21.625 22.377 21.4571 22.5449 21.25 22.5449H10.75C10.5429 22.5449 10.375 22.377 10.375 22.1699Z" stroke="#B1FF85" stroke-width="0.9375"/>
<path id="Vector_3" d="M17.875 14.7324C17.4469 14.3043 16.6929 14.0065 16 13.9879M16 13.9879C15.1756 13.9657 14.4375 14.3386 14.4375 15.3574C14.4375 17.2324 17.875 16.2949 17.875 18.1699C17.875 19.2393 16.9601 19.6988 16 19.6643M16 13.9879V12.8574M16 19.6643C15.2768 19.6383 14.5278 19.332 14.125 18.7949M16 19.6643V20.9824" stroke="#B1FF85" stroke-width="0.9375" stroke-linecap="round" stroke-linejoin="round"/>
</g>
</svg>
