<svg width="32" height="33" viewBox="0 0 32 33" fill="none" xmlns="http://www.w3.org/2000/svg">
<g id="Img">
<path id="Vector" d="M32 16.9199C32 8.08337 24.8366 0.919922 16 0.919922C7.16344 0.919922 0 8.08337 0 16.9199C0 25.7565 7.16344 32.9199 16 32.9199C24.8366 32.9199 32 25.7565 32 16.9199Z" fill="#093D2E"/>
<path id="Vector_2" d="M11.625 21.6074V12.5449C11.625 11.8545 12.1846 11.2949 12.875 11.2949H20C20.2071 11.2949 20.375 11.4628 20.375 11.6699V22.5449" stroke="#B1FF85" stroke-width="0.9375" stroke-linecap="round"/>
<path id="Vector_3" d="M14.125 13.7949H17.875" stroke="#B1FF85" stroke-width="0.9375" stroke-linecap="round"/>
<path id="Vector_4" d="M12.5625 18.7949H20.375" stroke="#B1FF85" stroke-width="0.9375" stroke-linecap="round"/>
<path id="Vector_5" d="M12.5625 20.6699H20.375" stroke="#B1FF85" stroke-width="0.9375" stroke-linecap="round"/>
<path id="Vector_6" d="M12.5625 22.5449H20.375" stroke="#B1FF85" stroke-width="0.9375" stroke-linecap="round"/>
<path id="Vector_7" d="M12.5625 20.6699C11.9375 20.6699 11.625 20.2502 11.625 19.7324C11.625 19.2146 11.9375 18.7949 12.5625 18.7949" stroke="#B1FF85" stroke-width="0.9375" stroke-linecap="round" stroke-linejoin="round"/>
<path id="Vector_8" d="M12.5625 22.5449C11.9375 22.5449 11.625 22.1252 11.625 21.6074C11.625 21.0896 11.9375 20.6699 12.5625 20.6699" stroke="#B1FF85" stroke-width="0.9375" stroke-linecap="round" stroke-linejoin="round"/>
</g>
</svg>
