<svg width="33" height="33" viewBox="0 0 33 33" fill="none" xmlns="http://www.w3.org/2000/svg">
<g id="SVG">
<path id="Vector" d="M32.3003 16.9199C32.3003 8.08337 25.1368 0.919922 16.3003 0.919922C7.46374 0.919922 0.300293 8.08337 0.300293 16.9199C0.300293 25.7565 7.46374 32.9199 16.3003 32.9199C25.1368 32.9199 32.3003 25.7565 32.3003 16.9199Z" fill="#093D2E"/>
<path id="Vector_2" d="M13.5503 23.7949H16.3003M16.3003 23.7949H19.0503M16.3003 23.7949V18.9824" stroke="#B1FF85" stroke-width="1.03125" stroke-linecap="round" stroke-linejoin="round"/>
<path id="Vector_3" d="M12.5727 15.5776C13.401 17.389 16.3003 18.9824 16.3003 18.9824C16.3003 18.9824 19.1996 17.389 20.0279 15.5776C20.9221 13.6221 20.0279 10.0449 20.0279 10.0449H12.5727C12.5727 10.0449 11.6785 13.6221 12.5727 15.5776Z" stroke="#B1FF85" stroke-width="1.03125" stroke-linecap="round" stroke-linejoin="round"/>
<path id="Vector_4" d="M16.6441 10.0449L15.2691 12.7949H17.3315L15.9565 15.5449" stroke="#B1FF85" stroke-width="1.03125" stroke-linecap="round" stroke-linejoin="round"/>
</g>
</svg>
