<svg width="17" height="17" viewBox="0 0 17 17" fill="none" xmlns="http://www.w3.org/2000/svg">
<g id="Img">
<path id="Vector" d="M9.27236 0.339844C10.1723 0.342244 10.6291 0.347043 11.0235 0.358243L11.1787 0.363842C11.3579 0.370242 11.5347 0.378242 11.7483 0.387841C12.5994 0.427839 13.1802 0.562233 13.6898 0.759823C14.2178 0.963012 14.6625 1.2382 15.1073 1.68217C15.5141 2.08207 15.8288 2.5658 16.0297 3.0997C16.2273 3.60927 16.3616 4.19004 16.4016 5.042C16.4112 5.25479 16.4192 5.43158 16.4256 5.61157L16.4304 5.76676C16.4424 6.16034 16.4472 6.61712 16.4488 7.51707L16.4496 8.11384V9.16179C16.4516 9.74528 16.4455 10.3288 16.4312 10.9121L16.4264 11.0673C16.42 11.2472 16.412 11.424 16.4024 11.6368C16.3624 12.4888 16.2265 13.0687 16.0297 13.5791C15.8294 14.1133 15.5146 14.5972 15.1073 14.9967C14.7073 15.4033 14.2236 15.718 13.6898 15.919C13.1802 16.1166 12.5994 16.251 11.7483 16.291C11.5585 16.2999 11.3686 16.3079 11.1787 16.315L11.0235 16.3198C10.6291 16.331 10.1723 16.3366 9.27236 16.3382L8.67559 16.339H7.62844C7.04468 16.341 6.46092 16.3349 5.87733 16.3206L5.72214 16.3158C5.53224 16.3086 5.34238 16.3003 5.15257 16.291C4.30141 16.251 3.72064 16.1166 3.21027 15.919C2.67643 15.7185 2.1929 15.4037 1.79354 14.9967C1.3864 14.5969 1.07136 14.1131 0.870391 13.5791C0.672801 13.0695 0.538408 12.4888 0.49841 11.6368C0.489498 11.447 0.481498 11.2571 0.474411 11.0673L0.470412 10.9121C0.45567 10.3288 0.449003 9.74529 0.450413 9.16179V7.51707C0.44818 6.93358 0.454047 6.35009 0.468012 5.76676L0.473612 5.61157C0.480011 5.43158 0.488011 5.25479 0.49761 5.042C0.537608 4.19004 0.672001 3.61007 0.869591 3.0997C1.07047 2.56525 1.38614 2.08137 1.79434 1.68217C2.1936 1.27537 2.67681 0.960602 3.21027 0.759823C3.72064 0.562233 4.30061 0.427839 5.15257 0.387841C5.36536 0.378242 5.54295 0.370242 5.72214 0.363842L5.87733 0.359043C6.46066 0.34483 7.04415 0.338696 7.62764 0.340644L9.27236 0.339844ZM8.45 4.33964C7.38919 4.33964 6.37183 4.76104 5.62172 5.51115C4.87161 6.26126 4.45021 7.27862 4.45021 8.33943C4.45021 9.40024 4.87161 10.4176 5.62172 11.1677C6.37183 11.9178 7.38919 12.3392 8.45 12.3392C9.51081 12.3392 10.5282 11.9178 11.2783 11.1677C12.0284 10.4176 12.4498 9.40024 12.4498 8.33943C12.4498 7.27862 12.0284 6.26126 11.2783 5.51115C10.5282 4.76104 9.51081 4.33964 8.45 4.33964ZM8.45 5.93955C8.76516 5.9395 9.07724 6.00152 9.36843 6.12208C9.65961 6.24264 9.9242 6.41937 10.1471 6.64218C10.37 6.86499 10.5468 7.12952 10.6675 7.42067C10.7882 7.71181 10.8503 8.02387 10.8503 8.33903C10.8504 8.65419 10.7884 8.96627 10.6678 9.25745C10.5472 9.54864 10.3705 9.81323 10.1477 10.0361C9.92484 10.259 9.66031 10.4358 9.36916 10.5564C9.07802 10.6771 8.76596 10.7392 8.4508 10.7393C7.81431 10.7393 7.2039 10.4864 6.75383 10.0364C6.30377 9.58634 6.05093 8.97592 6.05093 8.33943C6.05093 7.70294 6.30377 7.09253 6.75383 6.64246C7.2039 6.1924 7.81351 5.93955 8.45 5.93955ZM12.6506 3.1397C12.3854 3.1397 12.1311 3.24505 11.9436 3.43258C11.756 3.6201 11.6507 3.87444 11.6507 4.13965C11.6507 4.40485 11.756 4.65919 11.9436 4.84672C12.1311 5.03424 12.3854 5.13959 12.6506 5.13959C12.9158 5.13959 13.1702 5.03424 13.3577 4.84672C13.5452 4.65919 13.6506 4.40485 13.6506 4.13965C13.6506 3.87444 13.5452 3.6201 13.3577 3.43258C13.1702 3.24505 12.9158 3.1397 12.6506 3.1397Z" fill="white"/>
</g>
</svg>
