<svg width="17" height="17" viewBox="0 0 17 17" fill="none" xmlns="http://www.w3.org/2000/svg">
<g id="Img">
<path id="Vector" d="M14.6722 0.339844C15.1437 0.339844 15.5959 0.527145 15.9293 0.860543C16.2627 1.19394 16.45 1.64612 16.45 2.11762V14.562C16.45 15.0335 16.2627 15.4857 15.9293 15.8191C15.5959 16.1525 15.1437 16.3398 14.6722 16.3398H2.22773C1.75623 16.3398 1.30405 16.1525 0.97065 15.8191C0.637252 15.4857 0.449951 15.0335 0.449951 14.562V2.11762C0.449951 1.64612 0.637252 1.19394 0.97065 0.860543C1.30405 0.527145 1.75623 0.339844 2.22773 0.339844H14.6722ZM14.2278 14.1176V9.40651C14.2278 8.63797 13.9225 7.90091 13.379 7.35747C12.8356 6.81403 12.0985 6.50873 11.33 6.50873C10.5744 6.50873 9.69439 6.97095 9.26773 7.66428V6.67762H6.78773V14.1176H9.26773V9.7354C9.26773 9.05095 9.81884 8.49095 10.5033 8.49095C10.8334 8.49095 11.1499 8.62206 11.3833 8.85544C11.6167 9.08882 11.7478 9.40535 11.7478 9.7354V14.1176H14.2278ZM3.89884 5.28206C4.2949 5.28206 4.67473 5.12473 4.95479 4.84468C5.23484 4.56462 5.39217 4.18479 5.39217 3.78873C5.39217 2.96206 4.72551 2.28651 3.89884 2.28651C3.50042 2.28651 3.11833 2.44478 2.83661 2.7265C2.55489 3.00822 2.39662 3.39031 2.39662 3.78873C2.39662 4.6154 3.07217 5.28206 3.89884 5.28206ZM5.13439 14.1176V6.67762H2.67217V14.1176H5.13439Z" fill="white"/>
</g>
</svg>
